<?xml version="1.0" encoding="utf-8"?>
<!-- Generator: Adobe Illustrator 16.0.0, SVG Export Plug-In . SVG Version: 6.00 Build 0)  -->
<!DOCTYPE svg PUBLIC "-//W3C//DTD SVG 1.0//EN" "http://www.w3.org/TR/2001/REC-SVG-20010904/DTD/svg10.dtd">
<svg version="1.0" id="Layer_1" xmlns="http://www.w3.org/2000/svg" xmlns:xlink="http://www.w3.org/1999/xlink" x="0px" y="0px"
	 width="512px" height="512px" viewBox="0 0 512 512" enable-background="new 0 0 512 512" xml:space="preserve">
<g>
	<rect x="180.9" y="83.7" width="268.3" height="83.1"/>
	<rect x="180.9" y="214.7" width="268.3" height="83.1"/>
	<rect x="180.9" y="345.7" width="268.3" height="83.1"/>
	<path d="M65.9,107.7v-12c5.6-0.3,9.5-0.6,11.7-1.1c3.5-0.8,6.4-2.4,8.7-4.7c1.5-1.6,2.7-3.8,3.5-6.4
		c0.5-1.6,0.7-2.8,0.7-3.6h14.8v89.9H87.1v-62H65.9z"/>
	<path d="M65.3,284.6c2.5-6,8.5-12.3,17.9-19c8.1-5.8,13.4-10,15.8-12.5c3.7-3.9,5.5-8.2,5.5-12.9
		c0-3.8-1.1-7-3.2-9.5c-2.1-2.5-5.1-3.8-9.1-3.8c-5.4,0-9,2-11,6c-1.1,2.3-1.8,6-2,11H62.1c0.3-7.6,1.7-13.8,4.2-18.5
		c4.7-9,13.1-13.5,25.1-13.5c9.5,0,17.1,2.6,22.7,7.9c5.6,5.3,8.4,12.2,8.4,20.9c0,6.7-2,12.6-6,17.7c-2.6,3.4-6.9,7.3-12.9,11.5
		l-7.1,5c-4.4,3.1-7.5,5.4-9.1,6.8c-1.6,1.4-3,3-4.1,4.9h39.3v15.6H61.1C61.3,295.8,62.7,290,65.3,284.6"/>
	<path d="M77.8,402.1c0,3.6,0.6,6.6,1.7,8.9c2.1,4.3,6,6.5,11.7,6.5c3.5,0,6.5-1.2,9.1-3.6
		c2.6-2.4,3.9-5.8,3.9-10.3c0-5.9-2.4-9.9-7.2-11.8c-2.7-1.1-7-1.7-12.9-1.7v-12.6c5.7-0.1,9.7-0.6,12-1.7c3.9-1.7,5.9-5.3,5.9-10.5
		c0-3.4-1-6.2-3-8.4c-2-2.1-4.8-3.2-8.4-3.2c-4.2,0-7.2,1.3-9.2,4c-2,2.6-2.9,6.2-2.8,10.6H62.1c0.2-4.5,0.9-8.7,2.3-12.7
		c1.4-3.5,3.7-6.8,6.8-9.7c2.3-2.1,5.1-3.7,8.2-4.8c3.2-1.1,7.1-1.7,11.7-1.7c8.6,0,15.5,2.2,20.8,6.7c5.3,4.4,7.9,10.4,7.9,17.9
		c0,5.3-1.6,9.8-4.7,13.4c-2,2.3-4.1,3.8-6.2,4.7c1.6,0,3.9,1.4,6.9,4.2c4.5,4.2,6.8,9.9,6.8,17.1c0,7.6-2.6,14.3-7.9,20.1
		c-5.3,5.8-13.1,8.6-23.4,8.6c-12.7,0-21.6-4.2-26.5-12.5c-2.6-4.4-4-10.2-4.3-17.4H77.8z"/>
</g>
</svg>
