<?xml version="1.0" encoding="utf-8"?>
<!DOCTYPE svg PUBLIC "-//W3C//DTD SVG 1.1//EN" "http://www.w3.org/Graphics/SVG/1.1/DTD/svg11.dtd">
<svg version="1.1" id="Layer_1" xmlns="http://www.w3.org/2000/svg" xmlns:xlink="http://www.w3.org/1999/xlink" x="0px" y="0px" viewBox="0 0 512 512" enable-background="new 0 0 512 512" xml:space="preserve">
<g>
	<path fill="#000" d="M83.5,448.1h342.3V63.6H83.5V448.1z M137.6,423.4h-36.7v-36.7h36.7V423.4z M137.6,348.8h-36.7
		v-36.7h36.7V348.8z M137.6,271.1h-36.7v-36.7h36.7V271.1z M137.6,196.6h-36.7v-36.7h36.7V196.6z M137.6,125.1h-36.7V88.4h36.7
		V125.1z M349.7,406H159.7V275.4h190.1V406z M349.7,236.3H159.7V105.7h190.1V236.3z M408.4,423.4h-36.7v-36.7h36.7V423.4z
		 M408.4,348.8h-36.7v-36.7h36.7V348.8z M408.4,271.1h-36.7v-36.7h36.7V271.1z M408.4,196.6h-36.7v-36.7h36.7V196.6z M408.4,125.1
		h-36.7V88.4h36.7V125.1z"/>
</g>
</svg>
