<svg xmlns="http://www.w3.org/2000/svg">
<!--- inScript Classic Icon Set (Black)  -  best viewed with WORD WRAP off-->

<!-- Top Bar -->
<symbol id="about-icon" viewBox="0 0 100 100"><path d="M50 34c1.7 0 3-.4 4.2-1.4 1-1 1.7-2.2 1.7-3.8 0-1.6-1-3-2-4s-2.6-1.3-4.4-1.3c-1.8 0-3.2.4-4.3 1.4-1.2.5-1.8 2-1.8 3.5s.5 3 1.7 4c1 .8 2.5 1.3 4.2 1.3zm4.6 37V39H40.4v5.4h5v27h-5v5.3h19.2V71"/><path d="M50 10c22 0 40 18 40 40S72 90 50 90 10 72 10 50s18-40 40-40m0-5C25 5 5 25 5 50s20 45 45 45 45-20 45-45S75 5 50 5z"/></symbol>    
<symbol id="arrow-left" viewBox="0 0 48 48"><path d="M43,22H8.82812l10.58594-10.58594l-2.82812-2.82812l-14,14c-0.78097,0.78097-0.78097,2.04716,0,2.82812 l14,14l2.82812-2.82812L8.82812,26H43c0.55228,0,1-0.44772,1-1v-2C44,22.44772,43.55228,22,43,22z"/></symbol>    
<symbol id="arrow-right" viewBox="0 0 48 48"><path d="M31.41406,8.58594l-2.82812,2.82812L39.17188,22H5c-0.55228,0-1,0.44772-1,1v2c0,0.55228,0.44772,1,1,1 h34.17188L28.58594,36.58594l2.82812,2.82812l14-14c0.78096-0.78097,0.78096-2.04716,0-2.82812L31.41406,8.58594z"/></symbol>        
<symbol id="arrow-down" viewBox="0 0 10 4"><path d="M0 0h6L3 4z" /></symbol>   
<symbol id="fullscreen" viewBox="0 0 512 512"><path d="M462 185.6h-61V111h-74.6V50H462v135.6zM326.4 462v-61H401v-74.6h61V462H326.4zM50 326.4h61V401h74.6v61H50V326.4zM185.6 50v61H111v74.6H50V50h135.6z" /></symbol>    
<symbol id="close-button" viewBox="0 0 357 357"><path d="M357 35.7L321.3 0 178.5 142.8 35.7 0 0 35.7l142.8 142.8L0 321.3 35.7 357l142.8-142.8L321.3 357l35.7-35.7-142.8-142.8"/></symbol>    
<symbol id="about-button" viewBox="0 0 49 49"><path d="M24,1C11.31738,1,1,11.31787,1,24s10.31738,23,23,23s23-10.31787,23-23S36.68262,1,24,1z"/><path fill="#FFFFFF" d="M28,33h-3V22c0-0.55225-0.44727-1-1-1h-4c-0.55273,0-1,0.44775-1,1s0.44727,1,1,1h3v10h-3 c-0.55273,0-1,0.44775-1,1s0.44727,1,1,1h8c0.55273,0,1-0.44775,1-1S28.55273,33,28,33z"/><circle fill="#FFFFFF" cx="24" cy="16" r="2"/></symbol>    
<symbol id="search" viewBox="0 0 48 48"><circle cx="32" cy="24" r="9"/><path d="M47.121,36.293l-6.784-6.784C41.386,27.928,42,26.035,42,24c0-5.514-4.486-10-10-10s-10,4.486-10,10 s4.486,10,10,10c2.035,0,3.928-0.614,5.509-1.663l6.784,6.784c0.391,0.391,1.024,0.391,1.414,0l1.414-1.414 C47.512,37.317,47.512,36.683,47.121,36.293z M32,32c-4.418,0-8-3.582-8-8s3.582-8,8-8s8,3.582,8,8S36.418,32,32,32z"/><path fill="#B3B3B3" d="M42,7H2C1.447,7,1,6.552,1,6s0.447-1,1-1h40c0.553,0,1,0.448,1,1S42.553,7,42,7z"/><path fill="#B3B3B3" d="M17,19H2c-0.553,0-1-0.448-1-1s0.447-1,1-1h15c0.553,0,1,0.448,1,1S17.553,19,17,19z"/><path fill="#B3B3B3" d="M17,31H2c-0.553,0-1-0.448-1-1s0.447-1,1-1h15c0.553,0,1,0.448,1,1S17.553,31,17,31z"/><path fill="#B3B3B3" d="M36,43H2c-0.553,0-1-0.448-1-1s0.447-1,1-1h34c0.553,0,1,0.448,1,1S36.553,43,36,43z"/></symbol>

<!-- Main Menu -->
<symbol id="bible-icon" viewBox="0 0 512 512"><path d="M422 99.775v248.172c-57.842 4.348-106.682 14.386-146 29.986V177.696c10.152-6.315 21.41-11.648 33.323-16.166v-42.394c-19.793 6.357-37.81 14.236-53.323 23.894-50.446-31.404-127.3-44.056-206-46.457v289.334c67.575 2.062 133.79 11.682 183.096 34.24 14.525 6.646 31.268 6.654 45.793.008C328.193 397.59 394.416 387.97 462 385.907V94.573c-12.75.2-28.56 2.325-40 5.202zm-186 278.16c-39.318-15.602-88.158-25.64-146-29.987v-209.08c47.504 3.986 105.514 13.64 146 38.828v200.238zm99.187-252.81v105.907l29.81-36.73 29.808 25.693V112.09c0-14.315 6.287-21.605 16.79-25.227-22.094 3.286-46.344 8.91-59.008 12.946-8.98 2.86-17.4 11.535-17.4 25.316z"/></symbol>
<symbol id="commentary-icon" viewBox="0 0 512 512"><path d="M362 75.7c-5.2 1.9-16.2 6.1-24.5 9.3-8.2 3.1-18 6.8-21.7 8-3.9 1.4-6.8 3-6.8 3.7 0 .8 2.7 8.4 5.9 17.1 3.3 8.6 12.3 32.8 20.1 53.7 7.8 20.9 16.1 43.2 18.5 49.5 2.4 6.3 8 21.4 12.5 33.5 4.4 12.1 10.5 28.3 13.5 36 2.9 7.7 9.2 24.3 13.9 37 7.8 21.2 17 45.9 31.3 83.7 3 8.2 5.7 14.8 6 14.8.2 0 11.8-4.3 25.6-9.5 13.9-5.3 28.2-10.7 31.9-12.1l6.7-2.5-3.4-9.2c-1.8-5.1-5.6-15.3-8.5-22.7-2.8-7.4-7.5-20-10.5-28-2.9-8-10.6-28.5-17-45.5-6.4-17.1-13.2-35.1-15-40-1.8-5-5.3-14.4-7.8-21s-8.9-23.7-14.2-38c-5.3-14.3-10.7-28.7-11.9-32-1.3-3.3-7-18.4-12.6-33.5-15.5-42-20.7-55.4-21.7-55.6-.4-.2-5.1 1.3-10.3 3.3zm12.3 50c2 5.8 3.6 10.7 3.5 10.8-.4.4-34.7 13.5-35.2 13.5s-.9-1.1-5.2-12.7l-3.3-9.1 4.2-1.6c2.3-.8 10.1-3.7 17.2-6.5 7.2-2.8 13.5-5 14-5.1.6 0 2.7 4.8 4.8 10.7zm86.4 230.9c4.1 10.4 4.1 10.5 2 11.3-1.2.5-9.4 3.6-18.1 7-8.7 3.4-16 6-16.1 5.9-.8-1.2-7.5-19.7-7.5-20.9 0-1 4.3-3 13.3-6.3 7.2-2.6 14.6-5.3 16.2-6.1 5.5-2.5 5.8-2.2 10.2 9.1zM24 248v174h68V74H24v174zm51-123.5V136H36v-23h39v11.5zm-.2 246.2l-.3 11.8-19.2.3-19.3.2v-24h39.1l-.3 11.7zM231.2 254l.3 166 34.3.3 34.2.2V88h-69l.2 166zm53.8-69v18h-39v-36h39v18zm.5 186v11.5l-19.2.3-19.3.2v-24l19.3.2 19.2.3V371zM116 268.5V423h89V114h-89v154.5zm76.5-100v18h-63.6v-17.8c0-9.7.1-17.9.1-18.2 0-.3 14.3-.4 31.8-.3l31.7.3v18z"/></symbol>
<symbol id="search-icon" viewBox="0 0 16 16"><path d="M1.777 1.777c-2.37 2.37-2.37 6.21 0 8.58 2.37 2.368 6.21 2.368 8.58 0 2.368-2.37 2.368-6.21 0-8.58-2.37-2.37-6.21-2.37-8.58 0zm7.902.677c1.994 1.995 1.994 5.23 0 7.224-1.996 1.995-5.23 1.995-7.226 0-1.995-1.995-1.995-5.23 0-7.224C4.45.46 7.684.46 9.68 2.454zM10.13 11.485l1.355-1.355L16 14.645 14.645 16l-4.515-4.515z"/></symbol>
<symbol id="map-icon" viewBox="0 0 512 512"><path d="M211.484 237.806c0-28.246-22.902-51.148-51.15-51.148-28.25 0-51.15 22.902-51.15 51.148 0 42.008 40.23 46.45 51.15 110.336 10.92-63.89 51.15-68.33 51.15-110.336zm-69.495-1.24c0-10.132 8.212-18.345 18.344-18.345s18.345 8.214 18.345 18.347c0 10.13-8.214 18.344-18.346 18.344s-18.345-8.214-18.345-18.343zm291.038-79.747c0-48.98-39.71-88.692-88.693-88.692-48.984 0-88.697 39.71-88.697 88.69 0 72.84 69.762 80.544 88.697 191.323 18.936-110.782 88.693-118.48 88.693-191.32zm-120.503-2.15c0-17.567 14.24-31.81 31.81-31.81 17.568 0 31.81 14.243 31.81 31.81 0 17.565-14.24 31.808-31.81 31.808s-31.81-14.243-31.81-31.807zm-111.422 156.9c5.734-8.34 12.157-15.437 18.24-23.833l32.853 21.473s21.396-12.61 38.496-22.682c4.87 8.014 9.406 16.86 13.362 27.04-19.448 11.67-51.304 30.946-51.304 30.946l-51.647-32.945zM462 443.87l-115.14-41.666-93.665 41.666-93-41.666L50 443.872l67.562-134.445.377-.164c6.526 9.06 12.277 19.328 15.967 34.453l-22.558 44.887 49.813-18.836 82.863 37.125 8.723-41.4 9.62 41.467 83.336-37.073 55.834 20.205-25.015-49.99c3.566-15.482 8.312-28.342 13.768-39.525L462 443.872z"/></symbol>
<symbol id="media-icon" viewBox="0 0 48 48"><path fill="#223E49" d="M45,45H3c-1.105,0-2-0.895-2-2V5c0-1.105,0.895-2,2-2h42c1.105,0,2,0.895,2,2v38C47,44.105,46.105,45,45,45z"/><circle fill="#EFD358" cx="21" cy="15" r="4"/><path fill="#5A7A84" d="M41.792,35.39l-10-13c-0.378-0.492-1.207-0.492-1.585,0l-8.243,10.715l-6.184-7.73 c-0.379-0.475-1.183-0.475-1.562,0l-8,10C5.697,36.028,6.161,37,7,37h34C41.829,37,42.298,36.047,41.792,35.39z"/></symbol>
<symbol id="parallel-icon" viewBox="0 0 100 100"><path fill="none" stroke="#000" stroke-width="4" stroke-miterlimit="10" d="M84.163 69.864c0 7.897-6.522 14.3-14.567 14.3H30.404c-8.045 0-14.567-6.403-14.567-14.3V30.136c0-7.897 6.522-14.3 14.567-14.3h39.193c8.045 0 14.567 6.403 14.567 14.3v39.728z"/><circle cx="35.255" cy="35.729" r="10.083"/><circle cx="35.255" cy="64.324" r="10.083"/><circle cx="64.302" cy="35.729" r="10.083"/><circle cx="64.302" cy="64.324" r="10.083"/></symbol>
<symbol id="compare-icon" viewBox="0 0 512 512"><path stroke="#000000" transform="rotate(90 259.00000000000006,154.98941040039065) " stroke-opacity="0" id="svg_1" d="m170,154.516006l89.001007,-196.914207l88.998993,196.914207l-44.5,0l0,197.861008l-88.998993,0l0,-197.861008l-44.501007,0z" stroke-width="0" fill="#000000"/><path transform="rotate(-90 239.00000000000003,355.4999694824219) " id="svg_2" stroke="#000000" stroke-opacity="0" d="m150,355.027069l89.00061,-196.914688l88.99939,196.914688l-44.499695,0l0,197.860504l-88.999252,0l0,-197.860504l-44.501053,0z" stroke-width="0" fill="#000000"/></symbol>
<symbol id="audio-icon" viewBox="0 0 512 512"><path fill="#666" d="M135.704 333.428h-57.72c-15.455 0-27.984-12.53-27.984-27.985v-98.886c0-15.455 12.53-27.984 27.983-27.984h57.72v154.855zm31.45-161.795V340.37l135.238 77.862V93.768l-135.238 77.865zm172.837 25.173c15.103 15.134 24.426 36.036 24.386 59.11-.026 23.066-9.407 43.943-24.544 59.04l24.828 24.915c21.512-21.452 34.856-51.132 34.902-83.914.05-32.788-13.195-62.474-34.646-83.984l-24.925 24.834zm43.62-43.46c26.23 26.294 42.393 62.564 42.33 102.635-.053 40.07-16.37 76.35-42.665 102.58l25.443 25.546c32.83-32.752 53.212-78.06 53.28-128.09.078-50.027-20.1-95.294-52.838-128.12l-25.55 25.45z"/></symbol>
<symbol id="feedback" viewBox="0 0 100 100"><path fill="#000" d="M75 12.5H25c-12.5 0-18.75 6.25-18.75 18.75V50c0 12.5 6.25 18.75 18.75 18.75 0 0 6.254-.223 12.5 0 10.5.375 14.214 3.227 18.75 6.25L75 87.5V68.75c12.5 0 18.75-6.25 18.75-18.75V31.25c0-12.5-6.25-18.75-18.75-18.75zM83.75 50c0 6.95-1.8 8.75-8.75 8.75H65v10.064l-3.87-2.58c-4.66-3.13-10.462-7.02-23.273-7.48-1.96-.068-4.104-.104-6.373-.104-3.314 0-5.916.076-6.64.1-6.82-.027-8.594-1.852-8.594-8.75V31.25c0-6.95 1.8-8.75 8.75-8.75h50c6.95 0 8.75 1.8 8.75 8.75V50z"/></symbol>
<symbol id="stats-icon" viewBox="0 0 49 49"><path fill="#000" d="M12,27H2c-0.55225,0-1,0.44727-1,1v12c0,0.55273,0.44775,1,1,1h10c0.55225,0,1-0.44727,1-1V28 C13,27.44727,12.55225,27,12,27z"/><path fill="#000" d="M28,17H18c-0.55225,0-1,0.44727-1,1v22c0,0.55273,0.44775,1,1,1h10c0.55225,0,1-0.44727,1-1V18 C29,17.44727,28.55225,17,28,17z"/><path fill="#000" d="M44,7H34c-0.55225,0-1,0.44727-1,1v32c0,0.55273,0.44775,1,1,1h10c0.55225,0,1-0.44727,1-1V8 C45,7.44727,44.55225,7,44,7z"/></symbol>    
<symbol id="deafbible-icon" viewBox="0 0 400 400"><path fill="#000" d="M128.6 51c3.7-10.6 7-20.3 20.2-19.5 10.5.7 14.2 7.4 15 16.5 22.3 5.5 24 10 17 48.6 18.5-.4 18 12.2 17.6 25.4-.4 15.8 0 31.7 0 47.5 0 1.2.5 2.3 3.4 3.7.5-7 1.4-14 1.4-20.8 0-12 0-24.2-.8-36.3-.8-12 3.7-19 17-19l-2.6-25C215 56.6 219 51.6 236 49c2-9 5-17.4 16.8-17.5 13-.2 15.8 10 19.3 19.3 16-10.4 23-8.4 29 9.2 12.8 36.5 24 73.3 36.6 110.2 11.4-17 29.3-21 49-17.5 4.8 1 10.6 6.6 12 11.3 1 2.7-5.3 10.4-9.5 11.5-24 6.2-30.3 25.8-32 45.4-2.2 26.4-11.7 49-27 71-8.4 12-11 29-13 44.4-1.7 11.5-7 18.5-16 23.4-19.7 10.3-41 14.4-63 12.6-3.7-.3-9.2-3.3-10.6-6.5-8.6-20.5-16.5-41.4-24.6-62l-3.4-.5c-8 19.6-15.5 39.4-24.2 58.7-2 4.5-8.4 10.2-12.6 10-15-.4-30-1.7-44.4-5.3-19-4.6-34-13.6-34.8-37.6-.5-18.7-7.5-36.3-20.6-51-12.7-14.6-15-32.8-17.4-51.2-2-13-5.3-26.4-11.3-38-3.3-6-13-9.2-20.6-12.6-6.3-3-14-5.7-11-13.6 2-4.5 9-9.5 14.5-10.3 18.5-3 35.5 1 47.5 19.4l3.2-9.3c11-35 21.4-70 33-104.6 5-15.6 13.6-17.5 28-7z"/></symbol>    
<symbol id="settings-button" viewBox="0 0 512 512" enable-background="new 0 0 512 512" xml:space="preserve"><path id="gear-5-icon" d="M462,283.742v-55.485l-49.249-17.514c-3.4-11.792-8.095-23.032-13.919-33.563l22.448-47.227 l-39.234-39.234l-47.226,22.449c-10.53-5.824-21.772-10.52-33.564-13.919L283.741,50h-55.484l-17.515,49.25 c-11.792,3.398-23.032,8.094-33.563,13.918l-47.227-22.449l-39.234,39.234l22.45,47.227c-5.824,10.531-10.521,21.771-13.919,33.563 L50,228.257v55.485l49.249,17.514c3.398,11.792,8.095,23.032,13.919,33.563l-22.45,47.227l39.234,39.234l47.227-22.449 c10.531,5.824,21.771,10.52,33.563,13.92L228.257,462h55.484l17.515-49.249c11.792-3.398,23.034-8.095,33.564-13.919l47.226,22.448 l39.234-39.234l-22.448-47.226c5.824-10.53,10.521-21.772,13.919-33.564L462,283.742z M256,331.546 c-41.724,0-75.548-33.823-75.548-75.546s33.824-75.547,75.548-75.547c41.723,0,75.546,33.824,75.546,75.547 S297.723,331.546,256,331.546z" fill="#000000"/></symbol>
<symbol id="link" viewBox="0 0 512 512"><path fill="#000" d="M342.416 169.584c10.014 10.014 10.014 26.25 0 36.266l-136.57 136.57c-10.014 10.015-26.25 10.014-36.265 0-10.014-10.015-10.014-26.252 0-36.266l136.57-136.57c10.014-10.014 26.25-10.014 36.267 0zM185.54 399.377c-20.102 20.103-52.812 20.103-72.916 0-20.103-20.104-20.103-52.814 0-72.917l96.79-96.68c-32.478-7.886-68.168.852-93.53 26.213L79.02 292.857c-38.693 38.693-38.693 101.43 0 140.123 38.694 38.693 101.43 38.693 140.123 0l36.864-36.864c25.357-25.358 34.095-61.042 26.216-93.517l-96.682 96.776zM292.857 79.02l-36.862 36.863c-25.362 25.362-34.154 60.996-26.27 93.476l96.735-96.738c20.103-20.103 52.81-20.103 72.915 0 20.104 20.103 20.104 52.812 0 72.916l-96.73 96.73c32.477 7.88 68.112-.905 93.47-26.265l36.865-36.864c38.692-38.693 38.692-101.428 0-140.12-38.695-38.695-101.43-38.695-140.124 0z"/></symbol>

<!-- Settings Menu -->
<symbol id="verses-toggle" viewBox="0 0 512 512"><path d="M181 83.7h268v83H181zm0 131h268v83H181zm0 131h268v83H181zm-115-238v-12c5.5-.3 9.4-.6 11.6-1 3.5-1 6.4-2.5 8.7-4.8 1.5-2 2.7-4 3.5-7 .5-2 .7-3 .7-4h14.8v90H87v-62H66zm-.7 177c2.5-6 8.5-12.4 18-19 8-6 13.3-10 15.7-12.6 3.7-3 5.5-8 5.5-12s-1-7-3.2-9c-2-2.3-5-4-9-4-5.5 0-9 2-11 6-1.2 2.6-2 6-2 11H62c.4-7.3 1.8-14 4.3-18.2 4.7-9 13-13.5 25-13.5 9.6 0 17.2 2.5 22.8 7.8 6 5.5 9 12.4 9 21 0 6.8-2 12.7-6 17.8-2 3.2-7 7-13 11.3l-7 5-9 6.7c-1 1.3-3 3-4 5h39v15H61c.3-6.5 1.7-12.3 4.3-17.7m12.5 117c0 3.7.6 6.7 1.7 9 2 4.3 6 6.5 11.7 6.5 3.5 0 6.5-1.2 9-3.6 2.7-3 4-6 4-11 0-6-2.4-10-7.2-12-2.7-1-7-2-13-2v-12c5.8 0 9.8-1 12-2 4-1.8 6-5.4 6-10.6 0-4-1-7-3-9s-4.8-3.5-8.4-3.5c-4.2 0-7.2 1.3-9.2 4-2 2.6-3 6.2-2.8 10.6H62c.3-4.5 1-8.7 2.4-12.7 1.4-3.5 3.7-6.8 6.8-9.7 2.3-2.3 5-4 8.2-5 3.2-1 7-1.7 11.7-1.7 9 0 16 2.2 21 6.7 6 4.5 8 10.5 8 18 0 5.3-1 9.8-4 13.4-2 2.4-4 4-6 4.8 2 0 4 1.5 7 4.3 5 4 7 10 7 17 0 7.5-2.3 14.2-8 20-5 5.7-13 8.5-23 8.5-12.7 0-21.6-4-26.5-12-2.5-4.5-4-10.3-4.2-17.5h17z"/></symbol>
<symbol id="chapters-toggle" viewBox="0 0 512 512"><path d="M181 83.7h268v83H181zm-126.5 131h394.7v83H54.5zm0 131h394.7v83H54.5zM51 74V52c10.4-.6 17.6-1 21.7-2 6.5-1.5 12-4.4 16-8.7 3-3 5-7 6.6-11.8 1-3 1.3-5.2 1.3-6.7H124V189H90.2V74.4H51V74z"/></symbol>
<symbol id="titles-toggle" viewBox="0 0 512 512"><path d="M54.5 50.5h308v121h-308z"/><path d="M54.5 214.7h394.7v83H54.5zm0 131h394.7v83H54.5z"/></symbol>
<symbol id="notes-toggle" viewBox="0 0 512 512"><path d="M60.4 79.4h393v83h-393zm0 131h268.3v83H60.4zm0 131h395.2v83H60.4zm355.4-30l-63-108.2h126"/></symbol>
<symbol id="wordsofchrist-toggle" viewBox="0 0 512 512"><path d="M66.6 83.7H441v83H66.5z"/><path fill="#F00" d="M66.6 214.7H441v83H66.5z"/><path d="M66.6 345.7H441v83H66.5z"/></symbol>
<symbol id="media-toggle" viewBox="0 0 48 48"><path fill="#223E49" d="M45,45H3c-1.105,0-2-0.895-2-2V5c0-1.105,0.895-2,2-2h42c1.105,0,2,0.895,2,2v38C47,44.105,46.105,45,45,45z"/><circle fill="#EFD358" cx="21" cy="15" r="4"/><path fill="#5A7A84" d="M41.792,35.39l-10-13c-0.378-0.492-1.207-0.492-1.585,0l-8.243,10.715l-6.184-7.73 c-0.379-0.475-1.183-0.475-1.562,0l-8,10C5.697,36.028,6.161,37,7,37h34C41.829,37,42.298,36.047,41.792,35.39z"/></symbol>
<symbol id="justify-toggle" viewBox="0 0 512 512"><path d="M54.4 83.7h394.8v83H54.4zm0 131h394.8v83H54.5zm0 131h394.8v83H54.5z"/></symbol>
<symbol id="language'" viewBox="0 0 31 25"><path d="M6.84 24.777c-.075 0-.152-.015-.222-.045-.152-.066-.247-.195-.247-.334v-5.396C2.26 17.277 0 14.258 0 10.476 0 4.63 6.663.223 15.5.223S31 4.63 31 10.476c0 5.844-6.663 10.252-15.5 10.252-.29 0-.575-.013-.86-.025h-.02l-7.52 4.01c-.08.043-.17.064-.26.064zM15.5.98C7.2.98.94 5.063.94 10.476c0 2.517 1.06 5.94 6.108 7.954.16.063.26.195.26.34v4.924l6.924-3.692c.084-.046.187-.072.284-.063l.174.005c.27.012.537.023.81.023 8.3 0 14.56-4.08 14.56-9.495C30.06 5.063 23.8.98 15.5.98z" fill-rule="evenodd"/></symbol>
<symbol id="eng2p-button" viewBox="0 0 512 512"><path d="M462 393.6H355.6c0-115.8-58-60.8-58-162.3 0-36.6 24-56.5 54.8-56.5 45.5 0 77.2 43.5 34 124.7-14 26.7 15.2 33 46.6 40.3 31.4 7.2 29 23.8 29 53.8zM289 326c-39.4-9.2-76-17.2-58.3-50.8 54.2-102 14.3-156.8-43-156.8-58.2 0-97 56.8-42.8 156.8C163.2 309 125 317 86.4 326 47 335 50 355.7 50 393.5h275.6c0-37.8 3-58.6-36.5-67.7z"/></symbol>
<symbol id="visualfilters-button" viewBox="0 0 512 512"><path d="M200 28.2c0 4.7-14.2 43-24.5 66.3L165.2 119 150 155.5l-13.6 33c-4 10-8.3 20-9.4 22.5L84.5 313c-7 16.8-14.4 33.4-16.5 37-7.7 13-16.7 19-29.7 19.8l-7 .5-.5 6.4c-.2 3.6 0 6.7 0 7 .3 0 23.2.3 51 .3H132v-13.7l-12.7-.5c-34.2-1.3-34.4-9.7-2.3-85l6.3-14.8 69 .2 69 .3 7 17.5 11.4 29.5c2.5 6.6 5.4 14 6.4 16.2 4 7.3 7 21.4 6 25.5-1 8-5 10-24 10.6l-13 .5V384h67c37 0 67 .4 68 .8.5 1-.4 3-8.5 19.7-7.7 15.8-13.7 26-27.6 47.2-12 18-11.7 17.6-9.8 24.6.5 1.6 4 1.7 60 1.5l60-.3 2-18c1-10 3-23.6 3.6-30.5 1-7 2-15 2-17.8l1-5.2h-14l-1.3 4.2c-1.8 6-8.6 20.3-11 23.5-4.4 5.5-8.4 7.3-18.8 8.3-12.2 1.2-47 1.3-47.7.2-.5-.5 5-7.2 12-14.8 28.3-31.2 41.3-49 51.5-70.7 10-21.7 14-41.3 13-64.7-1.7-41.4-16.2-75.3-43.4-101-20.2-19.2-44.6-31.2-75.3-37-16.4-3.3-43.5-3.3-60-.2-30.6 6-55 18.2-76.7 38.6-12 11-26 31.8-32 46.8l-2.3 6.5c0 .2 10.5.2 23.3 0l23-.2 2-8c14-39 38-62 73-68 16-3 35-1.6 49.3 3.4 35.5 12 59.6 46 67 96 2.4 15 2.4 43 0 59-1.8 12-6.5 32-9 38l-1.6 3-10-.7c-8-.3-11.4-1-14.6-2.5-12-6.3-22-25.4-43-80.3l-17.2-45c-7.4-18.7-15-38.5-17-44-7-18.8-7-18.5-10.6-17.7-13 3-31 15-41.3 28.7l-2 2.7 8 20c4.4 11 8 20.3 8 21 0 1-18 1-62 1-34 0-62-.3-62-.5 0-.6 5.4-13.6 7.5-18l5-11 7.6-18 9-22 23-55 7-16c2.6-6 5-11.3 5.7-11 .8 0 3 5.7 6 12.2l12 30.6 7.5 19s5-2 10.6-4.8c10-5.4 23.6-10.6 33-12.6l6.2-2c.5-.5-1.6-7-4.6-14.7l-9-23.4-7-18c-11-26-21.4-56.4-21.4-60 0-1-3-1.3-14-1.3-10.5 0-14 .2-14 1z"/><path d="M157.4 281.2c-.4 2.4-.7 10.8-.6 18.8 0 23 3.8 38.8 14.2 60.6 10.6 22 25 41.2 50.2 67 7.8 8 13.3 14.3 12.8 14.8-1.3 1.3-51.8 0-56-1.4-8.4-3-14-10.3-20-26.3l-3.5-8.8h-13l.3 4 2.2 21 3.8 31 1.7 15H269l1.5-3.8c.8-2 1.5-4.3 1.5-5 0-.8-5-9-11-18.7-22-34-34.4-58-43.2-83.6-9-26-12.2-45-11.7-71.4l1-18h-48l-1 4.4z"/></symbol><!-- Text Chooser Icons -->
<symbol id="comparison-icon" viewBox="0 0 512 512"><path transform="rotate(90 259.00000000000006,154.98941040039065)" d="m170,154.516006l89.001007,-196.914207l88.998993,196.914207l-44.5,0l0,197.861008l-88.998993,0l0,-197.861008l-44.501007,0z" fill="#000000"/><path transform="rotate(-90 239.00000000000003,355.4999694824219)" d="m150,355.027069l89.00061,-196.914688l88.99939,196.914688l-44.499695,0l0,197.860504l-88.999252,0l0,-197.860504l-44.501053,0z" fill="#000"/></symbol>

<!-- Audio Icons -->
<symbol id="audio-toggle" viewBox="0 0 49 49">  <path d="M12 43h-.4c-.4-.3-.6-.6-.6-1V6c0-.4.2-.7.6-1 .3 0 .7 0 1 .2l24 18c.3.2.4.5.4.8s0 .6-.4.8l-24 18-.6.2z"/><path fill="currentColor" d="M17 43H9c-1 0-2-1-2-2V7c0-1 1-2 2-2h8c1 0 2 1 2 2v34c0 1-1 2-2 2zM39 43h-8c-1 0-2-1-2-2V7c0-1 1-2 2-2h8c1 0 2 1 2 2v34c0 1-1 2-2 2z"/></symbol>
<symbol id="audio-prev" viewBox="0 0 512 512"><path d="M94.8 370V142H50v228h44.8zm183.7 13L94.8 256l183.7-127v254zm183.5 0L278.3 256 462 129v254z"/></symbol>
<symbol id="audio-next" viewBox="0 0 512 512"><path d="M462 370V142h-44.8v228H462zM233.5 129l183.7 127-183.7 127V129zM50 129l183.7 127L50 383V129z"/></symbol>
<symbol id="audio-options" viewBox="0 0 512 512"><path d="M462,283.742v-55.485l-49.249-17.514c-3.4-11.792-8.095-23.032-13.919-33.563l22.448-47.227 l-39.234-39.234l-47.226,22.449c-10.53-5.824-21.772-10.52-33.564-13.919L283.741,50h-55.484l-17.515,49.25 c-11.792,3.398-23.032,8.094-33.563,13.918l-47.227-22.449l-39.234,39.234l22.45,47.227c-5.824,10.531-10.521,21.771-13.919,33.563 L50,228.257v55.485l49.249,17.514c3.398,11.792,8.095,23.032,13.919,33.563l-22.45,47.227l39.234,39.234l47.227-22.449 c10.531,5.824,21.771,10.52,33.563,13.92L228.257,462h55.484l17.515-49.249c11.792-3.398,23.034-8.095,33.564-13.919l47.226,22.448 l39.234-39.234l-22.448-47.226c5.824-10.53,10.521-21.772,13.919-33.564L462,283.742z M256,331.546 c-41.724,0-75.548-33.823-75.548-75.546s33.824-75.547,75.548-75.547c41.723,0,75.546,33.824,75.546,75.547 S297.723,331.546,256,331.546z"/></symbol>

<!-- Inline Icons  -->
<symbol id="fancy-arrow" viewBox="0 0 512 512"><path d="M204.2 38.7l.3 14.8h115l.3-14.8.3-14.7H204l.2 14.7zM206 97v15h115l-.2-14.8-.3-14.7-57.2-.3L206 82v15zm-2 111.5V276h-53.5c-29.4 0-53.5.3-53.5.6s4 5.3 8.7 11l11.8 14.4 30.5 37 30 36.4c15 18.8 83.4 101 84 101 .5 0 8.6-9.4 18.2-21l49.3-60 84.3-102.2c7.2-9 13.2-16.4 13.2-16.7 0-.3-24-.5-53.5-.5H320V141H204v67.5z"/></symbol>
<symbol id="image-icon" viewBox="0 0 512 512"><path d="M270.5 255.5c0-24 19.6-43.7 43.8-43.7 24.2 0 43.8 19.6 43.8 43.7s-19 43.8-43.2 43.8-43.8-19.6-43.8-43.8zm80 46c-10.3 8-23 12.4-36.2 12.4-13.4 0-26.2-5-36.4-13-27 10-39.7 44.2-39.7 60H389c0-15.7-12-50-38.6-60zm111-150V462H164.8v-54.7L118 417.7 50.6 114.5 340 50l22.6 101.4h98.8zm-296.6 0h165l-14.5-64-227.6 51 45.2 203 31.4-7v-183zM429.2 183h-233v207.8h233.3V183z"/></symbol>
<symbol id="video-icon" viewBox="0 0 512 512"><path d="M354.5 388.5c-20.6 24-57 40-98.5 40s-78-16-98.5-40h197zM462 83.5v280H50v-280h412zm-40 40H90v200h332v-200zM221 285.8V165.6l98 60-98 60.2z"/></symbol>
<symbol id="maps" viewBox="0 0 201 174"><path d="M201.312 55.007l30.656 65.697c1.247 2.672-.064 4.857-2.912 4.857H36.724c-2.848 0-4.16-2.18-2.912-4.852l30.658-65.7c.486-1.044 1.797-1.9 2.91-1.9h26.29c.81 0 1.904.53 2.434 1.17 1.784 2.15 3.6 4.25 5.412 6.33 1.72 1.972 3.45 3.97 5.165 6.017H75.486c-1.114 0-2.425.855-2.912 1.9l-20.307 43.523H213.52l-20.31-43.524c-.488-1.045-1.798-1.9-2.913-1.9H159.03c1.716-2.046 3.446-4.045 5.166-6.02 1.817-2.084 3.644-4.18 5.432-6.33.53-.638 1.62-1.166 2.43-1.166H198.4c1.114 0 2.424.854 2.912 1.9zm-23.45-53.733c0 37.44-28.673 44.463-42.158 80.444-1.096 2.924-4.882 2.91-5.978-.014C117.56 49.264 93.05 40.366 88.36 11.466c-4.62-28.452 13.503-56.322 39.962-59.04 26.91-2.766 49.54 20.168 49.54 48.848zm-17.76-.74c0-14.994-12.155-27.15-27.15-27.15s-27.15 12.156-27.15 27.15c0 14.996 12.155 27.15 27.15 27.15s27.15-12.154 27.15-27.15z" fill-rule="evenodd"/></symbol>
<symbol id="hope" viewBox="0 0 51 50"><path fill="#000" fill-rule="evenodd" d="M0 0h19v3h-1.4c-1.5 0-2.6 0-3.2.4-.6.3-1 .8-1.4 1.5-.2.4-.3 1.5-.3 3.2v13.6H38V8.5 5.2c-.2-.7-.6-1.3-1.2-1.6-.7-.4-1.6-.6-3-.6H32V0h18.8v3H49c-1.2 0-2.2 0-2.7.4-.6.3-1 .7-1.2 1.2C45 5 45 6.2 45 8v33.3c0 1.8 0 3 .3 3.5.4.5.8 1 1.5 1 .5.2 2 .3 4.3.3v3H32v-3h1.4c1.7 0 3 0 3.4-.3.6-.2 1-.6 1-1 .3-.5.3-1.7.3-3.8V25.5H12.8v15.7c0 1.8 0 3 .4 3.5.3.5.8 1 1.5 1 .5.2 2 .3 4.4.3v3H0v-3h1.2c1.8 0 3 0 3.4-.2.5-.2.8-.6 1-1.2.4-.5.5-1.5.5-3V8c0-1.6 0-2.7-.3-3.3-.2-.6-.6-1-1-1.3C4 3 3 3 2 3H0V0z"/></symbol>

<!-- Bible Picker -->
<symbol id="provider-fcbh" viewBox="0 0 350 216"><polygon fill="#CA4316" points="215.8,61.5 215.8,92.5 246.5,92.5 277.2,92.5 277.2,61.5 246.5,61.5"/><polygon fill="#CA4316" points="215.8,123 215.8,154 246.5,154 277.2,154 277.2,123 246.5,123"/><polygon fill="#CA4316" points="308,0 184.8,0 184.8,30.5 308,30.5 308,184.8 184.8,184.8 184.8,215.5 308,215.5 338.8,215.5 338.8,0"/><polygon fill="#CA4316" points="30.8,30.5 154,30.5 154,0 30.8,0 0,0 0,215.5 30.8,215.5 154,215.5 154,184.8 30.8,184.8"/><rect x="154" y="30.5" fill="#CA4316" width="30.8" height="154"/></symbol>
<symbol id="provider-abs" viewBox="0 0 100 60"><path fill="#004b85" d="M8.8 28.2l29.7 13.6-28.2-26.3-1.5 12.7m39.7 8.6L50 11.6c-2.7-2.4-5.7-4-8.5-5l7 30.2M11 9.8l-.6 5.6L40.6 40 19.2 8c-2 .6-5 1.3-8.2 2M6.4 49.3c7-.8 14.5-3.2 16-3.7h.4c1.4-.6 7.4-2.4 14-1.6l-28-15.7-2.4 21M32 5.3l13.7 32L41.4 7c-3.4-1-7-1.4-9.4-1.3M22.8 7h-.2c-.6 0-1.8.5-3.3 1L43 38.2l-11-33c-4.4.2-8.2 1.2-9.2 1.6m54.7 0h-.2v-.2c-1.2-.3-5-1.3-9.3-1.4l-11 33L80.7 7.8c-1.5-.5-2.7-1-3.2-1M91.2 28l-28 16c6.6-.7 12.6 1 14 1.6h.2c1.7.6 9 3 16.2 3.8l-2.4-21m-1.5-13L61.5 42l29.7-13.6-1.5-12.7M89 10l-8.2-2-21.4 32 30.2-24.6L89 10M58.6 6.5l-4.3 30.7L68 5.2c-2.4 0-6 .4-9.4 1.4m-8.6 5l1.5 25.2 7-30c-2.8.8-5.8 2.4-8.5 4.8z"/><path fill="#e03a3e" d="M50 52l-4.8-3h-17v5.4H72V49H55l-5 3m25-2.5c-.4-.3-.8-.4-1.2-.4-.4 0-.7 1-1 1l-.4 1s0 1 .4 1c.3 1 .6 1 1 1h1c.3 0 .5-.5.5-1s-.2-.6-.5-1m0 2l-1 .4-1-.4-.2-1s0-.6.3-1 0 0 1 0v1s0 .7-.8 1m0-1.2c0-.2 0-.4-.4-.4h-1v1h.3v-1h.7v.5h.4v-1h.4l.2-.5m-.6.2h.2V50h.3c.3 0 .3 0 .3.2v.2z"/></symbol>
<symbol id="lemma" viewBox="0 0 512 512"><g fill="#333"><path d="M200 28.2c0 4.7-14.2 43-24.5 66.3L165.2 119 150 155.5l-13.6 33c-4 10-8.3 20-9.4 22.5L84.5 313c-7 16.8-14.4 33.4-16.5 37-7.7 13-16.7 19-29.7 19.8l-7 .5-.5 6.4c-.2 3.6 0 6.7 0 7 .3 0 23.2.3 51 .3H132v-13.7l-12.7-.5c-34.2-1.3-34.4-9.7-2.3-85l6.3-14.8 69 .2 69 .3 7 17.5 11.4 29.5c2.5 6.6 5.4 14 6.4 16.2 4 7.3 7 21.4 6 25.5-1 8-5 10-24 10.6l-13 .5V384h67c37 0 67 .4 68 .8.5 1-.4 3-8.5 19.7-7.7 15.8-13.7 26-27.6 47.2-12 18-11.7 17.6-9.8 24.6.5 1.6 4 1.7 60 1.5l60-.3 2-18c1-10 3-23.6 3.6-30.5 1-7 2-15 2-17.8l1-5.2h-14l-1.3 4.2c-1.8 6-8.6 20.3-11 23.5-4.4 5.5-8.4 7.3-18.8 8.3-12.2 1.2-47 1.3-47.7.2-.5-.5 5-7.2 12-14.8 28.3-31.2 41.3-49 51.5-70.7 10-21.7 14-41.3 13-64.7-1.7-41.4-16.2-75.3-43.4-101-20.2-19.2-44.6-31.2-75.3-37-16.4-3.3-43.5-3.3-60-.2-30.6 6-55 18.2-76.7 38.6-12 11-26 31.8-32 46.8l-2.3 6.5c0 .2 10.5.2 23.3 0l23-.2 2-8c14-39 38-62 73-68 16-3 35-1.6 49.3 3.4 35.5 12 59.6 46 67 96 2.4 15 2.4 43 0 59-1.8 12-6.5 32-9 38l-1.6 3-10-.7c-8-.3-11.4-1-14.6-2.5-12-6.3-22-25.4-43-80.3l-17.2-45c-7.4-18.7-15-38.5-17-44-7-18.8-7-18.5-10.6-17.7-13 3-31 15-41.3 28.7l-2 2.7 8 20c4.4 11 8 20.3 8 21 0 1-18 1-62 1-34 0-62-.3-62-.5 0-.6 5.4-13.6 7.5-18l5-11 7.6-18 9-22 23-55 7-16c2.6-6 5-11.3 5.7-11 .8 0 3 5.7 6 12.2l12 30.6 7.5 19s5-2 10.6-4.8c10-5.4 23.6-10.6 33-12.6l6.2-2c.5-.5-1.6-7-4.6-14.7l-9-23.4-7-18c-11-26-21.4-56.4-21.4-60 0-1-3-1.3-14-1.3-10.5 0-14 .2-14 1z"/><path d="M157.4 281.2c-.4 2.4-.7 10.8-.6 18.8 0 23 3.8 38.8 14.2 60.6 10.6 22 25 41.2 50.2 67 7.8 8 13.3 14.3 12.8 14.8-1.3 1.3-51.8 0-56-1.4-8.4-3-14-10.3-20-26.3l-3.5-8.8h-13l.3 4 2.2 21 3.8 31 1.7 15H269l1.5-3.8c.8-2 1.5-4.3 1.5-5 0-.8-5-9-11-18.7-22-34-34.4-58-43.2-83.6-9-26-12.2-45-11.7-71.4l1-18h-48v4.4z"/></g></symbol>
<symbol id="earth" viewBox="0 0 49 49"><path d="M14.4 14h9v9.5h-10c0-3.3.4-6.5 1-9.4m0 21h9v-9.4h-10c0 3.3.4 6.5 1 9.4m9-23V0C20 1 16.8 5.5 15 12h8.5m13.2 23h10c1.4-3 2.2-6.2 2.3-9.5H37.6c0 3.4-.3 6.5-1 9.4m0-21c.7 3 1 6 1 9.4H49c0-3.3-1-6.5-2.3-9.4h-10m-.5-2h9.5C42.4 6.6 37 2.5 30.5.8 33 3.2 35 7 36.2 12M23.5 49V37H15c1.7 6.6 4.8 11.2 8.5 12M34 12c-1.6-6.5-4.7-11-8.4-12v12H34m1.6 13.5h-10V35h9c.6-3 1-6.2 1-9.5M0 25.5C0 28.8 1 32 2.3 35h10c-.6-3-1-6-1-9.5H0M12.8 37H3.3c3.3 5.5 8.7 9.6 15.2 11.3C16 45.8 14 42 12.8 37m23.4 0c-1.2 5-3.2 8.8-5.7 11.3 6.5-1.7 12-5.8 15.2-11.4h-9.5M12.8 12C14 7 16 3.3 18.5.8 12 2.4 6.5 6.5 3.3 12h9.5m21.8 2h-9v9.5h10c0-3.3-.4-6.5-1-9.4M2.3 14C1 17 0 20.3 0 23.6h11.4c0-3.4.3-6.5 1-9.4h-10m23 23v12c3.8-.8 7-5.4 8.7-12h-8.4z"/></symbol>
<symbol id="book" viewBox="0 0 512 512"><path d="M422 99.8v248c-57.8 4.5-106.7 14.5-146 30V178c10.2-6.4 21.4-11.8 33.3-16.3V119c-19.8 6.5-37.8 14.4-53.3 24-50.4-31.4-127.3-44-206-46.4V386c67.6 2 133.8 11.6 183 34 14.6 6.8 31.4 6.8 46 .2 49-22.6 115.3-32.2 183-34.2V94.5c-12.8.2-28.6 2.3-40 5.2zm-186 278c-39.3-15.5-88.2-25.5-146-30V139c47.5 4 105.5 13.7 146 39v200zM335.2 125v106l29.8-36.6 29.8 25.7V112c0-14.2 6.3-21.5 16.8-25-22 3-46.3 8.8-59 12.8-9 3-17.4 11.5-17.4 25.3z"/></symbol>
<symbol id="language" viewBox="0 0 16 16"><path d="M6.5 3.5C3 3.5 0 5.7 0 8.5 0 9.8.7 11 1.8 12c0 1-.2 2-1 2.6 1.4 0 2.7-.8 3.5-1.4.7.2 1.4.3 2.2.3 3.6 0 6.5-2.3 6.5-5 0-2.8-3-5-6.5-5z" /><path fill="currentColor" d="M15 9c.7-.8 1-1.6 1-2.5 0-2.8-3-5-6.5-5-1.6 0-3 .4-4.2 1H7c4 0 7 2.4 7 5.5 0 1.2-.5 2.3-1.3 3.2.8.6 2 1.4 3.4 1.4-.6-1-1-2.8-1-3.6z" /></symbol>

<!-- Flags -->
<!-- afghanistan --><symbol id="AF" viewBox="0 0 48 48"><path fill="#E56" d="M16 6h16v36H16z"/><path fill="#5C6" d="M48 40c0 1-1 2-2 2H32V6h14c1 0 2 1 2 2v32z"/><path fill="#445" d="M16 42H2c-1 0-2-1-2-2V8c0-1 1-2 2-2h14v36z"/><path fill="#FFF" d="M18 24c0 3.3 2.7 6 6 6s6-2.7 6-6m-6 4c-2.2 0-4-1.8-4-4s4-6 4-6 4 3.8 4 6-1.8 4-4 4z"/></symbol>
<!-- albania --><symbol id="AL" viewBox="0 0 48 48"><path fill="#E56" d="M48 40c0 1-1 2-2 2H2c-1 0-2-1-2-2V8c0-1 1-2 2-2h44c1 0 2 1 2 2v32z"/><path fill="#455" d="M21.5 35.4c0 .4.5.6 1 .6h3c.5 0 1-.2 1-.6.2-.4 0-.8-.2-1L24 32l-2.3 2.3c-.3.3-.4.7-.2 1zM26 18v-2c0-1 1-2 2-2s2-1 2-2h-4c-1 0-2 1-2 2 0-1-1-2-2-2h-4c0 1 1 2 2 2s2 1 2 2v2H10c0 1 1 2 2 2h10v2H12c0 1 1 2 2 2h8v2h-8c0 1 1 2 2 2h6v2h-6c0 1 1 2 2 2h12c1 0 2-1 2-2h-6v-2h6c1 0 2-1 2-2h-8v-2h8c1 0 2-1 2-2H26v-2h10c1 0 2-1 2-2H26z"/></symbol>
<!-- algeria --><symbol id="DZ" viewBox="0 0 48 48"><path fill="#5C6" d="M24 42H2c-1 0-2-1-2-2V8c0-1 1-2 2-2h22v36z"/><path fill="#EEE" d="M24 6h24v36H24z"/><path fill="#E56" d="M31.2 22.7L30 20l-1.3 2.7H26l2 2-.8 3.3 2.8-1.6 2.7 1.6-.7-3.2 2-2h-2.8z"/><path fill="#E56" d="M28 32c-4.4 0-8-3.6-8-8s3.6-8 8-8c1 0 1.7.2 2.5.4-1.8-1.5-4-2.4-6.5-2.4-5.5 0-10 4.5-10 10s4.5 10 10 10c2.5 0 4.7-1 6.5-2.4-.8.2-1.6.4-2.5.4z"/></symbol>
<!-- andorra --><symbol id="AD" viewBox="0 0 48 48"><path fill="#FC5" d="M16 6h16v36H16z"/><path fill="#E56" d="M48 40c0 1-1 2-2 2H32V6h14c1 0 2 1 2 2v32zM30 18H18v8l6 4 6-4"/><path fill="#45A" d="M16 42H2c-1 0-2-1-2-2V8c0-1 1-2 2-2h14v36z"/></symbol>
<!-- angola --><symbol id="AO" viewBox="0 0 48 48"><path fill="#445" d="M48 40c0 1-1 2-2 2H2c-1 0-2-1-2-2V24h48v16z"/><path fill="#E56" d="M48 24H0V8c0-1 1-2 2-2h44c1 0 2 1 2 2v16z"/><path fill="#FC5" d="M36 36.4L27 28c.6-.3 1-.7 1.5-1.2 2-2.3 3-5 2.7-8-.2-3-1.6-5.6-3.8-7.6L26 12.8c2 1.5 3 3.7 3.2 6 .2 2.5-.6 4.8-2.2 6.7-.4.4-.8 1-1.3 1.2L18.4 20 17 21.5l6.8 6.3c-3 1.3-6.8 1-9.5-1.4L13 28c2 1.7 4.7 2.6 7.2 2.6 1.8 0 3.6-.5 5.2-1.4l9.2 8.6 1.4-1.4zM24.3 12.6h-3L20 10l-1 2.6h-3l2 2.2-.7 3.2 2.8-1.6 3 1.6-1-3.2 2.4-2.2z"/></symbol>
<!-- antigua barbuda --><symbol id="AG" viewBox="0 0 48 48"><path fill="#E56" d="M48 40c0 1-1 2-2 2H24L42 6h4c1 0 2 1 2 2v32zm-24 2H2c-1 0-2-1-2-2V8c0-1 1-2 2-2h4l18 36z"/><path fill="#EEE" d="M24 42l-9-18h18"/><path fill="#45A" d="M33 24H15l-3-6h24"/><path fill="#445" d="M6 6l6 12h4c0-4.4 3.6-8 8-8s8 3.6 8 8h4l6-12H6z"/><path fill="#FC5" d="M32 18c0-4.4-3.6-8-8-8s-8 3.6-8 8h16z"/></symbol>
<!-- argentina --><symbol id="AR" viewBox="0 0 48 48"><path fill="#3AD" d="M48 18H0V8c0-1 1-2 2-2h44c1 0 2 1 2 2v10z"/><path fill="#EEE" d="M0 18h48v12H0z"/><path fill="#3AD" d="M48 40c0 1-1 2-2 2H2c-1 0-2-1-2-2V30h48v10z"/><path fill="#FC5" d="M24 20c-2.2 0-4 1.8-4 4s1.8 4 4 4 4-1.8 4-4-1.8-4-4-4z"/></symbol>
<!-- armenia --><symbol id="AM" viewBox="0 0 48 48"><path fill="#E56" d="M48 18H0V8c0-1 1-2 2-2h44c1 0 2 1 2 2v10z"/><path fill="#45A" d="M0 18h48v12H0z"/><path fill="#FC5" d="M48 40c0 1-1 2-2 2H2c-1 0-2-1-2-2V30h48v10z"/></symbol>
<!-- australia --><symbol id="AU" viewBox="0 0 48 48"><path fill="#EEE" d="M20 22H0V8c0-1 1-2 2-2h18v16z"/><path fill="#0402FB" d="M46 6H20v16H0v18c0 1 1 2 2 2h44c1 0 2-1 2-2V8c0-1-1-2-2-2z"/><path fill="#F00" d="M20 12h-4.6L19 9.3l-1-1.6-6 4.3V6H8v5.4L3 7.7 1.8 9.3 5.5 12H0v4h6.6l-4.8 3.6L3 21.2l5-3.7V22h4v-5.2l6 4.4 1-1.6-4.7-3.6H20"/><path fill="#EEE" d="M28.8 18.3l1 2.6 2.4-1.5-1 2.4 2.5 1-2.6 1 1.5 2.4-2.4-1.2-1 2.6-1-2.8-2.4 1.2 1.2-2.5-2.6-1 2.8-1-1.2-2.3 2.5 1M41 14l.6 1.5 1.4-.7-.7 1.5 2 .5-1.7.6.8 1.4L42 18l-.6 2-.5-1.5-1.6.8.7-1.4-1.4-.7 1.5-.5-1-1.8 1.5.7M18 31.2l.5 1.5L20 32l-.7 1.5 1.5.5-1.5.5.7 1.5-1.5-.7-.5 1.5-.5-1.5-1.5.7.7-1.5-1.5-.5 1.5-.5L16 32l1.5.7m17.3-.7l.6 1.5 1.4-.7-.7 1.5 2 .5-1.6.6.8 1.4L36 36l-.8 2-.5-1.5-1.5.8.7-1.4-1.6-.7 1.5-.5-1-1.8 1.5.7"/></symbol>
<!-- austria --><symbol id="AT" viewBox="0 0 48 48"><path fill="#E56" d="M48 18H0V8a2 2 0 0 1 2-2h44a2 2 0 0 1 2 2v10z"/><path fill="#EEE" d="M0 18h48v12H0z"/><path fill="#E56" d="M48 40a2 2 0 0 1-2 2H2a2 2 0 0 1-2-2V30h48v10z"/></symbol>
<!-- azerbaijan --><symbol id="AZ" viewBox="0 0 48 48"><path fill="#3AD" d="M48 18H0V8c0-1.1.9-2 2-2h44c1.1 0 2 .9 2 2v10z"/><path fill="#E56" d="M0 18h48v12H0z"/><path fill="#5C6" d="M48 40c0 1.1-.9 2-2 2H2c-1.1 0-2-.9-2-2V30h48v10z"/><path fill="#EEE" d="M26 28c-2.2 0-4-1.8-4-4s1.8-4 4-4c.17 0 .32.03.48.05C25.38 18.8 23.78 18 22 18c-3.3 0-6 2.7-6 6s2.7 6 6 6c1.8 0 3.38-.8 4.48-2.05-.16.02-.32.05-.48.05zm5.36-5.36l-.13 1.08.77.76-.92.58-.12 1.07-1.02-.35-.92.57-.35-1.02-1.02-.36.57-.9-.36-1.03 1.08-.13.58-.9.76.77"/></symbol>
<!-- bahamas-na --><symbol id="BS" viewBox="0 0 48 48"><path fill="#3AD" d="M48 18H14L2 6h44c1 0 2 1 2 2v10zm0 22c0 1-1 2-2 2H2l12-12h34v10z"/><path fill="#FC5" d="M48 30H14l6-6-6-6h34"/><path fill="#455" d="M2 6C1 6 0 7 0 8v32c0 1 1 2 2 2l18-18L2 6z"/></symbol>
<!-- bahrain --><symbol id="BH" viewBox="0 0 48 48"><path fill="#E56" d="M48 40a2 2 0 0 1-2 2H16V6h30a2 2 0 0 1 2 2v32z"/><path fill="#EEE" d="M16 16l6-4-6-4V6H2a2 2 0 0 0-2 2v32a2 2 0 0 0 2 2h14v-2l6-4-6-4 6-4-6-4 6-4-6-4z"/></symbol>
<!-- bangladesh --><symbol id="BD" viewBox="0 0 48 48"><path fill="#064" d="M48 40c0 1-1 2-2 2H2c-1 0-2-1-2-2V8c0-1 1-2 2-2h44c1 0 2 1 2 2v32z"/><circle fill="#E56" cx="24" cy="24" r="10"/></symbol>
<!-- barbados-na --><symbol id="BB" viewBox="0 0 48 48"><path fill="#FC5" d="M14 6h20v36H14z"/><path fill="#45A" d="M48 40c0 1-1 2-2 2H34V6h12c1 0 2 1 2 2v32zm-34 2H2c-1 0-2-1-2-2V8c0-1 1-2 2-2h12v36z"/><path fill="#455" d="M30 14l-2 2h2v10h-4V16l-2-2-2 2v10h-4V16h2l-2-2h-2v14h6v6h4v-6h6V14"/></symbol>
<!-- belarus --><symbol id="BY" viewBox="0 0 48 48"><path fill="#5C6" d="M48 40c0 1-1 2-2 2H10V32h38v8z"/><path fill="#E56" d="M48 32H10V6h36c1 0 2 1 2 2v24zM8 42H2c-1 0-2-1-2-2V8c0-1 1-2 2-2h6v36z"/><path fill="#EEE" d="M8 6h2v36H8zM4 8h4v2H4zm-4 2h4v2H0zm4 2h4v2H4zm-4 2h4v2H0zm4 2h4v2H4zm-4 2h4v2H0zm4 2h4v2H4zm-4 2h4v2H0zm4 2h4v2H4zm-4 2h4v2H0zm4 2h4v2H4zm-4 2h4v2H0zm4 2h4v2H4zm-4 2h4v2H0zm4 2h4v2H4zm-4 2h4v2H0z"/></symbol>
<!-- belgium --><symbol id="BE" viewBox="0 0 48 48"><path fill="#FC5" d="M16 6h16v36H16z"/><path fill="#E56" d="M48 40a2 2 0 0 1-2 2H32V6h14a2 2 0 0 1 2 2v32z"/><path fill="#445" d="M16 42H2a2 2 0 0 1-2-2V8a2 2 0 0 1 2-2h14v36z"/></symbol>
<!-- belize --><symbol id="BZ" viewBox="0 0 48 48"><path fill="#E56" d="M48 40c0 1-1 2-2 2H2c-1 0-2-1-2-2v-2h48v2zm0-30H0V8c0-1 1-2 2-2h44c1 0 2 1 2 2v2z"/><path fill="#45A" d="M0 10h48v28H0z"/><circle fill="#EEE" cx="24" cy="24" r="8"/><circle fill="#5C6" cx="24" cy="19" r="1"/><circle fill="#5C6" cx="24" cy="29" r="1"/><ellipse fill="#5C6" cx="27.5" cy="20.4" rx="1" ry="1"/><ellipse fill="#5C6" cx="20.5" cy="27.6" rx="1" ry="1"/><ellipse fill="#5C6" cx="29" cy="23.8" rx="1" ry="1"/><ellipse fill="#5C6" cx="19" cy="24.2" rx="1" ry="1"/><ellipse fill="#5C6" cx="27.7" cy="27.3" rx="1" ry="1"/><ellipse fill="#5C6" cx="20.3" cy="20.7" rx="1" ry="1"/></symbol>
<!-- benin --><symbol id="BJ" viewBox="0 0 48 48"><path fill="#E56" d="M48 40c0 1-1 2-2 2H16V24h32v16z"/><path fill="#FC5" d="M48 24H16V6h30c1 0 2 1 2 2v16z"/><path fill="#064" d="M16 6H2C1 6 0 7 0 8v32c0 1 1 2 2 2h14V6z"/></symbol>
<!-- bhutan --><symbol id="BT" viewBox="0 0 900 600"><g fill="none" fill-rule="evenodd"><path fill="#FFD520" d="M0 0h900v600H0z"/><path fill="#FF4E12" d="M0 600h900V0"/></g></symbol>
<!-- bolivia --><symbol id="BO" viewBox="0 0 48 48"><path fill="#E56" d="M48 18H0V8c0-1 1-2 2-2h44c1 0 2 1 2 2v10z"/><path fill="#FC5" d="M0 18h48v12H0z"/><path fill="#064" d="M48 40c0 1-1 2-2 2H2c-1 0-2-1-2-2V30h48v10z"/><path fill="#E56" d="M24 20c-2.2 0-4 1.8-4 4s1.8 4 4 4 4-1.8 4-4-1.8-4-4-4zm0 6c-1 0-2-1-2-2s1-2 2-2 2 1 2 2-1 2-2 2z"/></symbol>
<!-- bosnia --><symbol id="BA" viewBox="0 0 48 48"><path fill="#45A" d="M48 40c0 1-1 2-2 2H2c-1 0-2-1-2-2V8c0-1 1-2 2-2h44c1 0 2 1 2 2v32z"/><path fill="#FC5" d="M12 6l26 36V6"/><path fill="#EEE" d="M11.7 11l1-1h-1.4l-.6-1.5L10 10H8.7l1 1-.4 1.6 1.5-.8 1.4.8m4.1 2.7h-1.5l-.6-1.4-.7 1.3H12l1 1-.3 1.8 1.5-.8 1.4 1-.4-1.8m3.6 5.4l1-1h-1.4l-.6-1.5-.6 1.4h-1.5l1 1-.3 1.7 1.4-.8 1.4.8m4.3 2.6H22l-.6-1.5-.7 1.4h-1.5l1 1-.3 1.6 1.4-.8 1.4.8-.4-1.6m5 4.4h-1.5l-.6-1.4-.6 1.3H23l1 1-.3 1.8 1.5-.8 1.4 1-.4-1.8m5.4 4.3H30l-.6-1.3-.6 1.3h-1.5l1 1.2-.3 1.5 1.4-.8 1.5.8-.5-1.6"/></symbol>
<!-- botswana --><symbol id="BW" viewBox="0 0 48 48"><path fill="#3AD" d="M48 18H0V8a2 2 0 0 1 2-2h44a2 2 0 0 1 2 2v10zM48 40a2 2 0 0 1-2 2H2a2 2 0 0 1-2-2V28h48v12z"/><path fill="#445" d="M0 18h48v12H0z"/><path fill="#EEE" d="M0 18h48v2H0zM0 28h48v2H0z"/></symbol>
<!-- brazil --><symbol id="BR" viewBox="0 0 48 48"><path fill="#5C6" d="M48 40c0 1-1 2-2 2H2c-1 0-2-1-2-2V8c0-1 1-2 2-2h44c1 0 2 1 2 2v32z"/><path fill="#FC5" d="M24 12L6 24l18 12 18-12"/><circle fill="#45A" cx="24" cy="24" r="8"/><path fill="#EEE" d="M26 22c-1.2-.7-2.6-1-4-1-2.2 0-4.3.8-6 2.2v.8c0 .7 0 1.3.3 2 1.3-2 3.4-3 5.7-3 1 0 2 .3 3 .7 2.6 1.3 4 4 4 6.5.7-.5 1.3-1.2 1.8-2-.6-2.6-2.2-5-4.8-6.2z"/></symbol>
<!-- brunei --><symbol id="BN" viewBox="0 0 48 48"><path fill="#455" d="M0 18l36 24h7.2L0 13.2"/><path fill="#FC5" d="M46 6H4.8L48 34.8V8c0-1-1-2-2-2zM2 42h34L0 18v22c0 1 1 2 2 2z"/><path fill="#EEE" d="M43.2 42H46c1 0 2-1 2-2v-5.2L4.8 6H2C1 6 0 7 0 8v5.2L43.2 42z"/><path fill="#E56" d="M26 29.7V20h6l-2-2h-4v-2l-2-2-2 2v2h-4l-2 2h6v9.7c-3-.8-5.5-3.4-6-6.7v1c0 4.4 3.6 8 8 8s8-3.6 8-8v-1c-.5 3.3-3 6-6 6.7z"/></symbol>
<!-- bulgaria --><symbol id="BG" viewBox="0 0 48 48"><path fill="#EEE" d="M48 18H0V8c0-1 1-2 2-2h44c1 0 2 1 2 2v10z"/><path fill="#5C6" d="M0 18h48v12H0z"/><path fill="#E56" d="M48 40c0 1-1 2-2 2H2c-1 0-2-1-2-2V30h48v10z"/></symbol>
<!-- burkina-faso --><symbol id="BF" viewBox="0 0 48 48"><path fill="#E56" d="M48 24H0V8c0-1 1-2 2-2h44c1 0 2 1 2 2v16z"/><path fill="#5C6" d="M48 40c0 1-1 2-2 2H2c-1 0-2-1-2-2V22h48v18z"/><path fill="#FC5" d="M32.4 21h-6L24 15.7 21.5 21h-6l4.4 4.5-1.6 6.4 5.6-3.3 5.6 3.2-1.5-6.5 4.4-4.5z"/></symbol>
<!-- burma --><symbol id="MM" viewBox="0 0 48 48"><path fill="#E56" d="M48 40a2 2 0 0 1-2 2H2a2 2 0 0 1-2-2V30h48v10z"/><path fill="#5C6" d="M0 18h48v12H0z"/><path fill="#FC5" d="M48 18H0V8a2 2 0 0 1 2-2h44a2 2 0 0 1 2 2v10z"/><path fill="#EEE" d="M32.297 21.25H26.45L24 15.93l-2.453 5.32h-5.844l4.27 4.416-1.58 6.404L24 28.887l5.605 3.184-1.578-6.403 4.27-4.417z"/></symbol>
<!-- burundi --><symbol id="BI" viewBox="0 0 48 48"><path fill="#5C6" d="M0 38V10l20 14m28 14V10L28 24"/><path fill="#EEE" d="M48 8c0-1-1-2-2-2h-2L24 20 4 6H2C1 6 0 7 0 8v2l20 14L0 38v2c0 1 1 2 2 2h2l20-14 20 14h2c1 0 2-1 2-2v-2L28 24l20-14V8z"/><path fill="#E56" d="M24 28L4 42h40M24 20L4 6h40"/><circle fill="#EEE" cx="24" cy="24" r="10"/><path fill="#E56" d="M26 19.3h-1.3L24 18l-.5 1.3H22l1 1-.3 1.7 1.4-.8 1.5.8-.4-1.6 1-1zm-4 6h-1.3L20 24l-.5 1.3H18l1 1-.3 1.7 1.4-.8 1.5.8-.4-1.6 1-1zm8 0h-1.3L28 24l-.5 1.3H26l1 1-.3 1.7 1.4-.8 1.5.8-.4-1.6 1-1z"/></symbol>
<!-- cambodia --><symbol id="KH" viewBox="0 0 48 48"><path fill="#45A" d="M48 16H0V8c0-1 1-2 2-2h44c1 0 2 1 2 2v8zm0 24c0 1-1 2-2 2H2c-1 0-2-1-2-2v-8h48v8z"/><path fill="#E56" d="M0 16h48v16H0z"/><path fill="#EEE" d="M34 26v-4l-2-2-2 2v4h-4v-6l-2-2-2 2v6h-4v-4l-2-2-2 2v4l-2 4h24"/></symbol>
<!-- cameroon --><symbol id="CM" viewBox="0 0 48 48"><path fill="#064" d="M16 42H2a2 2 0 0 1-2-2V8a2 2 0 0 1 2-2h14v36z"/><path fill="#FC5" d="M48 40a2 2 0 0 1-2 2H32V6h14a2 2 0 0 1 2 2v32z"/><path fill="#E56" d="M16 6h16v36H16z"/><path fill="#FC5" d="M30.305 21.724h-4.44L24 17.684l-1.864 4.04h-4.44l3.244 3.357-1.2 4.867 4.26-2.42 4.26 2.42-1.2-4.866 3.245-3.356z"/></symbol>
<!-- canada --><symbol id="CA" viewBox="0 0 48 48"><path fill="#EEE" d="M16 6h16v36H16z"/><path fill="#E56" d="M48 40c0 1-1 2-2 2H32V6h14c1 0 2 1 2 2v32zm-32 2H2c-1 0-2-1-2-2V8c0-1 1-2 2-2h14v36zm9-11.3s-.6-3.3-.3-3.3l2.7.4C26.4 26 28.8 25 30 24c-1-.2-.8 0-.2-2.4-2 .6-1.8.4-2.2-.6l-1.4 1.6c-.2.2-.5 0-.4-.2l.6-3.4c-1.2.8-1.2 1-1.4.5l-1-2-1 2c-.2.4-.2.3-1.4-.5l.6 3.4c0 .3-.2.4-.4.2L20.4 21c-.4 1-.2 1.2-2.2.6.6 2.3.7 2.2-.2 2.5 1.2 1 3.6 2 2.6 3.8 0 0 1 0 2.7-.4.3 0 0 3.4 0 3.4h1.6z"/></symbol>
<!-- cape-verde --><symbol id="CV" viewBox="0 0 48 48"><path fill="#45A" d="M48 40c0 1-1 2-2 2H2c-1 0-2-1-2-2v-6h48v6zm0-12H0V8c0-1 1-2 2-2h44c1 0 2 1 2 2v20z"/><path fill="#EEE" d="M0 32h48v2H0zm0-4h48v2H0z"/><path fill="#E56" d="M0 30h48v2H0z"/><path fill="#FC5" d="M16 21.3h-1.3L14 20l-.5 1.3H12l1 1-.3 1.7 1.4-.8 1.5.8-.4-1.6 1-1zm0 14h-1.3L14 34l-.5 1.3H12l1 1-.3 1.7 1.4-.8 1.5.8-.4-1.6 1-1zM21 25l-1-1 .3-1.5-1.3.5-1-1v1.6l-1.5.8 1.6.4.6 1.6.8-1.5H21zm-9.8 10l-1-1 .4-1.4-1.4.5-1-1v1.6l-1.4 1 1.6.3.4 1.5.8-1.5h1.6zm10.6-4.2v-1.5l1.3-.6-1.3-.6v-1.3l-1 1-1.7-.3 1 1.4-1 1.4 1.7-.4 1 1zm-14 .5v-1.5l1.3-.6-1.3-.6V27l-1 1.3L5 28l.8 1.3-.7 1.4 1.7-.4 1 1zm10.6 4.4l1-1 1.4.3-.6-1.3 1-1h-1.5l-1-1.4-.3 1.6-1.5.4 1.3.8v1.5zM8 26.3l1-1 1.4.4-.6-1.4 1-1H9.2l-1-1.4-.2 1.5-1.6.5 1.5.8v1.5z"/></symbol>
<!-- central-african-republic --><symbol id="CF" viewBox="0 0 48 48"><path fill="#FC5" d="M20 42H2c-1 0-2-1-2-2v-6h20v8zm8 0h18c1 0 2-1 2-2v-6H28v8z"/><path fill="#5C6" d="M0 24h20v10H0zm28 0h20v10H28z"/><path fill="#EEE" d="M0 14h20v10H0zm28 0h20v10H28z"/><path fill="#45A" d="M20 14H0V8c0-1 1-2 2-2h18v8zm8 0h20V8c0-1-1-2-2-2H28v8z"/><path fill="#E56" d="M20 6h8v36h-8z"/><path fill="#FC5" d="M8 9.3H6.5L6 8l-.7 1.3H4l1 1-.5 1.7 1.4-.8 1.3.8-.4-1.6 1-1z"/></symbol>
<!-- chad --><symbol id="TD" viewBox="0 0 48 48"><path fill="#45A" d="M16 42H2c-1 0-2-1-2-2V8c0-1 1-2 2-2h14v36z"/><path fill="#E56" d="M48 40c0 1-1 2-2 2H32V6h14c1 0 2 1 2 2v32z"/><path fill="#FC5" d="M16 6h16v36H16z"/></symbol>
<!-- chile --><symbol id="CL" viewBox="0 0 48 48"><path fill="#E56" d="M48 40c0 1-1 2-2 2H2c-1 0-2-1-2-2V24h48v16z"/><path fill="#45A" d="M18 24H0V8c0-1 1-2 2-2h16v18z"/><path fill="#EEE" d="M13.2 13.6h-3L9 11l-1.2 2.6h-3L7 15.8 6.2 19 9 17.6l2.8 1.6L11 16l2.2-2.2zM48 24H18V6h28c1 0 2 1 2 2v16z"/></symbol>
<!-- china --><symbol id="CN" viewBox="0 0 48 48"><path fill="#E56" d="M48 40c0 1-1 2-2 2H2c-1 0-2-1-2-2V8c0-1 1-2 2-2h44c1 0 2 1 2 2v32z"/><g fill="#FC5"><path d="M15.4 13.3h-3.6L10.2 10l-1.5 3.3H5L7.8 16l-1 4 3.5-2 3.5 2-1-4 2.7-2.7z"/><circle cx="17" cy="11" r="1"/><circle cx="17" cy="19" r="1"/><ellipse cx="21" cy="13" rx="1" ry="1"/><ellipse cx="21" cy="17" rx="1" ry="1"/></g></symbol>
<!-- colombia --><symbol id="CO" viewBox="0 0 48 48"><path fill="#FC5" d="M48 26H0V8c0-1 1-2 2-2h44c1 0 2 1 2 2v18z"/><path fill="#45A" d="M0 26h48v8H0z"/><path fill="#E56" d="M48 40c0 1-1 2-2 2H2c-1 0-2-1-2-2v-6h48v6z"/></symbol>
<!-- comoros --><symbol id="KM" viewBox="0 0 48 48"><path fill="#FC5" d="M48 14H10L2 6h44c1 0 2 1 2 2v6z"/><path fill="#45A" d="M48 34H10l-8 8h44c1 0 2-1 2-2v-6z"/><path fill="#EEE" d="M10 14h38v10H20"/><path fill="#E56" d="M10 34h38V24H20"/><path fill="#5C6" d="M2 6C1 6 0 7 0 8v32c0 1 1 2 2 2l18-18L2 6z"/><path fill="#EEE" d="M6 24c0-2.6 1.7-4.8 4-5.6-.6-.3-1.3-.4-2-.4-3.3 0-6 2.7-6 6s2.7 6 6 6c.7 0 1.4 0 2-.4-2.3-.8-4-3-4-5.6zm7-.4h-.8L12 23l-.4.6h-.8l.6.7-.3.8 1-.3.8.4-.3-.7.5-.7zm0-4.3h-.8l-.3-.7-.4.7h-.8l.6.7-.3.8 1-.4.8.4-.3-.8.5-.7zm0 8.7h-.8l-.2-1-.4.7h-.8l.6.6-.3.8 1-.4.8.4-.3-.8.5-.7z"/></symbol>
<!-- costa rica --><symbol id="CR" viewBox="0 0 48 48"><path fill="#45A" d="M48 40c0 1-1 2-2 2H2c-1 0-2-1-2-2v-4h48v4zm0-28H0V8c0-1 1-2 2-2h44c1 0 2 1 2 2v4z"/><path fill="#E56" d="M0 18h48v12H0z"/><path fill="#EEE" d="M0 30h48v6H0zm0-18h48v6H0zm14 8c-2.2 0-4 1.8-4 4s1.8 4 4 4 4-1.8 4-4-1.8-4-4-4zm0 6c-1 0-2-1-2-2s1-2 2-2 2 1 2 2-1 2-2 2z"/></symbol>
<!-- cote-d&#x2019;ivoire --><symbol id="CI" viewBox="0 0 48 48"><path fill="#E72" d="M16 42H2c-1 0-2-1-2-2V8c0-1 1-2 2-2h14v36z"/><path fill="#5C6" d="M48 40c0 1-1 2-2 2H32V6h14c1 0 2 1 2 2v32z"/><path fill="#EEE" d="M16 6h16v36H16z"/></symbol>
<!-- croatia --><symbol id="HR" viewBox="0 0 48 48"><path fill="#E56" d="M48 18H0V8c0-1 1-2 2-2h44c1 0 2 1 2 2v10z"/><path fill="#EEE" d="M0 18h48v12H0z"/><path fill="#45A" d="M48 40c0 1-1 2-2 2H2c-1 0-2-1-2-2V30h48v10z"/><path fill="#E56" d="M30 20H18v8l6 4 6-4"/><path fill="#EEE" d="M20 22h2v2h-2zm2 2h2v2h-2zm-2 2h2v2h-2zm-2-2h2v2h-2zm4-4h2v2h-2zm-4 0h2v2h-2zm6 2h2v2h-2zm2-2h2v2h-2zm2 2h2v2h-2zm-2 2h2v2h-2zm2 2h2v2h-2zm-4 0h2v2h-2zm-2 2h2v2h-2zm4 2h1l1-.7V28h-2m-2 4l2-1.3V30h-2m-4-.7V28h-2m4 2.7V30h-1"/></symbol>
<!-- cuba --><symbol id="CU" viewBox="0 0 48 48"><path fill="#EEE" d="M16 28l-8 8h40v-8M8 12l8 8h32v-8"/><path fill="#45A" d="M46 6H2l6 6h40V8c0-1-1-2-2-2zM16 20l4 4-4 4h32v-8M8 36l-6 6h44c1 0 2-1 2-2v-4H8z"/><path fill="#E56" d="M2 6C1 6 0 7 0 8v32c0 1 1 2 2 2l18-18L2 6z"/><path fill="#EEE" d="M12.4 22.5h-3L8.2 20 7 22.4H4l2.2 2.3-.8 3.2 2.8-1.6L11 28l-.8-3.2 2.2-2.3z"/></symbol>
<!-- cyprus --><symbol id="CY" viewBox="0 0 48 48"><path fill="#EEE" d="M48 40c0 1-1 2-2 2H2c-1 0-2-1-2-2V8c0-1 1-2 2-2h44c1 0 2 1 2 2v32z"/><path fill="#E72" d="M34 16v2h-2v-2h-2v2h-2v-2h-2v2h-4v-2h-2v2h-2v-2h-2v2h-2v-2c-1 0-2 1-2 2v4c0 1 1 2 2 2v-2h2v2h2v-2h2v2h2v-2h4v2h2v-2h2v2h2v-2h2v2c1 0 2-1 2-2v-4c0-1-1-2-2-2z"/><path fill="#064" d="M10 30h12v-2H12c-1 0-2 1-2 2zm16 0h12c0-1-1-2-2-2H26v2z"/></symbol>
<!-- czech --><symbol id="CZ" viewBox="0 0 48 48"><path fill="#EEE" d="M48 24H20L2 6h44c1 0 2 1 2 2v16z"/><path fill="#E56" d="M48 40c0 1-1 2-2 2H2l18-18h28v16z"/><path fill="#45A" d="M2 6C1 6 0 7 0 8v32c0 1 1 2 2 2l18-18L2 6z"/></symbol>
<!-- democratic-republic-of-congo --><symbol id="CD" viewBox="0 0 48 48"><path fill="#FC5" d="M48 18L12 42H4.8L48 13.2M36 6h7.2L0 34.8V30"/><path fill="#45A" d="M2 6h34L0 30V8c0-1 1-2 2-2zm44 36H12l36-24v22c0 1-1 2-2 2z"/><path fill="#E56" d="M4.8 42H2c-1 0-2-1-2-2v-5.2L43.2 6H46c1 0 2 1 2 2v5.2L4.8 42z"/><path fill="#FC5" d="M12.3 10.6h-3L8 8l-1 2.6H4l2 2.2-.7 3.2L8 14.4l3 1.6-1-3.2 2.3-2.2z"/></symbol>
<!-- denmark --><symbol id="DK" viewBox="0 0 48 48"><path fill="#E56" d="M48 40c0 1-1 2-2 2H2c-1 0-2-1-2-2V8c0-1 1-2 2-2h44c1 0 2 1 2 2v32z"/><path fill="#EEE" d="M12 6h8v36h-8z"/><path fill="#EEE" d="M0 20h48v8H0z"/></symbol>
<!-- djibouti --><symbol id="DJ" viewBox="0 0 48 48"><path fill="#5C6" d="M48 40c0 1-1 2-2 2H2l20-18h26v16z"/><path fill="#3AD" d="M48 24H22L2 6h44c1 0 2 1 2 2v16z"/><path fill="#EEE" d="M2 6C1 6 0 7 0 8v32c0 1 1 2 2 2l20-18L2 6z"/><path fill="#E56" d="M14.4 22.5h-3L10.2 20 9 22.4H6l2.2 2.3-.8 3.2 2.8-1.6L13 28l-.8-3.2 2.2-2.3z"/></symbol>
<!-- dominica --><symbol id="DM" viewBox="0 0 1200 600"><g fill="none" fill-rule="evenodd"><path fill="#006B3F" d="M0 0h1200v600H0z"/><path fill="#FCD116" d="M525 0h75v600h-75z"/><path fill="#FCD116" d="M0 225h1200v75H0z"/><path fill="#FFF" d="M600 0h75v600h-75z"/><path fill="#FFF" d="M0 300h1200v75H0z"/><path fill="#000" d="M575 0h50v600h-50z"/><path fill="#000" d="M0 275h1200v50H0z"/><ellipse fill="#D41C30" cx="599.5" cy="300" rx="159.5" ry="150"/></g></symbol>
<!-- dominican-republic-na --><symbol id="DO" viewBox="0 0 48 48"><path fill="#45A" d="M20 20H0V8c0-1 1-2 2-2h18v14zm28 20c0 1-1 2-2 2H28V28h20v12z"/><path fill="#E56" d="M0 40c0 1 1 2 2 2h18V28H0v12zm28-20h20V8c0-1-1-2-2-2H28v14z"/><path fill="#EEE" d="M48 20H28V6h-8v14H0v8h20v14h8V28h20"/><path fill="#687" d="M24 20c-2.2 0-4 1.8-4 4s1.8 4 4 4 4-1.8 4-4-1.8-4-4-4zm0 6c-1 0-2-1-2-2s1-2 2-2 2 1 2 2-1 2-2 2z"/></symbol>
<!-- east-timor --><symbol id="TL" viewBox="0 0 48 48"><path fill="#E56" d="M14.4 22.5h-3L10.2 20 9 22.4H6l2.2 2.3-.8 3.2 2.8-1.6L13 28l-.8-3.2 2.2-2.3zM46 6H2l20 18L2 42h44c1 0 2-1 2-2V8c0-1-1-2-2-2z"/><path fill="#FC5" d="M28 24L2 6l20 18L2 42"/><path fill="#445" d="M2 6C1 6 0 7 0 8v32c0 1 1 2 2 2l20-18L2 6z"/><path fill="#EEE" d="M12.4 22.5h-3L8.2 20 7 22.4H4l2.2 2.3-.8 3.2 2.8-1.6L11 28l-.8-3.2 2.2-2.3z"/></symbol>
<!-- ecuador --><symbol id="EC" viewBox="0 0 48 48"><path fill="#FC5" d="M48 22H0V8c0-1 1-2 2-2h44c1 0 2 1 2 2v14z"/><path fill="#45A" d="M0 22h48v10H0z"/><path fill="#E56" d="M48 40c0 1-1 2-2 2H2c-1 0-2-1-2-2v-8h48v8z"/><path fill="#A75" d="M30 18H18v8l6 4 6-4"/></symbol>
<!-- egypt --><symbol id="EG" viewBox="0 0 48 48"><path fill="#445" d="M48 40c0 1-1 2-2 2H2c-1 0-2-1-2-2V30h48v10z"/><path fill="#EEE" d="M0 18h48v12H0z"/><path fill="#E56" d="M48 18H0V8c0-1 1-2 2-2h44c1 0 2 1 2 2v10z"/><path fill="#FC5" d="M28 20h-8v5.3l4 2.7 4-2.7"/></symbol>
<!-- el-salvador-ca --><symbol id="SV" viewBox="0 0 48 48"><path fill="#45A" d="M48 18H0V8c0-1 1-2 2-2h44c1 0 2 1 2 2v10zm0 22c0 1-1 2-2 2H2c-1 0-2-1-2-2V30h48v10z"/><path fill="#EEE" d="M0 18h48v12H0z"/><path fill="#343" d="M24 20c-2.2 0-4 1.8-4 4s1.8 4 4 4 4-1.8 4-4-1.8-4-4-4zm0 6c-1 0-2-1-2-2s1-2 2-2 2 1 2 2-1 2-2 2z"/></symbol>
<!-- equatorial-guinea --><symbol id="GQ" viewBox="0 0 48 48"><path fill="#5C6" d="M48 18H14L2 6h44c1 0 2 1 2 2v10z"/><path fill="#EEE" d="M48 30H14l6-6-6-6h34"/><path fill="#E56" d="M48 40c0 1-1 2-2 2H2l12-12h34v10z"/><path fill="#3AD" d="M2 6C1 6 0 7 0 8v32c0 1 1 2 2 2l18-18L2 6z"/><path fill="#445" d="M34 20h-8v5.3l4 2.7 4-2.7"/></symbol>
<!-- eritrea --><symbol id="ER" viewBox="0 0 48 48"><path fill="#3AD" d="M48 40c0 1-1 2-2 2H2c-1 0-2-1-2-2v-2l48-8v10z"/><path fill="#E56" d="M48 30L0 38V10l48 8"/><path fill="#5C6" d="M48 18L0 10V8c0-1 1-2 2-2h44c1 0 2 1 2 2v10z"/><path fill="#FC5" d="M10 16c-4 0-7 3-7 7s3 7 7 7 7-3 7-7-3-7-7-7zm0 12c-2.8 0-5-2.2-5-5s2.2-5 5-5 5 2.2 5 5-2.2 5-5 5z"/></symbol>
<!-- estonia --><symbol id="EE" viewBox="0 0 48 48"><path fill="#EEE" d="M48 40c0 1-1 2-2 2H2c-1 0-2-1-2-2V30h48v10z"/><path fill="#445" d="M0 18h48v12H0z"/><path fill="#37C" d="M48 18H0V8c0-1 1-2 2-2h44c1 0 2 1 2 2v10z"/></symbol>
<!-- ethiopia --><symbol id="ET" viewBox="0 0 48 48"><path fill="#064" d="M48 18H0V8c0-1 1-2 2-2h44c1 0 2 1 2 2v10z"/><path fill="#FC5" d="M0 18h48v12H0z"/><path fill="#E56" d="M48 40c0 1-1 2-2 2H2c-1 0-2-1-2-2V30h48v10z"/><circle fill="#45A" cx="24" cy="24" r="10"/><path fill="#FC5" d="M28.3 24l2.3-4H26l-2-3.5-2 3.5h-4.6l2.3 4-2.3 4H22l2 3.5 2-3.5h4.6l-2.3-4zM23 26l-1-2 1-2h2l1 2-1 2h-2z"/></symbol>
<!-- falkland-islands --><symbol id="FK" viewBox="0 0 48 48"><path fill="#02247E" d="M46 6H2C1 6 0 7 0 8v32c0 1 1 2 2 2h44c1 0 2-1 2-2V8c0-1-1-2-2-2z"/><path fill="#C30F2C" d="M20 14h-5.2l3.7-3.7-2.8-2.8-3.7 3.7V6H8v5.2L4.3 7.5l-2.8 2.8L5.2 14H0v4h5.2l-3.7 3.7 2.8 2.8L8 20.8V26h4v-5.2l3.7 3.7 2.8-2.8-3.7-3.7H20"/><path fill="#1B69A9" d="M44 24H32v10l6 4 6-4"/></symbol>
<!-- faroe-islands --><symbol id="FO" viewBox="0 0 48 48"><path fill="#EEE" d="M48 40c0 1-1 2-2 2H2c-1 0-2-1-2-2V8c0-1 1-2 2-2h44c1 0 2 1 2 2v32z"/><path fill="#45A" d="M10 18H0v2h12V6h-2M0 30h10v12h2V28H0m22-10V6h-2v14h28v-2M20 30v12h2V30h26v-2H20"/><path fill="#E56" d="M48 20H20V6h-8v14H0v8h12v14h8V28h28"/></symbol>
<!-- fiji --><symbol id="FJ" viewBox="0 0 48 48"><path fill="#040385" d="M20 22H0V8c0-1 1-2 2-2h18v16z"/><path fill="#0402FB" d="M46 6H20v16H0v18c0 1 1 2 2 2h44c1 0 2-1 2-2V8c0-1-1-2-2-2z"/><path fill="#F00" d="M20 12h-4.6L19 9.3l-1-1.6-6 4.3V6H8v5.4L3 7.7 1.8 9.3 5.5 12H0v4h6.6l-4.8 3.6L3 21.2l5-3.7V22h4v-5.2l6 4.4 1-1.6-4.7-3.6H20"/><path fill="#FFF" d="M44 22H32v11c0 .6.3 1.2 1 1.6l5 3.4 5-3.4c.7-.4 1-1 1-1.7V22z"/><path fill="#F00" d="M32 26h12v4H32z"/><path fill="#F00" d="M40 36.7L38 38l-2-1.3V22h4"/></symbol>
<!-- finland --><symbol id="FI" viewBox="0 0 48 48"><path fill="#EEE" d="M48 40c0 1-1 2-2 2H2c-1 0-2-1-2-2V8c0-1 1-2 2-2h44c1 0 2 1 2 2v32z"/><path fill="#45A" d="M0 20h48v8H0zM12 6h8v36h-8z"/></symbol>
<!-- france --><symbol id="FR" viewBox="0 0 48 48"><path fill="#45A" d="M16 42H2c-1 0-2-1-2-2V8c0-1 1-2 2-2h14v36z"/><path fill="#E56" d="M48 40c0 1-1 2-2 2H32V6h14c1 0 2 1 2 2v32z"/><path fill="#EEE" d="M16 6h16v36H16z"/></symbol>
<!-- french-guiana --><symbol id="GF" viewBox="0 0 48 48"><path fill="#FC5" d="M0 8v32c0 1 1 2 2 2h44c.6 0 1-.3 1.5-.7L.5 6.7C.2 7 0 7.5 0 8z"/><path fill="#5C6" d="M48 8c0-1-1-2-2-2H2c-.6 0-1 .3-1.5.7l47 34.6c.3-.3.5-.8.5-1.3V8z"/><path fill="#E56" d="M30.2 22h-4.4L24 18l-1.8 4h-4.4l3.2 3.2-1.2 4.8 4.2-2.4 4.2 2.4-1.2-4.8 3.2-3.3z"/></symbol>
<!-- gabon --><symbol id="GA" viewBox="0 0 48 48"><path fill="#5C6" d="M48 18H0V8c0-1 1-2 2-2h44c1 0 2 1 2 2v10z"/><path fill="#FC5" d="M0 18h48v12H0z"/><path fill="#45A" d="M48 40c0 1-1 2-2 2H2c-1 0-2-1-2-2V30h48v10z"/></symbol>
<!-- gambia --><symbol id="GM" viewBox="0 0 48 48"><path fill="#E56" d="M48 18H0V8c0-1 1-2 2-2h44c1 0 2 1 2 2v10z"/><path fill="#064" d="M48 40c0 1-1 2-2 2H2c-1 0-2-1-2-2V28h48v12z"/><path fill="#45A" d="M0 18h48v12H0z"/><path fill="#EEE" d="M0 18h48v2H0zm0 10h48v2H0z"/></symbol>
<!-- georgia --><symbol id="GE" viewBox="0 0 48 48"><path fill="#EEE" d="M48 40c0 1-1 2-2 2H2c-1 0-2-1-2-2V8c0-1 1-2 2-2h44c1 0 2 1 2 2v32z"/><path fill="#E56" d="M48 22H26V6h-4v16H0v4h22v16h4V26h22M12 10h-2v4H6v2h4v4h2v-4h4v-2h-4m26 0v-4h-2v4h-4v2h4v4h2v-4h4v-2M12 28h-2v4H6v2h4v4h2v-4h4v-2h-4m26-4h-2v4h-4v2h4v4h2v-4h4v-2h-4"/></symbol>
<!-- germany --><symbol id="DE" viewBox="0 0 48 48"><path fill="#445" d="M48 18H0V8c0-1 1-2 2-2h44c1 0 2 1 2 2v10z"/><path fill="#E56" d="M0 18h48v12H0z"/><path fill="#FC5" d="M48 40c0 1-1 2-2 2H2c-1 0-2-1-2-2V30h48v10z"/></symbol>
<!-- ghana --><symbol id="GH" viewBox="0 0 48 48"><path fill="#E56" d="M48 18H0V8c0-1 1-2 2-2h44c1 0 2 1 2 2v10z"/><path fill="#FC5" d="M0 18h48v12H0V18z"/><path fill="#064" d="M48 40c0 1-1 2-2 2H2c-1 0-2-1-2-2V30h48v10z"/><path fill="#445" d="M24 18.3l1.5 4.3H30l-3.6 2.8 1.3 4.3L24 27l-3.7 2.7 1.3-4.3-3.6-2.8h4.5z"/></symbol>
<!-- gibraltar --><symbol id="GI" viewBox="0 0 48 48"><path fill="#EEE" d="M48 32H0V8c0-1 1-2 2-2h44c1 0 2 1 2 2v24z"/><path fill="#E56" d="M48 40c0 1-1 2-2 2H2c-1 0-2-1-2-2v-8h48v8zM34 18h2v-2h-8v2h2v6h-4V14h2v-2h-8v2h2v10h-4v-6h2v-2h-8v2h2v10h-2v2h24v-2h-2v-4"/><path fill="#455" d="M22 26h4v4h-4z"/><path fill="#FC5" d="M22 32h4v6h-4z"/></symbol>
<!-- Great Britian --><symbol id="GB" viewBox="0 0 48 48"><path fill="#EEE" d="M48 40c0 1-1 2-2 2H2c-1 0-2-1-2-2V8c0-1 1-2 2-2h44c1 0 2 1 2 2v32z"/><path fill="#E56" d="M48 20H28V6h-8v14H0v8h20v14h8V28h20"/></symbol>
<!-- greece --><symbol id="GR" viewBox="0 0 48 48"><path fill="#45A" d="M48 40c0 1-1 2-2 2H2c-1 0-2-1-2-2V8c0-1 1-2 2-2h44c1 0 2 1 2 2v32z"/><path fill="#EEE" d="M20 10h28v4H20zm0 8h28v4H20zm-8-4V6H8v8H0v4h8v8H0v4h48v-4H12v-8h8v-4M0 34h48v4H0z"/></symbol>
<!-- grenada-na --><symbol id="GD" viewBox="0 0 48 48"><path fill="#E56" d="M46 6H2C1 6 0 7 0 8v32c0 1 1 2 2 2h44c1 0 2-1 2-2V8c0-1-1-2-2-2zm-4 30H6V12h36v24z"/><path fill="#FC5" d="M6 12h36v24H6z"/><path fill="#064" d="M18 24c0-1.2.4-2.4 1-3.3L6 12v24l13-8.7c-.6-1-1-2-1-3.3zm12 0c0-1.2-.4-2.4-1-3.3L42 12v24l-13-8.7c.6-1 1-2 1-3.3z"/><circle fill="#E56" cx="24" cy="24" r="6"/><path fill="#FC5" d="M22 38h4v2h-4zm-8 0h4v2h-4zm16 0h4v2h-4zM22 8h4v2h-4zm-8 0h4v2h-4zm16 0h4v2h-4zm-1.8 14.5h-3L24 19.7l-1.3 2.8h-3l2.2 2.2-1 3.3 3-1.6 3 1.6-1-3.3 2.2-2.2z"/></symbol>
<!-- guatemala --><symbol id="GT" viewBox="0 0 48 48"><path fill="#EEE" d="M16 6h16v36H16z"/><path fill="#3AD" d="M48 40c0 1-1 2-2 2H32V6h14c1 0 2 1 2 2v32zm-32 2H2c-1 0-2-1-2-2V8c0-1 1-2 2-2h14v36z"/><path fill="#785" d="M24 18c-3.3 0-6 2.7-6 6s2.7 6 6 6 6-2.7 6-6-2.7-6-6-6zm0 10c-2.2 0-4-1.8-4-4s1.8-4 4-4 4 1.8 4 4-1.8 4-4 4z"/></symbol>
<!-- guernsey --><symbol id="GG" viewBox="0 0 48 48"><path fill="#EEE" d="M48 40c0 1-1 2-2 2H2c-1 0-2-1-2-2V8c0-1 1-2 2-2h44c1 0 2 1 2 2v32z"/><path fill="#E56" d="M22 6h4v36h-4zM0 22h48v4H0z"/><path fill="#FC5" d="M32 22h-6v-6l2-2h-8l2 2v6h-6l-2-2v8l2-2h6v6l-2 2h8l-2-2v-6h6l2 2v-8"/></symbol>
<!-- guinea --><symbol id="GN" viewBox="0 0 48 48"><path fill="#FC5" d="M16 6h16v36H16z"/><path fill="#5C6" d="M48 40c0 1-1 2-2 2H32V6h14c1 0 2 1 2 2v32z"/><path fill="#E56" d="M16 42H2c-1 0-2-1-2-2V8c0-1 1-2 2-2h14v36z"/></symbol>
<!-- guinea-bissau --><symbol id="GW" viewBox="0 0 48 48"><path fill="#E56" d="M16 6H2C1 6 0 7 0 8v32c0 1 1 2 2 2h14V6z"/><path fill="#FC5" d="M48 24H16V6h30c1 0 2 1 2 2v16z"/><path fill="#064" d="M48 40c0 1-1 2-2 2H16V24h32v16z"/><path fill="#445" d="M12.2 22.5h-3L8 20l-1.2 2.5h-3L6 24.8 5.2 28 8 26.4l2.8 1.6-.8-3.2 2.2-2.3z"/></symbol>
<!-- guyana --><symbol id="GY" viewBox="0 0 48 48"><path fill="#EEE" d="M2 6l36 18L2 42l44-18"/><path fill="#FC5" d="M2 6l22 18L2 42l36-18"/><path fill="#455" d="M24 24L2 6l18 18L2 42"/><path fill="#E56" d="M2 6C1 6 0 7 0 8v32c0 1 1 2 2 2l18-18L2 6z"/><path fill="#5C6" d="M46 6H2l44 18L2 42h44c1 0 2-1 2-2V8c0-1-1-2-2-2z"/></symbol>
<!-- haiti-na --><symbol id="HT" viewBox="0 0 48 48"><path fill="#E56" d="M48 40c0 1-1 2-2 2H2c-1 0-2-1-2-2V24h48v16z"/><path fill="#45A" d="M48 24H0V8c0-1 1-2 2-2h44c1 0 2 1 2 2v16z"/><path fill="#EEE" d="M18 18h12v12H18z"/><path fill="#064" d="M24 24l-6 6h12"/></symbol>
<!-- honduras-ca --><symbol id="HN" viewBox="0 0 48 48"><path fill="#EEE" d="M0 18h48v12H0z"/><path fill="#3AD" d="M48 18H0V8c0-1 1-2 2-2h44c1 0 2 1 2 2v10zm0 22c0 1-1 2-2 2H2c-1 0-2-1-2-2V30h48v10zM18.3 19.4h-1.5L16 18l-.5 1.4H14l1 1-.3 1.8 1.4-1 1.6 1-.4-1.7 1-1zm0 7.8h-1.5l-.7-1.4-.5 1.4H14l1 1.2-.3 1.6 1.4-.8 1.6.8-.4-1.6 1-1.2zM34 19.4h-1.5L32 18l-.8 1.4h-1.5l1 1-.3 1.8 1.5-1 1.3 1-.4-1.7 1-1zm0 7.8h-1.5l-.6-1.4-.8 1.4h-1.5l1 1.2-.3 1.6 1.5-.8 1.3.8-.4-1.6 1-1.2zm-8-3.9h-1.4L24 22l-.6 1.3H22l1 1-.4 1.8 1.4-.7 1.4.8-.4-1.6 1-1z"/></symbol>
<!-- hungary --><symbol id="HU" viewBox="0 0 48 48"><path fill="#E56" d="M48 18H0V8c0-1 1-2 2-2h44c1 0 2 1 2 2v10z"/><path fill="#EEE" d="M0 18h48v12H0z"/><path fill="#064" d="M48 40c0 1-1 2-2 2H2c-1 0-2-1-2-2V30h48v10z"/></symbol>
<!-- iceland --><symbol id="IS" viewBox="0 0 48 48"><path fill="#45A" d="M48 40c0 1-1 2-2 2H2c-1 0-2-1-2-2V8c0-1 1-2 2-2h44c1 0 2 1 2 2v32z"/><path fill="#EEE" d="M22 18V6H10v12H0v12h10v12h12V30h26V18H22z"/><path fill="#E56" d="M12 6h8v36h-8zM0 20h48v8H0z"/></symbol>
<!-- india --><symbol id="IN" viewBox="0 0 48 48"><path fill="#E72" d="M48 18H0V8c0-1 1-2 2-2h44c1 0 2 1 2 2v10z"/><path fill="#EEE" d="M0 18h48v12H0z"/><path fill="#064" d="M48 40c0 1-1 2-2 2H2c-1 0-2-1-2-2V30h48v10z"/><path fill="#45A" d="M24 20c-2.2 0-4 1.8-4 4s1.8 4 4 4 4-1.8 4-4-1.8-4-4-4zm0 6c-1 0-2-1-2-2s1-2 2-2 2 1 2 2-1 2-2 2z"/></symbol>
<!-- indonesia --><symbol id="ID" viewBox="0 0 48 48"><path fill="#EEE" d="M48 40c0 1-1 2-2 2H2c-1 0-2-1-2-2V24h48v16z"/><path fill="#E56" d="M48 24H0V8c0-1 1-2 2-2h44c1 0 2 1 2 2v16z"/></symbol>
<!-- iran --><symbol id="IR" viewBox="0 0 48 48"><path fill="#EEE" d="M0 18h48v12H0z"/><path fill="#5C6" d="M48 18H0V8c0-1 1-2 2-2h44c1 0 2 1 2 2v10z"/><path fill="#E56" d="M48 40c0 1-1 2-2 2H2c-1 0-2-1-2-2V30h48v10zM24 20c-2.2 0-4 1.8-4 4s1.8 4 4 4 4-1.8 4-4-1.8-4-4-4zm0 6c-1 0-2-1-2-2s1-2 2-2 2 1 2 2-1 2-2 2z"/></symbol>
<!-- iraq --><symbol id="IQ" viewBox="0 0 48 48"><path fill="#455" d="M48 40c0 1-1 2-2 2H2c-1 0-2-1-2-2V30h48v10z"/><path fill="#EEE" d="M0 18h48v12H0z"/><path fill="#E56" d="M48 18H0V8c0-1 1-2 2-2h44c1 0 2 1 2 2v10z"/><path fill="#064" d="M12 22h2v6h-2zm-4 0h6v2H8zm0 4h8v2H8zm2-6h2v4h-2zm10 6v-6h-2v8h4v-2M6 22h2v2H6zm32-2h-2v6h-2v-6h-2v6h-2v-4h-2v4h-2v2h14v-2h-2m2-4h2v2h-2z"/></symbol>
<!-- ireland --><symbol id="IE" viewBox="0 0 48 48"><path fill="#EEE" d="M16 6h16v36H16z"/><path fill="#E72" d="M48 40c0 1-1 2-2 2H32V6h14c1 0 2 1 2 2v32z"/><path fill="#5C6" d="M16 42H2c-1 0-2-1-2-2V8c0-1 1-2 2-2h14v36z"/></symbol>
<!-- isle-of-man --><symbol id="IM" viewBox="0 0 48 48"><path fill="#E56" d="M48 40c0 1-1 2-2 2H2c-1 0-2-1-2-2V8c0-1 1-2 2-2h44c1 0 2 1 2 2v32z"/><path fill="#EEE" d="M31.8 25.2L30 21.7c-.5-1-1.7-1.4-2.7-1l-1.8 1-1.8-3.6c-.4-1-1.7-1.3-2.6-.8L17.6 19l-1.8-3.6c-1 .5-1.4 1.7-1 2.7l1 2c.5 1 1.7 1.3 2.7.8L22 19l1.7 3.6-1.7.8c-1 .5-1.4 1.7-1 2.7l2 3.7-3.7 1.8c.5 1 1.7 1.4 2.7 1l1.7-1c1-.5 1.4-1.7 1-2.7l-1.8-3.6 1.6-1 1.8-.8 1.8-.8L30 26c.5 1 1.7 1.5 2.7 1l1.8-1c1-.4 1.4-1.6 1-2.6l-3.7 1.8z"/></symbol>
<!-- israel --><symbol id="IL" viewBox="0 0 48 48"><path fill="#EEE" d="M0 40c0 1 1 2 2 2h44c1 0 2-1 2-2v-2H0v2zM46 6H2C1 6 0 7 0 8v2h48V8c0-1-1-2-2-2zM0 18h48v12H0z"/><path fill="#3AD" d="M0 10h48v8H0zm0 20h48v8H0zm26.7-6l1.3-2h-2.7L24 20l-1.3 2H20l1.3 2-1.3 2h2.7l1.3 2 1.3-2H28"/></symbol>
<!-- italy --><symbol id="IT" viewBox="0 0 48 48"><path fill="#5C6" d="M16 42H2c-1 0-2-1-2-2V8c0-1 1-2 2-2h14v36z"/><path fill="#E56" d="M48 40c0 1-1 2-2 2H32V6h14c1 0 2 1 2 2v32z"/><path fill="#EEE" d="M16 6h16v36H16z"/></symbol>
<!-- jamaica --><symbol id="JM" viewBox="0 0 48 48"><path fill="#455" d="M0 38V10l20 14m28 14V10L28 24"/><path fill="#FC5" d="M48 8c0-1-1-2-2-2h-2L24 20 4 6H2C1 6 0 7 0 8v2l20 14L0 38v2c0 1 1 2 2 2h2l20-14 20 14h2c1 0 2-1 2-2v-2L28 24l20-14V8z"/><path fill="#5C6" d="M24 28L4 42h40M24 20L4 6h40"/></symbol>
<!-- japan --><symbol id="JP" viewBox="0 0 48 48"><path fill="#EEE" d="M48 40c0 1-1 2-2 2H2c-1 0-2-1-2-2V8c0-1 1-2 2-2h44c1 0 2 1 2 2v32z"/><circle fill="#E56" cx="24" cy="24" r="10"/></symbol>
<!-- jersey --><symbol id="JE" viewBox="0 0 48 48"><path fill="#EEE" d="M0 8v32l22-16m4 0l22 16V8M2 42h44L24 26M46 6H2l22 16"/><path fill="#E56" d="M48 8c0-1-1-2-2-2L24 22 2 6C1 6 0 7 0 8l22 16L0 40c0 1 1 2 2 2l22-16 22 16c1 0 2-1 2-2L26 24 48 8zm-20 2h-8v5.3l4 2.7 4-2.7"/></symbol>
<!-- jordan --><symbol id="JO" viewBox="0 0 48 48"><path fill="#445" d="M48 18H14L2 6h44c1 0 2 1 2 2v10z"/><path fill="#5C6" d="M48 40c0 1-1 2-2 2H2l12-12h34v10z"/><path fill="#E56" d="M2 6C1 6 0 7 0 8v32c0 1 1 2 2 2l18-18L2 6z"/><path fill="#EEE" d="M48 30H14l6-6-6-6h34M8.4 19.5l1 2.5 2.5-.8-1.5 2.3 2.2 1.5-2.6.4.3 2.6-2-1.8-2 1.8.3-2.6L4 25l2.2-1.5L5 21.2l2.4.8"/></symbol>
<!-- kazakhstan --><symbol id="KZ" viewBox="0 0 48 48"><path fill="#3AD" d="M48 40c0 1-1 2-2 2H2c-1 0-2-1-2-2V8c0-1 1-2 2-2h44c1 0 2 1 2 2v32z"/><circle fill="#FC5" cx="24" cy="22" r="6"/><path fill="#FC5" d="M24 32c-6 0-11-5-11-11 0-.6.4-1 1-1s1 .4 1 1c0 5 4 9 9 9s9-4 9-9c0-.6.4-1 1-1s1 .4 1 1c0 6-5 11-11 11z"/></symbol>
<!-- kenya --><symbol id="KE" viewBox="0 0 48 48"><path fill="#455" d="M48 18H0V8c0-1 1-2 2-2h44c1 0 2 1 2 2v10z"/><path fill="#064" d="M48 40c0 1-1 2-2 2H2c-1 0-2-1-2-2V28h48v12z"/><path fill="#E56" d="M0 18h48v12H0z"/><path fill="#EEE" d="M0 18h48v2H0zm0 10h48v2H0zm16 5l5.2-3 1 1.8-5.2 3zm9.8-1.2l1-1.8 5.2 3-1 1.7zM16 15l1-1.7 5.2 3-1 1.7zm9.8 1.2l5.2-3 1 1.8-5.2 3z"/><path fill="#455" d="M28 16l-4-2-4 2v16l4 2 4-2"/></symbol>
<!-- kiribati --><symbol id="KI" viewBox="0 0 48 48"><path fill="#EEE" d="M0 34h48v2H0zm0-4h48v2H0zm0 8h48v2H0z"/><path fill="#45A" d="M48 40c0 1-1 2-2 2H2c-1 0-2-1-2-2h48zM0 36h48v2H0zm0-4h48v2H0z"/><path fill="#E56" d="M0 30h48V8c0-1-1-2-2-2H2C1 6 0 7 0 8v22z"/><path fill="#FC5" d="M34 30c0-5.5-4.5-10-10-10s-10 4.5-10 10h20zM18 16c-1 0-2 1-2 2h14c0-1-1-2-2-2h-4v-4h2c1 0 2-1 2-2h-6v2h-6c0 1 1 2 2 2h2v2h-2z"/></symbol>
<!-- korea --><symbol id="KR" viewBox="0 0 48 48"><path fill="#EEE" d="M48 40c0 1-1 2-2 2H2c-1 0-2-1-2-2V8c0-1 1-2 2-2h44c1 0 2 1 2 2v32z"/><path fill="#455" d="M7.2 19.4l6-8 1.6 1.2-6 8zm26-6.8l1.6-1.2 6 8-1.6 1.2zm-26 16l1.6-1.2 6 8-1.6 1.2zm26 6.8l6-8 1.6 1.2-6 8z"/><path fill="#45A" d="M34 24c0-2.8-2.2-5-5-5s-5 2.2-5 5-2.2 5-5 5c-2.4 0-4.4-1.7-5-4 .6 5 4.8 9 10 9s9.4-4 10-9v-1z"/><path fill="#E56" d="M24 14c-5.2 0-9.4 4-10 9v1c0 2.8 2.2 5 5 5s5-2.2 5-5 2.2-5 5-5c2.4 0 4.4 1.7 5 4-.6-5-4.8-9-10-9z"/></symbol>
<!-- kosovo --><symbol id="XK" viewBox="0 0 48 48"><path fill="#45A" d="M48 40c0 1-1 2-2 2H2c-1 0-2-1-2-2V8c0-1 1-2 2-2h44c1 0 2 1 2 2v32z"/><path fill="#EEE" d="M26 15.2h-1.4L24 14l-.6 1.2H22l1 1.2-.4 1.6 1.4-.8 1.4.8-.4-1.6 1-1.2zm7.2 0h-1.5L31 14l-.6 1.2H29l1 1.2-.4 1.6 1.4-.8 1.5.8-.4-1.6 1.2-1.2zm7.1 0h-1.5L38 14l-.5 1.2H36l1 1.2-.3 1.6 1.4-.8 1.6.8-.4-1.6 1-1.2zm-21.3 0h-1.4L17 14l-.7 1.2h-1.5l1 1.2-.3 1.6 1.5-.8 1.4.8-.4-1.6 1-1.2zm-6.7 0h-1.5L10 14l-.4 1H8l1 1.2-.3 1.6 1.4-.8 1.6.8-.4-1.6 1-1.2z"/><circle fill="#FC5" cx="24" cy="28" r="6"/></symbol>
<!-- kuwait --><symbol id="KW" viewBox="0 0 48 48"><path fill="#445" d="M16 18v12L2 42c-1 0-2-1-2-2V8c0-1 1-2 2-2"/><path fill="#E56" d="M48 40c0 1-1 2-2 2H2l14-12h32v10z"/><path fill="#EEE" d="M16 18h32v12H16z"/><path fill="#5C6" d="M48 18H16L2 6h44c1 0 2 1 2 2v10z"/></symbol>
<!-- kyrgyzstan --><symbol id="KG" viewBox="0 0 48 48"><path fill="#E56" d="M48 40c0 1-1 2-2 2H2c-1 0-2-1-2-2V8c0-1 1-2 2-2h44c1 0 2 1 2 2v32z"/><circle fill="#FC5" cx="24" cy="24" r="6"/><path fill="#FC5" d="M24 12c-6.6 0-12 5.4-12 12s5.4 12 12 12 12-5.4 12-12-5.4-12-12-12zm0 22c-5.5 0-10-4.5-10-10s4.5-10 10-10 10 4.5 10 10-4.5 10-10 10z"/></symbol>
<!-- laos --><symbol id="LA" viewBox="0 0 48 48"><path fill="#45A" d="M0 16h48v16H0z"/><path fill="#E56" d="M48 16H0V8c0-1 1-2 2-2h44c1 0 2 1 2 2v8zm0 24c0 1-1 2-2 2H2c-1 0-2-1-2-2v-8h48v8z"/><circle fill="#EEE" cx="24" cy="24" r="6"/></symbol>
<!-- latvia --><symbol id="LV" viewBox="0 0 48 48"><path fill="#EEE" d="M0 18h48v12H0z"/><path fill="#812" d="M48 40c0 1-1 2-2 2H2c-1 0-2-1-2-2V30h48v10zm0-22H0V8c0-1 1-2 2-2h44c1 0 2 1 2 2v10z"/></symbol>
<!-- lebanon --><symbol id="LB" viewBox="0 0 48 48"><path fill="#E56" d="M48 40c0 1-1 2-2 2H2c-1 0-2-1-2-2v-8h48v8zm0-24H0V8c0-1 1-2 2-2h44c1 0 2 1 2 2v8z"/><path fill="#EEE" d="M0 16h48v16H0z"/><path fill="#064" d="M24 18l-6 8h4v4h4v-4h4"/></symbol>
<!-- lesotho --><symbol id="LS" viewBox="0 0 48 48"><path fill="#45A" d="M48 16H0V8c0-1 1-2 2-2h44c1 0 2 1 2 2v8z"/><path fill="#EEE" d="M0 16h48v16H0z"/><path fill="#064" d="M48 40c0 1-1 2-2 2H2c-1 0-2-1-2-2v-8h48v8z"/><path fill="#445" d="M29.5 30l-3-5c1-.7 1.5-1.8 1.5-3 0-2.2-1.8-4-4-4s-4 1.8-4 4c0 1.2.6 2.3 1.4 3l-3 5h11z"/></symbol>
<!-- liberia --><symbol id="LR" viewBox="0 0 48 48"><path fill="#E56" d="M48 8c0-1-1-2-2-2H20v20H0v14c0 1 1 2 2 2h44c1 0 2-1 2-2V8z"/><path fill="#45A" d="M20 26H0V8c0-1 1-2 2-2h18v20z"/><path fill="#EEE" d="M20 10h28v4H20zm0 8h28v4H20zM0 26v4h48v-4H20M0 34h48v4H0zm14.2-19.4h-3L10 12l-1.2 2.6h-3L8 16.8 7.2 20l2.8-1.5 2.8 1.6-.8-3 2.2-2z"/></symbol>
<!-- libya --><symbol id="LY" viewBox="0 0 48 48"><path fill="#E56" d="M48 14H0V8c0-1 1-2 2-2h44c1 0 2 1 2 2v6z"/><path fill="#445" d="M0 14h48v20H0z"/><path fill="#5C6" d="M48 40c0 1-1 2-2 2H2c-1 0-2-1-2-2v-6h48v6z"/><path fill="#EEE" d="M26 30c-3.3 0-6-2.7-6-6s2.7-6 6-6c.5 0 1 0 1.5.2C26 17 24 16 22 16c-4.4 0-8 3.6-8 8s3.6 8 8 8c2 0 4-.8 5.5-2.2L26 30zm8-7.5h-3L30 20l-1.2 2.5h-3l2.2 2.3-1 3.2 2.8-1.6 2.8 1.6-.8-3.2 2.2-2.3z"/></symbol>
<!-- liechtenstein --><symbol id="LI" viewBox="0 0 48 48"><path fill="#45A" d="M48 24H0V8c0-1 1-2 2-2h44c1 0 2 1 2 2v16z"/><path fill="#E56" d="M48 40c0 1-1 2-2 2H2c-1 0-2-1-2-2V24h48v16z"/><path fill="#FC5" d="M14 12H6v5.3l4 2.7 4-2.7"/></symbol>
<!-- lithuania --><symbol id="LT" viewBox="0 0 48 48"><path fill="#FC5" d="M48 18H0V8c0-1 1-2 2-2h44c1 0 2 1 2 2v10z"/><path fill="#064" d="M0 18h48v12H0z"/><path fill="#E56" d="M48 40c0 1-1 2-2 2H2c-1 0-2-1-2-2V30h48v10z"/></symbol>
<!-- luxembourg --><symbol id="LU" viewBox="0 0 48 48"><path fill="#3AD" d="M48 40c0 1-1 2-2 2H2c-1 0-2-1-2-2V30h48v10z"/><path fill="#EEE" d="M0 18h48v12H0z"/><path fill="#E56" d="M48 18H0V8c0-1 1-2 2-2h44c1 0 2 1 2 2v10z"/></symbol>
<!-- macedonia --><symbol id="MK" viewBox="0 0 48 48"><path fill="#E56" d="M48 40c0 1-1 2-2 2H2c-1 0-2-1-2-2V8c0-1 1-2 2-2h44c1 0 2 1 2 2v32z"/><path fill="#FC5" d="M26 42l-2-16-2 16m26-20l-22 2 22 2M0 26l22-2-22-2M48 8c0-1-1-2-2-2h-2L24 22 4 6H2C1 6 0 7 0 8v2l22 14L0 38v2c0 1 1 2 2 2h2l20-16 20 16h2c1 0 2-1 2-2v-2L26 24l22-14V8zM22 6l2 16 2-16"/><circle fill="#E56" cx="24" cy="24" r="5"/><circle fill="#FC5" cx="24" cy="24" r="3"/></symbol>
<!-- madagascar --><symbol id="MG" viewBox="0 0 48 48"><path fill="#EEE" d="M16 6H2C1 6 0 7 0 8v32c0 1 1 2 2 2h14V6z"/><path fill="#E56" d="M48 24H16V6h30c1 0 2 1 2 2v16z"/><path fill="#064" d="M48 40c0 1-1 2-2 2H16V24h32v16z"/></symbol>
<!-- malawi --><symbol id="MW" viewBox="0 0 48 48"><path fill="#064" d="M48 40c0 1-1 2-2 2H2c-1 0-2-1-2-2V30h48v10z"/><path fill="#445" d="M48 18H0V8c0-1 1-2 2-2h44c1 0 2 1 2 2v10z"/><path fill="#E56" d="M0 18h48v12H0z"/><circle fill="#E56" cx="24" cy="20" r="8"/></symbol>
<!-- malaysia --><symbol id="MY" viewBox="0 0 48 48"><path fill="#EEE" d="M48 8c0-1-1-2-2-2H20v20H0v14c0 1 1 2 2 2h44c1 0 2-1 2-2V8z"/><path fill="#E56" d="M20 10h28v4H20zm0 8h28v4H20zM0 26v4h48v-4H20M0 34h48v4H0z"/><path fill="#45A" d="M20 26H0V8c0-1 1-2 2-2h18v20z"/><path fill="#FC5" d="M12 14h4v4h-4zm-5.6 2c0-2.2 1.5-4 3.6-4.6l-1.2-.2C6 11.2 4 13.4 4 16s2 4.8 4.8 4.8c.4 0 .8 0 1.2-.2-2-.5-3.6-2.4-3.6-4.6z"/></symbol>
<!-- maldives --><symbol id="MV" viewBox="0 0 48 48"><path fill="#E56" d="M48 40c0 1-1 2-2 2H2c-1 0-2-1-2-2V8c0-1 1-2 2-2h44c1 0 2 1 2 2v32z"/><path fill="#064" d="M8 14h32v20H8z"/><path fill="#EEE" d="M22 24c0-3.7 2.6-6.8 6-7.7-.6-.2-1.3-.3-2-.3-4.4 0-8 3.6-8 8s3.6 8 8 8c.7 0 1.4 0 2-.3-3.4-1-6-4-6-7.7z"/></symbol>
<!-- mali --><symbol id="ML" viewBox="0 0 48 48"><path fill="#FC5" d="M16 6h16v36H16z"/><path fill="#E56" d="M48 40c0 1-1 2-2 2H32V6h14c1 0 2 1 2 2v32z"/><path fill="#5C6" d="M16 42H2c-1 0-2-1-2-2V8c0-1 1-2 2-2h14v36z"/></symbol>
<!-- malta --><symbol id="MT" viewBox="0 0 48 48"><path fill="#E56" d="M48 40c0 1-1 2-2 2H24V6h22c1 0 2 1 2 2v32z"/><path fill="#EEE" d="M24 42H2c-1 0-2-1-2-2V8c0-1 1-2 2-2h22v36z"/><path fill="#BBB" d="M6 10h4v8H6zm-2 2h8v4H4z"/></symbol>
<!-- marocco --><symbol id="MA" viewBox="0 0 48 48"><path fill="#E56" d="M48 40c0 1-1 2-2 2H2c-1 0-2-1-2-2V8c0-1 1-2 2-2h44c1 0 2 1 2 2v32z"/><path fill="#445" d="M32.4 21h-6L24 15.7 21.5 21h-6l4.4 4.5-1.6 6.4 5.6-3.3 5.6 3.2-1.5-6.5 4.4-4.5zm-5.8 7L24 26.3 21.4 28l.7-3-1.6-2h2.4l1.2-2.5 1.2 2.5h2.4l-1.8 2 .8 3z"/></symbol>
<!-- marshall-islands --><symbol id="MH" viewBox="0 0 48 48"><path fill="#45A" d="M48 40c0 1-1 2-2 2H2c-1 0-2-1-2-2l48-10v10zM0 40L42 6H2C1 6 0 7 0 8v32z"/><path fill="#E72" d="M48 8c0-1-1-2-2-2h-4L0 40l48-22V8z"/><path fill="#EEE" d="M0 40l48-10V18m-34.8-4.7l-1 2.2 3.8.8-3.8.8 1 2.3-2-1-1 3.7-.8-3.7-2.2 1 1-2.2-4.2-.7 4.3-.8-1-2.2 2 1 1-4.3.8 4.3"/></symbol>
<!-- mauritania --><symbol id="MR" viewBox="0 0 48 48"><path fill="#064" d="M48 40c0 1-1 2-2 2H2c-1 0-2-1-2-2V8c0-1 1-2 2-2h44c1 0 2 1 2 2v32z"/><path fill="#FC5" d="M31.6 17.5c.2.8.4 1.6.4 2.5 0 4.4-3.6 8-8 8s-8-3.6-8-8c0-1 .2-1.7.4-2.5-1.5 1.8-2.4 4-2.4 6.5 0 5.5 4.5 10 10 10s10-4.5 10-10c0-2.5-1-4.7-2.4-6.5zm-3.4-1h-3L24 14l-1.2 2.5h-3l2.2 2.3-.8 3.2 2.8-1.6 2.8 1.6-.8-3.2 2.2-2.3z"/></symbol>
<!-- mauritius --><symbol id="MU" viewBox="0 0 48 48"><path fill="#5C6" d="M48 40c0 1-1 2-2 2H2c-1 0-2-1-2-2v-6h48v6z"/><path fill="#FC5" d="M0 24h48v10H0z"/><path fill="#45A" d="M0 14h48v10H0z"/><path fill="#E56" d="M48 14H0V8c0-1 1-2 2-2h44c1 0 2 1 2 2v6z"/></symbol>
<!-- mexico --><symbol id="MX" viewBox="0 0 48 48"><path fill="#EEE" d="M16 6.5h16v36H16v-36z"/><path fill="#E56" d="M48 40.5a2.2 2.2 0 0 1-2 2H32v-36h14a2.2 2.2 0 0 1 2 2v32z"/><path fill="#064" d="M16 42.5H2a2.2 2.2 0 0 1-2-2v-32a2.2 2.2 0 0 1 2-2h14v36z"/><circle fill="#FC5" cx="24" cy="23.5" r="8"/><path fill="#EEE" d="M19 22.9l2.1-3.2a1.7 1.7 0 0 1 1.3-.7h5L29 29h-7.7l1-6.1H19z"/></symbol>
<!-- micronesia --><symbol id="FM" viewBox="0 0 48 48"><path fill="#3AD" d="M48 40c0 1-1 2-2 2H2c-1 0-2-1-2-2V8c0-1 1-2 2-2h44c1 0 2 1 2 2v32z"/><path fill="#FC5" d="M28.2 14.5h-3L24 12l-1.2 2.5h-3l2.2 2.3-.8 3.2 2.8-1.6 2.8 1.6-.8-3.2 2.2-2.3zm0 16h-3L24 28l-1.2 2.5h-3l2.2 2.3-.8 3.2 2.8-1.6 2.8 1.6-.8-3.2 2.2-2.3zm-9.8-7.8h-3L14.2 20 13 22.7h-3l2.2 2.2-.8 3 2.8-1.5L17 28l-.8-3 2.2-2.3zm20 0h-3L34.2 20 33 22.7h-3l2.2 2.2-.8 3 2.8-1.5L37 28l-.8-3 2.2-2.3z"/></symbol>
<!-- moldova --><symbol id="MD" viewBox="0 0 48 48"><path fill="#FC5" d="M16 6h16v36H16z"/><path fill="#E56" d="M48 40c0 1-1 2-2 2H32V6h14c1 0 2 1 2 2v32z"/><path fill="#45A" d="M16 42H2c-1 0-2-1-2-2V8c0-1 1-2 2-2h14v36z"/><path fill="#651" d="M30 20h-4v-2c0-1-1-2-2-2h-2c-1 0-2 1-2 2h2v2h-4v7c0 .6.3 1.2 1 1.6l5 3.4 5-3.4c.7-.4 1-1 1-1.7v-7z"/></symbol>
<!-- monaco --><symbol id="MC" viewBox="0 0 48 48"><path fill="#E56" d="M48 24H0V8c0-1 1-2 2-2h44c1 0 2 1 2 2v16z"/><path fill="#EEE" d="M48 40c0 1-1 2-2 2H2c-1 0-2-1-2-2V24h48v16z"/></symbol>
<!-- mongolia --><symbol id="MN" viewBox="0 0 48 48"><path fill="#E56" d="M48 40c0 1-1 2-2 2H32V6h14c1 0 2 1 2 2v32zm-32 2H2c-1 0-2-1-2-2V8c0-1 1-2 2-2h14v36z"/><path fill="#45A" d="M16 6h16v36H16z"/><path fill="#FC5" d="M10 18v2H6v-2H4v12h2v-2h4v2h2V18h-2zm0 8H6v-4h4v4zm-2-8c1 0 2-1 2-2s-2-4-2-4-2 3-2 4 1 2 2 2z"/></symbol>
<!-- montenegro --><symbol id="ME" viewBox="0 0 48 48"><path fill="#E56" d="M4 10h40v28H4z"/><path fill="#FC5" d="M46 6H2C1 6 0 7 0 8v32c0 1 1 2 2 2h44c1 0 2-1 2-2V8c0-1-1-2-2-2zm-2 32H4V10h40v28zM24 16c0-1-1-2-2-2h-4c-1 0-2 1-2 2h8zm8 4v4h-4v-8h4c0-1-1-2-2-2h-4c-1 0-2 1-2 2 0-1-1-2-2-2h-2v10h-4v-4c-1 0-2 1-2 2v4c0 1 1 2 2 2h4l-1 4 3.5-2.6L24 34l1.5-4.6L29 32l-1-4h4c1 0 2-1 2-2v-4c0-1-1-2-2-2zm-8 14l-2-6"/></symbol>
<!-- mozanbique --><symbol id="MZ" viewBox="0 0 48 48"><path fill="#FC5" d="M48 40c0 1-1 2-2 2H2c-1 0-2-1-2-2V30h48v10z"/><path fill="#445" d="M0 18h48v12H0z"/><path fill="#064" d="M48 18H0V8c0-1 1-2 2-2h44c1 0 2 1 2 2v10z"/><path fill="#EEE" d="M0 28h48v2H0zm0-10h48v2H0z"/><path fill="#E56" d="M2 6C1 6 0 7 0 8v32c0 1 1 2 2 2l20-18L2 6z"/><path fill="#FC5" d="M14.4 22.5h-3L10.2 20 9 22.4H6l2.2 2.3-.8 3.2 2.8-1.7L13 28l-.8-3.2 2.2-2.3z"/></symbol>
<!-- namibia --><symbol id="NA" viewBox="0 0 48 48"><path fill="#EEE" d="M48 18L12 42H4.8L48 13.2M36 6h7.2L0 34.8V30"/><path fill="#45A" d="M2 6h34L0 30V8c0-1 1-2 2-2z"/><path fill="#5C6" d="M46 42H12l36-24v22c0 1-1 2-2 2z"/><path fill="#E56" d="M4.8 42H2c-1 0-2-1-2-2v-5.2L43.2 6H46c1 0 2 1 2 2v5.2L4.8 42z"/><circle fill="#FC5" cx="8" cy="14" r="4"/></symbol>
<!-- nauru --><symbol id="NR" viewBox="0 0 48 48"><path fill="#45A" d="M48 22H0V8c0-1 1-2 2-2h44c1 0 2 1 2 2v14zm0 18c0 1-1 2-2 2H2c-1 0-2-1-2-2V26h48v14z"/><path fill="#FC5" d="M0 22h48v4H0zm8 7l1 2.5 2.2-1-1 2.2 2.3.8-2.4 1 1.2 2.2-2.3-1L8 38l-1-2.4-2.2 1 1-2.2-2.3-1 2.4-.7-1.2-2.3 2.3 1"/></symbol>
<!-- nepal --><symbol id="NP" viewBox="0 0 48 48"><path fill="#EEE" d="M48 40c0 1-1 2-2 2H2c-1 0-2-1-2-2V8c0-1 1-2 2-2h44c1 0 2 1 2 2v32z"/><path fill="#E56" d="M12 22h16L8 6H2C1 6 0 7 0 8v32c0 1 1 2 2 2h28L12 22z"/><path fill="#EEE" d="M12.6 30l-1.2 2.4 2.6.6-2.5 1 1.7 2-2.6-.7V38L9 35.8l-1.8 2 .3-2.7-2.6.4 1.8-1.8L4.6 32h2.7l-.8-2.5 2 1.6 1-2.4.7 2.6"/><circle fill="#EEE" cx="9" cy="15" r="2"/><path fill="#EEE" d="M9 20c-2.8 0-5-2.2-5-5h2c0 1.7 1.3 3 3 3s3-1.3 3-3h2c0 2.8-2.2 5-5 5z"/></symbol>
<!-- netherlands --><symbol id="NL" viewBox="0 0 48 48"><path fill="#45A" d="M48 40c0 1-1 2-2 2H2c-1 0-2-1-2-2V30h48v10z"/><path fill="#EEE" d="M0 18h48v12H0z"/><path fill="#E56" d="M48 18H0V8c0-1 1-2 2-2h44c1 0 2 1 2 2v10z"/></symbol>
<!-- new-zealand --><symbol id="NZ" viewBox="0 0 48 48"><path fill="#EEE" d="M20 22H0V8c0-1 1-2 2-2h18v16z"/><path fill="#45A" d="M46 6H20v16H0v18c0 1 1 2 2 2h44c1 0 2-1 2-2V8c0-1-1-2-2-2z"/><path fill="#F00" d="M20 12h-4.6L19 9.3l-1-1.6-6 4.3V6H8v5.4L3 7.7 1.8 9.3 5.5 12H0v4h6.6l-4.8 3.6L3 21.2l5-3.7V22h4v-5.2l6 4.4 1-1.6-4.7-3.6H20m16.5 1h-2l-1-2-1 2h-2l1.6 1.5-.5 2.3 2-1 2 1-.5-2.3 1.5-1.6zm0 17h-2l-1-2-1 2h-2l1.6 1.5-.5 2.3 2-1 2 1-.5-2.3 1.5-1.6zm5.5-9h-2l-1-2-1 2h-2l1.5 1.4-.5 2.4 2-1.2 2 1-.6-2.2L42 25zm-11 0h-2l-1-2-1 2h-2l1.6 1.4-.6 2.4 2-1.2 2 1-.5-2.2L31 25z"/></symbol>
<!-- nicaragua --><symbol id="NI" viewBox="0 0 48 48"><path fill="#3AD" d="M48 18H0V8c0-1 1-2 2-2h44c1 0 2 1 2 2v10zm0 22c0 1-1 2-2 2H2c-1 0-2-1-2-2V30h48v10z"/><path fill="#EEE" d="M0 18h48v12H0z"/><path fill="#445" d="M24 20l2.3 4 2.4 4h-9.4l2.4-4"/></symbol>
<!-- niger --><symbol id="NE" viewBox="0 0 48 48"><path fill="#5C6" d="M48 40c0 1-1 2-2 2H2c-1 0-2-1-2-2V30h48v10z"/><path fill="#EEE" d="M0 18h48v12H0z"/><path fill="#E72" d="M48 18H0V8c0-1 1-2 2-2h44c1 0 2 1 2 2v10z"/><circle fill="#E72" cx="24" cy="24" r="4"/></symbol>
<!-- nigeria --><symbol id="NG" viewBox="0 0 48 48"><path fill="#EEE" d="M16 6h16v36H16z"/><path fill="#064" d="M48 40c0 1-1 2-2 2H32V6h14c1 0 2 1 2 2v32zm-32 2H2c-1 0-2-1-2-2V8c0-1 1-2 2-2h14v36z"/></symbol>
<!-- north-korea --><symbol id="KP" viewBox="0 0 48 48"><path fill="#45A" d="M48 14H0V8c0-1 1-2 2-2h44c1 0 2 1 2 2v6zm0 26c0 1-1 2-2 2H2c-1 0-2-1-2-2v-6h48v6z"/><path fill="#E56" d="M0 16h48v16H0z"/><path fill="#EEE" d="M0 14h48v2H0zm0 18h48v2H0z"/><circle fill="#EEE" cx="14" cy="24" r="6"/><path fill="#E56" d="M18.2 22.6h-3L14 20l-1.2 2.6h-3l2.2 2.2-.8 3.3 2.8-1.3 2.8 1.6L16 25l2.2-2.2z"/></symbol>
<!-- norway --><symbol id="NO" viewBox="0 0 48 48"><path fill="#E56" d="M48 40c0 1-1 2-2 2H2c-1 0-2-1-2-2V8c0-1 1-2 2-2h44c1 0 2 1 2 2v32z"/><path fill="#EEE" d="M10 18H0v2h12V6h-2M0 30h10v12h2V28H0m22-10V6h-2v14h28v-2M20 30v12h2V30h26v-2H20"/><path fill="#45A" d="M48 20H20V6h-8v14H0v8h12v14h8V28h28"/></symbol>
<!-- oman --><symbol id="OM" viewBox="0 0 48 48"><path fill="#064" d="M48 40c0 1-1 2-2 2H14V30h34v10z"/><path fill="#EEE" d="M48 18H14V6h32c1 0 2 1 2 2v10z"/><path fill="#E56" d="M14 18V6H2C1 6 0 7 0 8v32c0 1 1 2 2 2h12V30h34V18H14z"/><path fill="#EEE" d="M10 12l-1.4-1.4L7 12l-1.7-1.4L4 12l1.4 1.3L4 14.5 5.3 16 7 14.6 8.5 16l1.3-1.5-1.5-1.2"/></symbol>
<!-- pakistan --><symbol id="PK" viewBox="0 0 48 48"><path fill="#064" d="M48 40c0 1-1 2-2 2H16V6h30c1 0 2 1 2 2v32z"/><path fill="#EEE" d="M42 22.7h-3L38 20l-1.2 2.7h-3L36 25l-.8 3 2.8-1.6 2.8 1.6-.8-3 2.2-2.3zM34 30c-3.3 0-6-2.7-6-6s2.7-6 6-6c.5 0 1 0 1.5.2C34 17 32 16 30 16c-4.4 0-8 3.6-8 8s3.6 8 8 8c2 0 4-.8 5.5-2.2L34 30zM16 6H2C1 6 0 7 0 8v32c0 1 1 2 2 2h14V6z"/></symbol>
<!-- palau --><symbol id="PW" viewBox="0 0 48 48"><path fill="#3AD" d="M48 40c0 1-1 2-2 2H2c-1 0-2-1-2-2V8c0-1 1-2 2-2h44c1 0 2 1 2 2v32z"/><circle fill="#FC5" cx="18" cy="24" r="8"/></symbol>
<!-- palestine --><symbol id="PS" viewBox="0 0 48 48"><path fill="#445" d="M48 18H14L2 6h44c1 0 2 1 2 2v10z"/><path fill="#EEE" d="M48 30H14l6-6-6-6h34"/><path fill="#064" d="M48 40c0 1-1 2-2 2H2l12-12h34v10z"/><path fill="#E56" d="M2 6C1 6 0 7 0 8v32c0 1 1 2 2 2l18-18L2 6z"/></symbol>
<!-- panama-ca --><symbol id="PA" viewBox="0 0 48 48"><path fill="#EEE" d="M24 24H0V8c0-1 1-2 2-2h22v18z"/><path fill="#45A" d="M16.2 13.6h-3L12 11l-1.2 2.6h-3l2.2 2.2-.8 3.3 2.8-1.5 2.8 1.6L14 16l2.2-2.2zM0 40c0 1 1 2 2 2h22V24H0v16z"/><path fill="#EEE" d="M48 40c0 1-1 2-2 2H24V24h24v16z"/><path fill="#E56" d="M40.2 31.6h-3L36 29l-1.2 2.6h-3l2.2 2.2-.8 3.3 2.8-1.5 2.8 1.6L38 34l2.2-2.2zM24 24h24V8c0-1-1-2-2-2H24v18z"/></symbol>
<!-- papua-new-guinea --><symbol id="PG" viewBox="0 0 48 48"><path fill="#E56" d="M48 8c0-1-1-2-2-2H2l46 32V8z"/><path fill="#455" d="M2 6C1 6 0 7 0 8v32c0 1 1 2 2 2h44c1 0 2-1 2-2v-2L2 6z"/><path fill="#EEE" d="M18.4 28.8l.6-2.3-2 1-2-1 .5 2.3-1.6 1.6h2l1 2 .8-2h2l-1.4-1.6zM11 24l.3-1.5-1.3.8-1.4-.8L9 24l-1 1h1.4l.6 1.3.5-1.2H12l-1-1zm6-2l.3-1.5-1.3.8-1.4-.8.4 1.5-1 1h1.4l.6 1.3.5-1.2H18l-1-1zM7 28.2l.3-1.5-1.3.7-1.4-.7.4 1.5-1 1h1.4l.6 1.3.5-1.3H8l-1-1zm7.4 7.8h-2l-1 2-.8-2h-2l1.4-1.5-.6-2.3 2 1 2-1-.5 2.3"/><path fill="#FC5" d="M40 14h-4v-4h-4c-1 0-2 1-2 2v2h-4c-1 0-2 1-2 2h6v2c0 1 1 2 2 2h4v-4h4v2c1 0 2-1 2-2s-1-2-2-2z"/></symbol>
<!-- paraguay --><symbol id="PY" viewBox="0 0 48 48"><path fill="#E56" d="M48 18H0V8c0-1 1-2 2-2h44c1 0 2 1 2 2v10z"/><path fill="#EEE" d="M0 18h48v12H0z"/><path fill="#45A" d="M48 40c0 1-1 2-2 2H2c-1 0-2-1-2-2V30h48v10z"/><path fill="#455" d="M24 20c-2.2 0-4 1.8-4 4s1.8 4 4 4 4-1.8 4-4-1.8-4-4-4zm0 6c-1 0-2-1-2-2s1-2 2-2 2 1 2 2-1 2-2 2z"/></symbol>
<!-- peru --><symbol id="PE" viewBox="0 0 48 48"><path fill="#EEE" d="M16 6h16v36H16z"/><path fill="#E56" d="M48 40c0 1-1 2-2 2H32V6h14c1 0 2 1 2 2v32zm-32 2H2c-1 0-2-1-2-2V8c0-1 1-2 2-2h14v36z"/></symbol>
<!-- philippines --><symbol id="PH" viewBox="0 0 48 48"><path fill="#45A" d="M48 24H20L2 6h44c1 0 2 1 2 2v16z"/><path fill="#E56" d="M48 40c0 1-1 2-2 2H2l18-18h28v16z"/><path fill="#EEE" d="M2 6C1 6 0 7 0 8v32c0 1 1 2 2 2l18-18L2 6z"/><path fill="#FC5" d="M9 20c-2.2 0-4 1.8-4 4s1.8 4 4 4 4-1.8 4-4-1.8-4-4-4z"/></symbol>
<!-- poland --><symbol id="PL" viewBox="0 0 48 48"><path fill="#E56" d="M48 40c0 1-1 2-2 2H2c-1 0-2-1-2-2V24h48v16z"/><path fill="#EEE" d="M48 24H0V8c0-1 1-2 2-2h44c1 0 2 1 2 2v16z"/></symbol>
<!-- portugal --><symbol id="PT" viewBox="0 0 48 48"><path fill="#064" d="M18 42H2c-1 0-2-1-2-2V8c0-1 1-2 2-2h16v36z"/><path fill="#E56" d="M48 40c0 1-1 2-2 2H18V6h28c1 0 2 1 2 2v32z"/><circle fill="#FC5" cx="18" cy="22" r="6"/></symbol>
<!-- qatar --><symbol id="QA" viewBox="0 0 48 48"><path fill="#812" d="M48 40c0 1-1 2-2 2H16V6h30c1 0 2 1 2 2v32z"/><path fill="#EEE" d="M16 16l6-4-6-4V6H2C1 6 0 7 0 8v32c0 1 1 2 2 2h14v-2l6-4-6-4 6-4-6-4 6-4-6-4z"/></symbol>
<!-- republic-of-the-congo --><symbol id="CG" viewBox="0 0 48 48"><path fill="#5C6" d="M2 6h38L0 32V8c0-1 1-2 2-2z"/><path fill="#E56" d="M46 42H12l36-24v22c0 1-1 2-2 2z"/><path fill="#FC5" d="M12 42H2c-1 0-2-1-2-2v-8L40 6h6c1 0 2 1 2 2v10L12 42z"/></symbol>
<!-- romania --><symbol id="RO" viewBox="0 0 48 48"><path fill="#FC5" d="M16 6h16v36H16z"/><path fill="#E56" d="M48 40c0 1-1 2-2 2H32V6h14c1 0 2 1 2 2v32z"/><path fill="#45A" d="M16 42H2c-1 0-2-1-2-2V8c0-1 1-2 2-2h14v36z"/></symbol>
<!-- russia --><symbol id="RU" viewBox="0 0 48 48"><path fill="#E56" d="M48 40c0 1-1 2-2 2H2c-1 0-2-1-2-2V30h48v10z"/><path fill="#45A" d="M0 18h48v12H0z"/><path fill="#EEE" d="M48 18H0V8c0-1 1-2 2-2h44c1 0 2 1 2 2v10z"/></symbol>
<!-- rwanda --><symbol id="RW" viewBox="0 0 48 48"><path fill="#064" d="M48 40c0 1-1 2-2 2H2c-1 0-2-1-2-2v-8h48v8z"/><path fill="#FC5" d="M0 22h48v10H0z"/><path fill="#3AD" d="M48 22H0V8c0-1 1-2 2-2h44c1 0 2 1 2 2v14z"/><circle fill="#FC5" cx="36" cy="16" r="4"/></symbol>
<!-- saint-kitts-nevis --><symbol id="KN" viewBox="0 0 48 48"><path fill="#5C6" d="M2 6h28L0 26V8c0-1 1-2 2-2z"/><path fill="#E56" d="M46 42H18l30-20v18c0 1-1 2-2 2z"/><path fill="#455" d="M37.2 6H46c1 0 2 1 2 2v9.2L10.8 42H2c-1 0-2-1-2-2v-9.2L37.2 6z"/><path fill="#FC5" d="M48 22L18 42h-7.2L48 17.2M30 6h7.2L0 30.8V26"/><path fill="#EEE" d="M12.4 32.7h-3L8.2 30 7 32.7H4L6.2 35l-.8 3 2.8-1.5L11 38l-.8-3 2.2-2.3zM44 12.5h-3L40 10l-1.2 2.5h-3l2.2 2.3-1 3.2 2.8-1.6 2.8 1.6-.8-3.2 2.2-2.3z"/></symbol>
<!-- saint-lucia-na --><symbol id="LC" viewBox="0 0 48 48"><path fill="#3AD" d="M48 40c0 1-1 2-2 2H2c-1 0-2-1-2-2V8c0-1 1-2 2-2h44c1 0 2 1 2 2v32z"/><path fill="#EEE" d="M32 34l-8-20-8 20 8-16"/><path fill="#455" d="M32 34l-8-16-8 16 8-12"/><path fill="#FF0" d="M24 22l-8 12h16"/></symbol>
<!-- saint-vincent-grenadines --><symbol id="VC" viewBox="0 0 48 48"><path fill="#FC5" d="M14 6h20v36H14z"/><path fill="#5C6" d="M48 40c0 1-1 2-2 2H34V6h12c1 0 2 1 2 2v32zM20.6 26.7l3.4-3.3 3.3 3.3L24 30zm4-4l3.4-3.3 3.3 3.3L28 26zm-8 0l3.4-3.3 3.3 3.3L20 26z"/><path fill="#3AD" d="M14 42H2c-1 0-2-1-2-2V8c0-1 1-2 2-2h12v36z"/></symbol>
<!-- samoa --><symbol id="WS" viewBox="0 0 48 48"><path fill="#45A" d="M20 22H0V8c0-1 1-2 2-2h18v16z"/><path fill="#E56" d="M46 6H20v16H0v18c0 1 1 2 2 2h44c1 0 2-1 2-2V8c0-1-1-2-2-2z"/><path fill="#EEE" d="M17.7 10.2h-2.3l-1-2-1 2h-2.2L13 12l-.7 2.4 2-1.2 2.3 1.2L16 12l1.7-1.8zM8 11.5H6.3L5.6 10 5 11.5H3l1.2 1.3-.4 2 1.6-1 1.6 1-.4-2L8 11.5zm8 5.5h-1.7l-.7-1.5L13 17h-1.7l1.2 1.3L12 20l1.6-.8 1.6 1-.4-2L16 17zm-6 .7H8.8l-.5-1-.6 1H6.5l1 1L7 20l1.3-.7 1 .7-.2-1.4 1-1z"/></symbol>
<!-- san-marino --><symbol id="SM" viewBox="0 0 48 48"><path fill="#EEE" d="M48 24H0V8c0-1 1-2 2-2h44c1 0 2 1 2 2v16z"/><path fill="#3AD" d="M48 40c0 1-1 2-2 2H2c-1 0-2-1-2-2V24h48v16z"/><path fill="#FC5" d="M28 20h-2v-2h2v-2h-8v2h2v2h-2c-1 0-2 1-2 2v6l6 4 6-4v-6c0-1-1-2-2-2z"/><path fill="#064" d="M14 20h2v8h-2zm18 0h2v8h-2z"/></symbol>
<!-- sao-tome-and-principe --><symbol id="ST" viewBox="0 0 48 48"><path fill="#5C6" d="M48 16H12L2 6h44c1 0 2 1 2 2v8zm0 24c0 1-1 2-2 2H2l10-10h36v8z"/><path fill="#FC5" d="M48 32H12l8-8-8-8h36"/><path fill="#E56" d="M2 6C1 6 0 7 0 8v32c0 1 1 2 2 2l18-18L2 6z"/><path fill="#445" d="M30.4 22.5h-3L26.2 20 25 22.4h-3l2.2 2.3-.8 3.2 2.8-1.8L29 28l-.8-3.2 2.2-2.3zm12 0h-3L38.2 20 37 22.4h-3l2.2 2.3-.8 3.2 2.8-1.8L41 28l-.8-3.2 2.2-2.3z"/></symbol>
<!-- saudi-arabia --><symbol id="SA" viewBox="0 0 48 48"><path fill="#064" d="M48 40c0 1-1 2-2 2H2c-1 0-2-1-2-2V8c0-1 1-2 2-2h44c1 0 2 1 2 2v32z"/><path fill="#EEE" d="M38 14v2h-6v2h6v2h-6v2h6v2h-6v2h6v2h-8v-8h-2v2h-2v2h2v4h-4V18h-2v10h-2V18h-2v10h-2v-6h-6v-2h6v-2h-6v-4H8v16h32V14h-2zM10 28v-4h4v4h-4zm2-14h2v2h-2zm6 0h6v2h-6zm8 2h4v2h-4zM8 34h32v2H8z"/></symbol>
<!-- senegal --><symbol id="SN" viewBox="0 0 48 48"><path fill="#FC5" d="M16 6h16v36H16z"/><path fill="#E56" d="M48 40c0 1-1 2-2 2H32V6h14c1 0 2 1 2 2v32z"/><path fill="#5C6" d="M16 42H2c-1 0-2-1-2-2V8c0-1 1-2 2-2h14v36zm14.3-20.3H26l-2-4-2 4h-4.3L21 25l-1.3 5 4.3-2.5 4.3 2.4-1.2-5 3.4-3.4z"/></symbol>
<!-- serbia --><symbol id="RS" viewBox="0 0 48 48"><path fill="#E56" d="M48 18H0V8c0-1 1-2 2-2h44c1 0 2 1 2 2v10z"/><path fill="#45A" d="M0 18h48v12H0z"/><path fill="#EEE" d="M48 40c0 1-1 2-2 2H2c-1 0-2-1-2-2V30h48v10z"/><path fill="#E56" d="M18 18H6v12l6 4 6-4"/><path fill="#EEE" d="M8 20h8v6H8zm4 12l4-4H8"/><path fill="#FC5" d="M8 14v2h2v2h4v-2h2v-2"/></symbol>
<!-- seychelles --><symbol id="SC" viewBox="0 0 48 48"><path fill="#064" d="M48 40c0 1-1 2-2 2H2c-1 0-2-1-2-2l48-10v10z"/><path fill="#EEE" d="M0 40l48-10V20"/><path fill="#FC5" d="M0 40L42 6H22"/><path fill="#45A" d="M0 40L22 6H2C1 6 0 7 0 8v32z"/><path fill="#E56" d="M48 8c0-1-1-2-2-2h-4L0 40l48-20V8z"/></symbol>
<!-- sierra-leone --><symbol id="SL" viewBox="0 0 48 48"><path fill="#3AD" d="M48 40c0 1-1 2-2 2H2c-1 0-2-1-2-2V30h48v10z"/><path fill="#EEE" d="M0 18h48v12H0z"/><path fill="#5C6" d="M48 18H0V8c0-1 1-2 2-2h44c1 0 2 1 2 2v10z"/></symbol>
<!-- singapore --><symbol id="SG" viewBox="0 0 48 48"><path fill="#E56" d="M48 24H0V8c0-1 1-2 2-2h44c1 0 2 1 2 2v16z"/><path fill="#EEE" d="M48 40c0 1-1 2-2 2H2c-1 0-2-1-2-2V24h48v16zM8 16c0-2.6 1.7-4.8 4-5.6-.6-.3-1.3-.4-2-.4-3.3 0-6 2.7-6 6s2.7 6 6 6c.7 0 1.4 0 2-.4-2.3-.8-4-3-4-5.6z"/><circle fill="#EEE" cx="19" cy="11" r="1"/><circle fill="#EEE" cx="19" cy="19" r="1"/><ellipse fill="#EEE" cx="15" cy="17" rx="1" ry="1"/><ellipse fill="#EEE" cx="23" cy="13" rx="1" ry="1"/><ellipse fill="#EEE" cx="23" cy="17" rx="1" ry="1"/><ellipse fill="#EEE" cx="15" cy="13" rx="1" ry="1"/></symbol>
<!-- slovakia --><symbol id="SK" viewBox="0 0 48 48"><path fill="#E56" d="M48 40c0 1-1 2-2 2H2c-1 0-2-1-2-2V30h48v10z"/><path fill="#45A" d="M0 18h48v12H0z"/><path fill="#EEE" d="M48 18H0V8c0-1 1-2 2-2h44c1 0 2 1 2 2v10z"/><path fill="#E56" d="M18 14H6v11c0 .6.3 1.2 1 1.6l5 3.4 5-3.4c.7-.4 1-1 1-1.7V14z"/><path fill="#EEE" d="M8 16h8v2H8zm2 4h4v2h-4zm0 4h4v2h-4z"/></symbol>
<!-- slovenia --><symbol id="SI" viewBox="0 0 48 48"><path fill="#E56" d="M48 40c0 1-1 2-2 2H2c-1 0-2-1-2-2V30h48v10z"/><path fill="#45A" d="M0 18h48v12H0z"/><path fill="#EEE" d="M48 18H0V8c0-1 1-2 2-2h44c1 0 2 1 2 2v10z"/><path fill="#45A" d="M18 14H6v10l6 4 6-4"/><path fill="#EEE" d="M16 18H8v4h8v-4z"/></symbol>
<!-- solomon-islands --><symbol id="SB" viewBox="0 0 48 48"><path fill="#FC5" d="M4 42H2c-1 0-2-1-2-2v-4L44 6h2c1 0 2 1 2 2v4L4 42z"/><path fill="#064" d="M46 42H4l44-30v28c0 1-1 2-2 2z"/><path fill="#45A" d="M2 6h42L0 36V8c0-1 1-2 2-2z"/><path fill="#EEE" d="M14.5 10.4h-2l-1-2-1 2h-2L10 12l-.5 2.3 2-1 2 1L13 12m-5 5.3H6.6L6 16l-.5 1.3H4l1 1-.3 1.5L6 19l1.4.8-.4-1.5 1-1zm4 4.1h-1.4l-.6-1.2-.5 1.2H8l1 1-.3 1.6 1.3-.8 1.4.8-.4-1.5 1-1zm8-5.4h-2l-1-1.8-1 2h-2l1.6 1.5L15 20l2-1 2 1-.5-2.3L20 16z"/></symbol>
<!-- somalia --><symbol id="SO" viewBox="0 0 48 48"><path fill="#3AD" d="M48 40c0 1-1 2-2 2H2c-1 0-2-1-2-2V8c0-1 1-2 2-2h44c1 0 2 1 2 2v32z"/><path fill="#EEE" d="M32.4 21h-6L24 15.7 21.5 21h-6l4.4 4.5-1.7 6.4 5.6-3.4 5.5 3.2-1.5-6.5 4.4-4.5z"/></symbol>
<!-- south-africa --><symbol id="ZA" viewBox="0 0 48 48"><path fill="#EEE" d="M48 40c0 1-1 2-2 2H2c-1 0-2-1-2-2V8c0-1 1-2 2-2h44c1 0 2 1 2 2v32z"/><path fill="#FC5" d="M0 14v4l10 6-10 6v4l16-10"/><path fill="#455" d="M0 18v12l10-6"/><path fill="#45A" d="M48 40c0 1-1 2-2 2H10l14-10h24v8z"/><path fill="#E56" d="M48 16H24L10 6h36c1 0 2 1 2 2v8z"/><path fill="#064" d="M23.4 20L2.4 6H2C1 6 0 7 0 8v6l16 10L0 34v6c0 1 1 2 2 2h.4l21-14H48v-8H23.4z"/></symbol>
<!-- south-sandwich-islands --><symbol id="GS" viewBox="0 0 48 48"><path fill="#02247E" d="M46 6H2C1 6 0 7 0 8v32c0 1 1 2 2 2h44c1 0 2-1 2-2V8c0-1-1-2-2-2z"/><path fill="#C30F2C" d="M20 14h-5.2l3.7-3.7-2.8-2.8-3.7 3.7V6H8v5.2L4.3 7.5l-2.8 2.8L5.2 14H0v4h5.2l-3.7 3.7 2.8 2.8L8 20.8V26h4v-5.2l3.7 3.7 2.8-2.8-3.7-3.7H20"/><path fill="#703D35" d="M44 24H32v10l6 4 6-4"/></symbol>
<!-- south-sudan --><symbol id="SS" viewBox="0 0 48 48"><path fill="#445" d="M48 18H0V8c0-1 1-2 2-2h44c1 0 2 1 2 2v10z"/><path fill="#E56" d="M0 18h48v12H0z"/><path fill="#5C6" d="M48 40c0 1-1 2-2 2H2c-1 0-2-1-2-2V30h48v10z"/><path fill="#EEE" d="M0 18h48v2H0zm0 10h48v2H0z"/><path fill="#45A" d="M2 6C1 6 0 7 0 8v32c0 1 1 2 2 2l20-18L2 6z"/><path fill="#FC5" d="M14.4 22.5h-3L10.2 20 9 22.4H6l2.2 2.3-.8 3.2 2.8-1.7L13 28l-.8-3.2 2.2-2.3z"/></symbol>
<!-- spain --><symbol id="ES" viewBox="0 0 48 48"><path fill="#E56" d="M48 16H0V8c0-1 1-2 2-2h44c1 0 2 1 2 2v8zm0 24c0 1-1 2-2 2H2c-1 0-2-1-2-2v-8h48v8z"/><path fill="#FC5" d="M0 16h48v16H0z"/><path fill="#943" d="M14 20v-2H6v2h2v2H6v5.3l4 2.7 4-2.7V22h-2v-2"/></symbol>
<!-- sri-lanka --><symbol id="LK" viewBox="0 0 48 48"><path fill="#064" d="M4 10h8v28H4z"/><path fill="#E72" d="M12 10h8v28h-8z"/><path fill="#822" d="M24 10h20v28H24z"/><path fill="#FC5" d="M48 8c0-1-1-2-2-2H2C1 6 0 7 0 8v32c0 1 1 2 2 2h44c1 0 2-1 2-2V8zM4 10h16v28H4V10zm40 28H24V10h20v28zM26 12h2v2h-2zm14 0h2v2h-2zM26 34h2v2h-2zm14 0h2v2h-2zm0-14v2h-8v-2c0-1-1-2-2-2h-4c0 1 1 2 2 2v4h-2c0 1 1 2 2 2v2c0 1 1 2 2 2v-2c0-1 1-2 2-2h6c1 0 2 1 2 2v2c1 0 2-1 2-2v-6c0-1-1-2-2-2z"/></symbol>
<!-- sudan --><symbol id="SD" viewBox="0 0 48 48"><path fill="#5C6" d="M2 6C1 6 0 7 0 8v32c0 1 1 2 2 2l18-18L2 6z"/><path fill="#445" d="M48 40c0 1-1 2-2 2H2l12-12h34v10z"/><path fill="#EEE" d="M48 30H14l6-6-6-6h34"/><path fill="#E56" d="M48 18H14L2 6h44c1 0 2 1 2 2v10z"/></symbol>
<!-- suriname --><symbol id="SR" viewBox="0 0 48 48"><path fill="#064" d="M48 18H0V8c0-1 1-2 2-2h44c1 0 2 1 2 2v10zm0 22c0 1-1 2-2 2H2c-1 0-2-1-2-2V30h48v10z"/><path fill="#E56" d="M0 18h48v12H0z"/><path fill="#FC5" d="M28.2 22.4h-3L24 19.7l-1.3 2.7h-3l2.2 2.3-1 3.2 3-1.7 3 1.6-1-3.3 2.2-2.3z"/><path fill="#EEE" d="M0 16h48v2H0zm0 14h48v2H0z"/></symbol>
<!-- swaziland --><symbol id="SZ" viewBox="0 0 48 48"><path fill="#45A" d="M48 14H0V8c0-1 1-2 2-2h44c1 0 2 1 2 2v6zm0 26c0 1-1 2-2 2H2c-1 0-2-1-2-2v-6h48v6z"/><path fill="#E56" d="M0 16h48v16H0z"/><path fill="#FC5" d="M0 14h48v2H0zm0 18h48v2H0zm10-6h12v2H10zm0-6h12v2H10zm16 6h12v2H26zm0-6h12v2H26z"/><path fill="#455" d="M18 24c0 3.3 2.7 6 6 6V18c-3.3 0-6 2.7-6 6z"/><path fill="#EEE" d="M30 24c0 3.3-2.7 6-6 6V18c3.3 0 6 2.7 6 6z"/></symbol>
<!-- sweden --><symbol id="SE" viewBox="0 0 48 48"><path fill="#45A" d="M48 40c0 1-1 2-2 2H2c-1 0-2-1-2-2V8c0-1 1-2 2-2h44c1 0 2 1 2 2v32z"/><path fill="#FC5" d="M48 20H20V6h-8v14H0v8h12v14h8V28h28"/></symbol>
<!-- switzerland --><symbol id="CH" viewBox="0 0 48 48"><path fill="#E56" d="M48 40c0 1-1 2-2 2H2c-1 0-2-1-2-2V8c0-1 1-2 2-2h44c1 0 2 1 2 2v32z"/><path fill="#EEE" d="M35 28H13c-.6 0-1-.4-1-1v-6c0-.6.4-1 1-1h22c.6 0 1 .4 1 1v6c0 .6-.4 1-1 1zm-8 8h-6c-.6 0-1-.4-1-1V13c0-.6.4-1 1-1h6c.6 0 1 .4 1 1v22c0 .6-.4 1-1 1z"/></symbol>
<!-- syria --><symbol id="SY" viewBox="0 0 48 48"><path fill="#455" d="M48 40c0 1-1 2-2 2H2c-1 0-2-1-2-2V30h48v10z"/><path fill="#EEE" d="M0 18h48v12H0z"/><path fill="#E56" d="M48 18H0V8c0-1 1-2 2-2h44c1 0 2 1 2 2v10z"/><path fill="#064" d="M20.3 22.6h-3l-1-2.6-1 2.6h-3l2 2.2-.8 3.3 2.8-1.2 3 1.6-.8-3.2 2-2zm15.7 0h-3L32 20l-1.2 2.6h-3l2.2 2.2-1 3.2 2.8-1.5 2.8 1.6-.8-3 2.2-2z"/></symbol>
<!-- taiwan --><symbol id="TW" viewBox="0 0 48 48"><path fill="#E56" d="M48 8c0-1-1-2-2-2H20v16H0v18c0 1 1 2 2 2h44c1 0 2-1 2-2V8z"/><path fill="#45A" d="M20 22H0V8c0-1 1-2 2-2h18v16z"/><circle fill="#EEE" cx="10" cy="14" r="4"/></symbol>
<!-- tajikistan --><symbol id="TJ" viewBox="0 0 48 48"><path fill="#E45" d="M48 18H0V8c0-1 1-2 2-2h44c1 0 2 1 2 2v10z"/><path fill="#EEE" d="M0 18h48v12H0z"/><path fill="#064" d="M48 40c0 1-1 2-2 2H2c-1 0-2-1-2-2V30h48v10z"/><path fill="#FC5" d="M24 20c-2.2 0-4 1.8-4 4s1.8 4 4 4 4-1.8 4-4-1.8-4-4-4z"/></symbol>
<!-- tanzania --><symbol id="TZ" viewBox="0 0 48 48"><path fill="#FC5" d="M48 18L12 42H4.8L48 13.2M36 6h7.2L0 34.8V30"/><path fill="#5C6" d="M2 6h34L0 30V8c0-1 1-2 2-2z"/><path fill="#3AD" d="M46 42H12l36-24v22c0 1-1 2-2 2z"/><path fill="#445" d="M4.8 42H2c-1 0-2-1-2-2v-5.2L43.2 6H46c1 0 2 1 2 2v5.2L4.8 42z"/></symbol>
<!-- thailand --><symbol id="TH" viewBox="0 0 48 48"><path fill="#E56" d="M48 40c0 1-1 2-2 2H2c-1 0-2-1-2-2v-4h48v4zm0-28H0V8c0-1 1-2 2-2h44c1 0 2 1 2 2v4z"/><path fill="#45A" d="M0 18h48v12H0z"/><path fill="#EEE" d="M0 30h48v6H0zm0-18h48v6H0z"/></symbol>
<!-- togo --><symbol id="TG" viewBox="0 0 48 48"><path fill="#5C6" d="M48 40c0 1-1 2-2 2H2c-1 0-2-1-2-2v-6h48v6zm0-26H14V6h32c1 0 2 1 2 2v6zM0 20h48v8H0z"/><path fill="#FC5" d="M0 28h48v6H0zm14-14h34v6H14z"/><path fill="#E56" d="M14 20H0V8c0-1 1-2 2-2h12v14z"/><path fill="#EEE" d="M10.8 12.3H8.3l-1-2.2-1 2.3H3.7l1.8 2-.7 2.6 2.3-1.5L9.6 17 9 14l1.8-2z"/></symbol>
<!-- tonga --><symbol id="TO" viewBox="0 0 48 48"><path fill="#EEE" d="M20 26H0V8c0-1 1-2 2-2h18v20z"/><path fill="#E56" d="M46 6H20v20H0v14c0 1 1 2 2 2h44c1 0 2-1 2-2V8c0-1-1-2-2-2zm-30 8h-4v-4H8v4H4v4h4v4h4v-4h4"/></symbol>
<!-- trinidad-tobago --><symbol id="TT" viewBox="0 0 48 48"><path fill="#EEE" d="M48 39.8c0 1-1 2-2 2H2c-1 0-2-1-2-2v-32c0-1 1-2 2-2h44c1 0 2 1 2 2v32z"/><path fill="#E56" d="M46 6H12l36 24V8c0-1-1-2-2-2zM2 42h34L0 18v22c0 1 1 2 2 2z"/><path fill="#455" d="M43.2 42H46c1 0 2-1 2-2v-5.2L4.8 6H2C1 6 0 7 0 8v5.2L43.2 42z"/></symbol>
<!-- tunisia --><symbol id="TN" viewBox="0 0 48 48"><path fill="#E56" d="M48 40c0 1-1 2-2 2H2c-1 0-2-1-2-2V8c0-1 1-2 2-2h44c1 0 2 1 2 2v32z"/><circle fill="#EEE" cx="24" cy="24" r="12"/><path fill="#E56" d="M27.2 30.4c-3.5 0-6.4-3-6.4-6.4s3-6.4 6.4-6.4c.7 0 1.3 0 2 .3-1.4-1.4-3.2-2-5.2-2-4.4 0-8 3.5-8 8s3.6 8 8 8c2 0 3.8-.8 5.2-2-.7.2-1.3.3-2 .3zm2.1-7.7L28 20l-1.2 2.7H24l2 2-.7 3.3 2.7-1.6 2.8 1.6-.8-3.2 2-2h-2.7z"/></symbol>
<!-- turkey --><symbol id="TR" viewBox="0 0 48 48"><path fill="#E56" d="M48 40c0 1-1 2-2 2H2c-1 0-2-1-2-2V8c0-1 1-2 2-2h44c1 0 2 1 2 2v32z"/><path fill="#EEE" d="M22 34c-5.5 0-10-4.5-10-10s4.5-10 10-10c1.3 0 2.4.3 3.6.7C23.6 13 21 12 18 12c-6.6 0-12 5.4-12 12s5.4 12 12 12c3 0 5.5-1 7.6-2.7-1.2.4-2.3.7-3.6.7zm10.3-12l-1.8-4-2 4h-4l3 3.2-1.2 4.8 4.2-2.4 4 2.4-1-4.8 3-3.2h-4.2z"/></symbol>
<!-- turkmenistan --><symbol id="TM" viewBox="0 0 48 48"><path fill="#5C6" d="M48 40c0 1-1 2-2 2H18V6h28c1 0 2 1 2 2v32zM18 6H2C1 6 0 7 0 8v32c0 1 1 2 2 2h16V6z"/><path fill="#EEE" d="M34 16c0-2.6-1.7-4.8-4-5.6.6-.3 1.3-.4 2-.4 3.3 0 6 2.7 6 6s-2.7 6-6 6c-.7 0-1.4 0-2-.4 2.3-.8 4-3 4-5.6zm-10-4h2v2h-2zm4 0h2v2h-2zm0 4h2v2h-2zm-4 0h2v2h-2zm2-2h2v2h-2z"/><path fill="#E56" d="M10 6v36h8V6h-8zm6 32h-4v-4h4v4zm0-6h-4v-4h4v4zm0-6h-4v-4h4v4zm0-6h-4v-4h4v4zm0-6h-4v-4h4v4z"/></symbol>
<!-- tuvalu --><symbol id="TV" viewBox="0 0 48 48"><path fill="#070084" d="M20 22H0V8c0-1 1-2 2-2h18v16z"/><path fill="#0482FB" d="M46 6H20v16H0v18c0 1 1 2 2 2h44c1 0 2-1 2-2V8c0-1-1-2-2-2z"/><path fill="#F00" d="M20 12h-4.6L19 9.3l-1-1.6-6 4.3V6H8v5.4L3 7.7 1.8 9.3 5.5 12H0v4h6.6l-4.8 3.6L3 21.2l5-3.7V22h4v-5.2l6 4.4 1-1.6-4.7-3.6H20"/><path fill="#F6D031" d="M35 25h-2.4l-1-2-1 2h-2l1.5 1.6-.5 2.5 2.2-1 2.2 1-.7-2.4L35 25zm-7 2.6h-1.6l-.8-1.5-.7 1.6H23l1.3 1.3-.5 1.7 1.6-1 1.7 1-.5-1.8 1.2-1.4zm-6 1.7h-1l-.6-1-.5 1h-1.2l.8.8-.3 1.4 1-.6 1.2.6-.3-1.3.8-.7zm-4.5.9h-1l-.6-1-.6 1h-1l.7 1-.2 1 1-.5 1.2.6-.3-1.2.8-.8zm25.5-.6h-2.3l-1-2-1 2h-2.2l1.7 1.7-.6 2.5 2.2-1.3 2 1.3-.5-2.5 1.7-1.7zm-7 2.6h-1.6l-.7-1.5-.7 1.5h-1.7l1.3 1.3-.5 2 1.7-1 1.6 1-.4-2 1-1.3zM30 34h-1l-.5-1-.5 1h-1l.7.8-.3 1.2 1-.6 1 .6-.2-1.2.8-1zm-4.5.8h-1l-.5-1-.5 1h-1l.7 1-.3 1 1-.5 1 .6-.3-1.3.8-1z"/></symbol>
<!-- uganda --><symbol id="UG" viewBox="0 0 48 48"><path fill="#E56" d="M48 40c0 1-1 2-2 2H2c-1 0-2-1-2-2v-4h48v4z"/><path fill="#FC5" d="M0 30h48v6H0z"/><path fill="#445" d="M0 24h48v6H0z"/><path fill="#E56" d="M0 18h48v6H0z"/><path fill="#445" d="M0 12h48V8c0-1-1-2-2-2H2C1 6 0 7 0 8v4z"/><path fill="#FC5" d="M0 12h48v6H0z"/><circle fill="#EEE" cx="24" cy="24" r="8"/><path fill="#999" d="M26 22h-4v-2h2v-2l-4 2v4c0 1 1 2 2 2v4l2-4 2 4v-4h2v-2c0-1-1-2-2-2z"/></symbol>
<!-- uk --><symbol id="GB" viewBox="0 0 48 48"><path fill="#45A" d="M46 6H2C1 6 0 7 0 8v32c0 1 1 2 2 2h44c1 0 2-1 2-2V8c0-1-1-2-2-2z"/><path fill="#EEE" d="M48 8c0-1-1-2-2-2h-5.2L28 16V6h-8v10L7.2 6H2C1 6 0 7 0 8v2.6L12.2 20H0v8h12.2L0 37.4V40c0 1 1 2 2 2h5.2L20 32v10h8V32l12.8 10H46c1 0 2-1 2-2v-2.6L35.8 28H48v-8H35.8L48 10.6V8z"/><path fill="#E56" d="M48 22H26V6h-4v16H0v4h22v16h4V26h22"/><path fill="#E56" d="M47 6.3L29.2 20h3.3L48 8c0-.7-.4-1.3-1-1.7zM32.5 28h-3.3L47 41.7c.6-.4 1-1 1-1.7L32.5 28zm-17 0L0 40c0 .7.4 1.3 1 1.7L18.8 28h-3.3zm0-8h3.3L1 6.3c-.6.4-1 1-1 1.7l15.5 12z"/></symbol>
<!-- ukraine --><symbol id="UA" viewBox="0 0 48 48"><path fill="#3AD" d="M48 24H0V8c0-1 1-2 2-2h44c1 0 2 1 2 2v16z"/><path fill="#FC5" d="M48 40c0 1-1 2-2 2H2c-1 0-2-1-2-2V24h48v16z"/></symbol>
<!-- united arab emirates --><symbol id="AE" viewBox="0 0 48 48"><path fill="#064" d="M48 18H16V6h30c1 0 2 1 2 2v10z"/><path fill="#EEE" d="M16 18h32v12H16z"/><path fill="#455" d="M48 40c0 1-1 2-2 2H16V30h32v10z"/><path fill="#E56" d="M16 42H2c-1 0-2-1-2-2V8c0-1 1-2 2-2h14v36z"/></symbol>
<!-- uruguay --><symbol id="UY" viewBox="0 0 48 48"><path fill="#EEE" d="M48 8c0-1-1-2-2-2H18v20H0v14c0 1 1 2 2 2h44c1 0 2-1 2-2V8zM18 26H0V8c0-1 1-2 2-2h16v20z"/><path fill="#45A" d="M18 10h30v4H18zm0 8h30v4H18zM0 26v4h48v-4H20M0 34h48v4H0z"/><circle fill="#FC5" cx="10" cy="16" r="4"/></symbol>
<!-- usa --><symbol id="US" viewBox="0 0 48 48"><path fill="#E56" d="M48 8c0-1-1-2-2-2H20v20H0v14c0 1 1 2 2 2h44c1 0 2-1 2-2V8z"/><path fill="#45A" d="M20 26H0V8c0-1 1-2 2-2h18v20z"/><path fill="#EEE" d="M20 10h28v4H20zm0 8h28v4H20zM0 26v4h48v-4H20M0 34h48v4H0zm10-20l-.6 1.3H8l1 1-.4 1.8 1.4-.7 1.4.8-.4-1.6 1-1h-1.4M5 9l-.5 1.4H3l1 1-.3 1.8 1.4-.8 1.6.8-.5-1.7 1.2-1H5.7M15 9l.5 1.4H17l-1 1 .3 1.8-1.4-.8-1.6.8.5-1.7-1.2-1h1.5M5 23l-.5-1.4H3l1-1-.3-1.8 1.4.8 1.6-.8-.5 1.7 1.2 1H5.7M15 23l.5-1.4H17l-1-1 .3-1.8-1.4.8-1.6-.8.5 1.7-1.2 1h1.5"/></symbol>
<!-- uzbekistan --><symbol id="UZ" viewBox="0 0 48 48"><path fill="#5C6" d="M48 40c0 1-1 2-2 2H2c-1 0-2-1-2-2V30h48v10z"/><path fill="#3AD" d="M48 18H0V8c0-1 1-2 2-2h44c1 0 2 1 2 2v10z"/><path fill="#EEE" d="M0 18h48v12H0zM10 8H9c-2.2 0-4 1.8-4 4s1.8 4 4 4h1c-1.7-.6-3-2-3-4s1.3-3.4 3-4zm2 2h2v2h-2zm4 0h2v2h-2zm4 0h2v2h-2zm-8 4h2v2h-2zm4 0h2v2h-2zm4 0h2v2h-2zm4 0h2v2h-2z"/></symbol>
<!-- vanuatu --><symbol id="VU" viewBox="0 0 48 48"><path fill="#445" d="M0 14v20l16-10"/><path fill="#FC5" d="M20 22L0 10v4l16 10L0 34v4l20-12h28v-4M6 22c-1 0-2 1-2 2s1 2 2 2 2-1 2-2-1-2-2-2zm0 3c-.6 0-1-.4-1-1s.4-1 1-1 1 .4 1 1-.4 1-1 1z"/><path fill="#E56" d="M2 6C1 6 0 7 0 8v2l20 12h28V8c0-1-1-2-2-2H2z"/><path fill="#5C6" d="M2 42c-1 0-2-1-2-2v-2l20-12h28v14c0 1-1 2-2 2H2z"/></symbol>
<!-- venezuela --><symbol id="VE" viewBox="0 0 48 48"><path fill="#FC5" d="M48 18H0V8c0-1 1-2 2-2h44c1 0 2 1 2 2v10z"/><path fill="#45A" d="M0 18h48v12H0z"/><path fill="#E56" d="M48 40c0 1-1 2-2 2H2c-1 0-2-1-2-2V30h48v10z"/><path fill="#EEE" d="M26 23.3h-1.4L24 22l-.6 1.3H22l1 1-.4 1.8 1.4-.7 1.4.8-.4-1.6 1-1zm-7.7 2.1h-1.5L16 24l-.5 1.4H14l1 1-.3 1.7 1.4-.7 1.6.8-.4-1.5 1-1zm16 0h-1.5L32 24l-.5 1.4H30l1 1-.3 1.7 1.4-.7 1.6.8-.4-1.5 1-1z"/></symbol>
<!-- vietnam --><symbol id="VN" viewBox="0 0 48 48"><path fill="#E56" d="M48 40c0 1-1 2-2 2H2c-1 0-2-1-2-2V8c0-1 1-2 2-2h44c1 0 2 1 2 2v32z"/><path fill="#FC5" d="M32.4 21h-6L24 15.7 21.5 21h-6l4.4 4.5-1.7 6.4 5.6-3.4 5.5 3.2-1.5-6.5 4.4-4.5z"/></symbol>
<!-- yemen --><symbol id="YE" viewBox="0 0 48 48"><path fill="#455" d="M48 40c0 1-1 2-2 2H2c-1 0-2-1-2-2V30h48v10z"/><path fill="#EEE" d="M0 18h48v12H0z"/><path fill="#E56" d="M48 18H0V8c0-1 1-2 2-2h44c1 0 2 1 2 2v10z"/></symbol>
<!-- zambia --><symbol id="ZM" viewBox="0 0 48 48"><path fill="#064" d="M48 8c0-1-1-2-2-2H2C1 6 0 7 0 8v32c0 1 1 2 2 2h22V28h24V8z"/><path fill="#E72" d="M48 28h-8v14h6c1 0 2-1 2-2V28z"/><path fill="#455" d="M32 28h8v14h-8z"/><path fill="#E56" d="M24 28h8v14h-8z"/><path fill="#764" d="M44.6 17c.3-.7.2-1.5 0-2s-1-1-1.8-1H29.2c-.7 0-1.3.4-1.7 1-.3.5-.4 1.3 0 2l.5 1h16l.6-1z"/><path fill="#764" d="M38 22l-2 2-2-2V12c0-1 1-2 2-2s2 1 2 2v10z"/></symbol>
<!-- zimbabwe --><symbol id="ZW" viewBox="0 0 48 48"><path fill="#5C6" d="M48 40c0 1-1 2-2 2H2l4-4h42v2z"/><path fill="#FC5" d="M6 38h42v-6H12"/><path fill="#E56" d="M48 32H12l6-6h30m-30-4h30v-6H12"/><path fill="#5C6" d="M6 10h42V8c0-1-1-2-2-2H2l4 4z"/><path fill="#FC5" d="M48 16H12l-6-6h42"/><path fill="#445" d="M48 26H18l2-2-2-2h30"/><path fill="#EEE" d="M2 6C1 6 0 7 0 8v32c0 1 1 2 2 2l18-18L2 6z"/><path fill="#E56" d="M14 21.5h-4L8.6 18 7 21.5H3l2.8 3-1 4.2 3.7-2 3.7 2-1-4.3 2.8-3z"/><circle fill="#FC5" cx="8.5" cy="23.7" r="3.4"/></symbol>



</svg>