<svg xmlns="http://www.w3.org/2000/svg" xmlns:xlink="http://www.w3.org/1999/xlink" version="1.1" id="Layer_1" x="0px" y="0px" width="100px" height="100px" viewBox="0 0 100 100" enable-background="new 0 0 100 100" xml:space="preserve">
<g>
	<path d="M49.898,34.052c1.785,0,3.231-0.472,4.297-1.402c1.109-0.966,1.672-2.273,1.672-3.886c0-1.611-0.562-2.919-1.671-3.885   c-1.068-0.932-2.515-1.403-4.298-1.403c-1.685,0-3.102,0.467-4.212,1.388c-1.166,0.967-1.756,2.278-1.756,3.9   c0,1.623,0.591,2.936,1.756,3.9C46.794,33.585,48.212,34.052,49.898,34.052z" fill="#000000" />
	<polygon points="54.573,71.121 54.573,38.79 40.39,38.79 40.39,44.193 45.426,44.193 45.426,71.121 40.39,71.121 40.39,76.524    59.61,76.524 59.61,71.121  " fill="#000000" />
</g>
<path d="M50,10c22.056,0,40,17.944,40,40c0,22.056-17.944,40-40,40c-22.056,0-40-17.944-40-40C10,27.944,27.944,10,50,10 M50,5  C25.147,5,5,25.147,5,50c0,24.853,20.147,45,45,45c24.853,0,45-20.147,45-45C95,25.147,74.853,5,50,5L50,5z" fill="#000000" />
</svg>