<?xml version="1.0" encoding="utf-8"?>

<!-- License Agreement at http://iconmonstr.com/license/ -->

<!DOCTYPE svg PUBLIC "-//W3C//DTD SVG 1.1//EN" "http://www.w3.org/Graphics/SVG/1.1/DTD/svg11.dtd">
<svg version="1.1" xmlns="http://www.w3.org/2000/svg" xmlns:xlink="http://www.w3.org/1999/xlink" x="0px" y="0px"
	 width="512px" height="512px" viewBox="0 0 512 512" enable-background="new 0 0 512 512" xml:space="preserve">
<path id="note-25-icon" d="M369.162,49.667c-45.725,0-82.794,37.066-82.794,82.791s37.069,82.791,82.794,82.791
	c45.723,0,82.79-37.066,82.79-82.791S414.885,49.667,369.162,49.667z M420.043,147.501h-35.837v35.838h-27.678v-35.838h-35.837
	v-27.676h35.837V83.989h27.678v35.836h35.837V147.501z M142.703,273.048h194.023v30H142.703V273.048z M328.256,237.632H142.703v-30
	h142.373C296.911,220.839,311.588,231.153,328.256,237.632z M419.382,233.511v78.352c0,61.402-84.153,150.471-152.318,150.471
	H60.048v-412h231.806c-0.824,0.777-1.643,1.564-2.447,2.369c-10.931,10.93-19.334,23.711-24.934,37.631H100.048v332
	c118.342,0,134.344,0,166.406,0c58.859,0,35-76.092,35-76.092s77.928,25.289,77.928-37.832c0-9.807,0-34.365,0-63.621
	C393.439,243.532,406.958,239.698,419.382,233.511z M142.703,142.298h114.094c0.891,10.365,3.182,20.439,6.785,30H142.703V142.298z"
	
	fill="#cccccc"
	/>
</svg>
