<?xml version="1.0" standalone="no"?>
<!DOCTYPE svg PUBLIC "-//W3C//DTD SVG 20010904//EN"
 "http://www.w3.org/TR/2001/REC-SVG-20010904/DTD/svg10.dtd">
<svg version="1.0" xmlns="http://www.w3.org/2000/svg"
 width="512.000000pt" height="512.000000pt" viewBox="0 0 512.000000 512.000000"
 preserveAspectRatio="xMidYMid meet">
<metadata>
Created by potrace 1.11, written by Peter Selinger 2001-2013
</metadata>
<g transform="translate(0.000000,512.000000) scale(0.100000,-0.100000)"
fill="#cccccc" stroke="none">
<path d="M3740 4854 c-281 -36 -523 -150 -718 -339 -201 -193 -327 -435 -366
-706 -20 -134 -20 -224 0 -358 39 -271 165 -513 366 -706 130 -126 271 -214
438 -273 146 -51 238 -66 410 -66 171 0 262 15 410 66 240 84 470 264 612 478
69 106 97 161 136 272 52 147 67 236 67 408 0 172 -15 261 -67 408 -59 169
-146 309 -273 440 -175 182 -380 298 -625 353 -83 19 -315 32 -390 23z m350
-769 l0 -265 268 -2 267 -3 3 -202 2 -203 -267 -2 -268 -3 -3 -268 -2 -267
-203 2 -202 3 -3 268 -2 267 -265 0 -265 0 0 205 0 205 265 0 265 0 0 265 0
265 205 0 205 0 0 -265z"/>
<path d="M60 2240 l0 -1820 2060 0 2060 0 0 951 0 951 -22 -5 c-103 -26 -299
-40 -400 -29 l-78 8 0 -693 0 -693 -1560 0 -1560 0 0 1095 0 1095 1031 0 c978
0 1031 1 1024 18 -108 266 -129 566 -59 841 13 53 24 97 24 98 0 2 -567 3
-1260 3 l-1260 0 0 -1820z m760 1360 l0 -130 -130 0 -130 0 0 130 0 130 130 0
130 0 0 -130z m458 -2 l3 -128 -131 0 -130 0 0 130 0 131 128 -3 127 -3 3
-127z m462 2 l0 -130 -130 0 -130 0 0 130 0 130 130 0 130 0 0 -130z"/>
</g>
</svg>
