<svg xmlns="http://www.w3.org/2000/svg" xmlns:xlink="http://www.w3.org/1999/xlink" width="150" zoomAndPan="magnify" viewBox="0 0 112.5 112.499997" height="150" preserveAspectRatio="xMidYMid meet" version="1.0"><path fill="#ffffff" d="M 17.710938 53.042969 C 17.621094 53.152344 17.554688 53.285156 17.46875 53.414062 C 17.402344 53.546875 17.335938 53.679688 17.269531 53.832031 C 17.226562 53.898438 17.183594 53.988281 17.160156 54.050781 C 17.136719 54.097656 17.136719 54.140625 17.117188 54.183594 C 17.050781 54.339844 17.007812 54.492188 16.964844 54.644531 C 16.917969 54.777344 16.898438 54.886719 16.851562 55.019531 C 16.808594 55.171875 16.808594 55.328125 16.765625 55.457031 C 16.742188 55.589844 16.722656 55.722656 16.722656 55.832031 C 16.699219 55.984375 16.722656 56.140625 16.722656 56.292969 C 16.722656 56.425781 16.722656 56.535156 16.722656 56.667969 C 16.722656 56.820312 16.765625 56.976562 16.789062 57.152344 C 16.808594 57.261719 16.832031 57.390625 16.851562 57.503906 C 16.875 57.65625 16.941406 57.808594 16.984375 57.964844 C 17.027344 58.074219 17.050781 58.207031 17.09375 58.316406 C 17.117188 58.359375 17.117188 58.425781 17.140625 58.46875 C 17.183594 58.558594 17.226562 58.644531 17.269531 58.734375 C 17.335938 58.84375 17.378906 58.976562 17.445312 59.085938 C 17.511719 59.214844 17.601562 59.347656 17.6875 59.480469 C 17.753906 59.589844 17.820312 59.679688 17.90625 59.789062 C 18.019531 59.917969 18.128906 60.050781 18.238281 60.160156 C 18.28125 60.226562 18.324219 60.269531 18.390625 60.335938 L 45.484375 87.386719 C 47.746094 89.648438 51.394531 89.648438 53.65625 87.386719 C 55.921875 85.121094 55.921875 81.472656 53.65625 79.210938 L 36.453125 62.027344 L 89.976562 62.027344 C 91.976562 62.027344 93.734375 61.019531 94.769531 59.480469 C 95.382812 58.558594 95.757812 57.4375 95.757812 56.25 C 95.757812 54.644531 95.097656 53.21875 94.066406 52.164062 C 93.011719 51.109375 91.582031 50.472656 89.976562 50.472656 L 36.453125 50.472656 L 53.636719 33.289062 C 55.898438 31.023438 55.898438 27.378906 53.636719 25.113281 C 52.515625 23.992188 51.019531 23.421875 49.546875 23.421875 C 48.074219 23.421875 46.582031 23.992188 45.460938 25.113281 L 18.414062 52.164062 C 18.347656 52.230469 18.304688 52.292969 18.257812 52.339844 C 18.148438 52.449219 18.039062 52.582031 17.953125 52.691406 C 17.863281 52.820312 17.796875 52.933594 17.710938 53.042969 Z M 17.710938 53.042969 " fill-opacity="1" fill-rule="nonzero"/></svg>