<svg xmlns="http://www.w3.org/2000/svg" xmlns:xlink="http://www.w3.org/1999/xlink" width="150" zoomAndPan="magnify" viewBox="0 0 112.5 112.499997" height="150" preserveAspectRatio="xMidYMid meet" version="1.0"><path fill="#ffffff" d="M 94.789062 59.457031 C 94.878906 59.347656 94.945312 59.214844 95.03125 59.085938 C 95.097656 58.953125 95.164062 58.820312 95.230469 58.667969 C 95.273438 58.601562 95.316406 58.511719 95.339844 58.445312 C 95.359375 58.402344 95.359375 58.359375 95.382812 58.316406 C 95.449219 58.160156 95.492188 58.007812 95.535156 57.855469 C 95.582031 57.722656 95.601562 57.613281 95.648438 57.480469 C 95.691406 57.328125 95.691406 57.171875 95.734375 57.039062 C 95.757812 56.910156 95.777344 56.777344 95.777344 56.667969 C 95.800781 56.511719 95.777344 56.359375 95.777344 56.207031 C 95.777344 56.074219 95.777344 55.964844 95.777344 55.832031 C 95.777344 55.679688 95.734375 55.523438 95.710938 55.347656 C 95.691406 55.238281 95.667969 55.105469 95.648438 54.996094 C 95.625 54.84375 95.558594 54.691406 95.515625 54.535156 C 95.472656 54.425781 95.449219 54.292969 95.40625 54.183594 C 95.382812 54.140625 95.382812 54.074219 95.359375 54.03125 C 95.316406 53.941406 95.273438 53.855469 95.230469 53.765625 C 95.164062 53.65625 95.121094 53.523438 95.054688 53.414062 C 94.988281 53.285156 94.898438 53.152344 94.8125 53.019531 C 94.746094 52.910156 94.679688 52.820312 94.59375 52.710938 C 94.480469 52.582031 94.371094 52.449219 94.261719 52.339844 C 94.21875 52.273438 94.175781 52.230469 94.109375 52.164062 L 67.015625 25.113281 C 64.753906 22.851562 61.105469 22.851562 58.84375 25.113281 C 56.578125 27.378906 56.578125 31.023438 58.84375 33.289062 L 76.046875 50.472656 L 22.523438 50.472656 C 20.523438 50.472656 18.765625 51.480469 17.730469 53.019531 C 17.117188 53.941406 16.742188 55.0625 16.742188 56.25 C 16.742188 57.855469 17.402344 59.28125 18.433594 60.335938 C 19.488281 61.390625 20.917969 62.027344 22.523438 62.027344 L 76.046875 62.027344 L 58.863281 79.210938 C 56.601562 81.472656 56.601562 85.121094 58.863281 87.386719 C 59.984375 88.503906 61.480469 89.078125 62.953125 89.078125 C 64.425781 89.078125 65.917969 88.503906 67.039062 87.386719 L 94.085938 60.316406 C 94.152344 60.25 94.195312 60.183594 94.242188 60.140625 C 94.351562 60.027344 94.460938 59.898438 94.546875 59.789062 C 94.636719 59.675781 94.703125 59.566406 94.789062 59.457031 Z M 94.789062 59.457031 " fill-opacity="1" fill-rule="nonzero"/></svg>