<?xml version="1.0" encoding="utf-8"?>
<!-- Generator: Adobe Illustrator 18.0.0, SVG Export Plug-In . SVG Version: 6.00 Build 0)  -->
<!DOCTYPE svg PUBLIC "-//W3C//DTD SVG 1.1//EN" "http://www.w3.org/Graphics/SVG/1.1/DTD/svg11.dtd">
<svg version="1.1" id="Layer_1" xmlns="http://www.w3.org/2000/svg" xmlns:xlink="http://www.w3.org/1999/xlink" x="0px" y="0px"
	 viewBox="0 0 512 512" enable-background="new 0 0 512 512" xml:space="preserve">
<path fill="#BCBEC0" d="M431.4,270.6c0.4-0.5,0.7-1.1,1.1-1.7c0.3-0.6,0.6-1.2,0.9-1.9c0.2-0.3,0.4-0.7,0.5-1
	c0.1-0.2,0.1-0.4,0.2-0.6c0.3-0.7,0.5-1.4,0.7-2.1c0.2-0.6,0.3-1.1,0.5-1.7c0.2-0.7,0.2-1.4,0.4-2c0.1-0.6,0.2-1.2,0.2-1.7
	c0.1-0.7,0-1.4,0-2.1c0-0.6,0-1.1,0-1.7c0-0.7-0.2-1.4-0.3-2.2c-0.1-0.5-0.2-1.1-0.3-1.6c-0.1-0.7-0.4-1.4-0.6-2.1
	c-0.2-0.5-0.3-1.1-0.5-1.6c-0.1-0.2-0.1-0.5-0.2-0.7c-0.2-0.4-0.4-0.8-0.6-1.2c-0.3-0.5-0.5-1.1-0.8-1.6c-0.3-0.6-0.7-1.2-1.1-1.8
	c-0.3-0.5-0.6-0.9-1-1.4c-0.5-0.6-1-1.2-1.5-1.7c-0.2-0.3-0.4-0.5-0.7-0.8L305,114.3c-10.3-10.3-26.9-10.3-37.2,0
	c-10.3,10.3-10.3,26.9,0,37.2l78.3,78.2H102.5c-9.1,0-17.1,4.6-21.8,11.6c-2.8,4.2-4.5,9.3-4.5,14.7c0,7.3,3,13.8,7.7,18.6
	c4.8,4.8,11.3,7.7,18.6,7.7v0h243.6l-78.2,78.2c-10.3,10.3-10.3,26.9,0,37.2c5.1,5.1,11.9,7.7,18.6,7.7c6.7,0,13.5-2.6,18.6-7.7
	l123.1-123.2c0.3-0.3,0.5-0.6,0.7-0.8c0.5-0.5,1-1.1,1.4-1.6C430.7,271.6,431,271.1,431.4,270.6z"/>
</svg>
