<?xml version="1.0" encoding="utf-8"?>

<!-- The icon can be used freely in both personal and commercial projects with no attribution required, but always appreciated. 
You may NOT sub-license, resell, rent, redistribute or otherwise transfer the icon without express written permission from iconmonstr.com -->

<!DOCTYPE svg PUBLIC "-//W3C//DTD SVG 1.1//EN" "http://www.w3.org/Graphics/SVG/1.1/DTD/svg11.dtd">
<svg version="1.1" xmlns="http://www.w3.org/2000/svg" xmlns:xlink="http://www.w3.org/1999/xlink" x="0px" y="0px"
	 width="512px" height="512px" viewBox="0 0 512 512" enable-background="new 0 0 512 512" xml:space="preserve">
<path fill="#666" id="sound-wave-5-icon" d="M121.57,355.841c-5.332-15.4-6.375-27.855-27.125-48.989c-58.639-59.723-60.6-149.202,8.121-189.452
	c58.898-34.495,157.714,9.627,118.367,119.34l-28.238-10.127c29.053-81.013-38.1-104.916-74.967-83.326
	c-52.797,30.924-45.227,98.395-1.877,142.547c25.482,25.954,28.93,43.438,34.066,60.192c17.062,55.649,79.562,23.649,46.48-20.101
	l26.25-14.75C274.657,391.553,155.564,454.046,121.57,355.841z M162.466,237.156c14.154-14.997,20.312-32.709,16.895-48.592
	c-2.494-11.586-10.049-20.752-20.732-25.148c-11.402-4.692-22.828-4.182-33.045,1.479c-12.947,7.174-22.531,22.35-25.635,40.596
	l20.703,3.521c2.012-11.834,7.803-21.7,15.109-25.748c4.562-2.528,9.43-2.669,14.875-0.428c5.451,2.243,7.465,6.756,8.193,10.146
	c1.914,8.89-2.436,20.015-11.635,29.761c-13.367,14.162-17.379,31.819-10.73,47.231c6.969,16.163,22.684,29.37,40.016,20.203
	C194.814,279.01,191.291,244.343,162.466,237.156z M313.472,338.594l18.498-112.711l18.891,81.125
	c1.877,8.314,13.422,9.253,16.553,1.251l17.119-43.745l15.979,37.233c2.652,6.171,11.016,7.129,14.988,1.699l14.537-19.767h31.246
	v-17.364h-35.736c-2.762,0-5.381,1.33-7.01,3.559l-8.07,11.039l-18.328-42.698c-3.059-7.127-13.23-6.975-16.062,0.261
	l-14.512,37.088l-22.357-99.042c-2.117-9.367-15.518-8.842-17.039,0.518L303.62,291.453l-18.963-70.447
	c-2.117-8.415-13.992-8.892-16.682-0.552l-14.109,45.857h-36.85v17.367H260.7c3.133,0,6.533-2.538,7.422-5.543l7.023-23.733
	l21.336,84.912C298.786,348.477,311.962,347.87,313.472,338.594z"/>
</svg>
