<?xml version="1.0" standalone="no"?>
<!DOCTYPE svg PUBLIC "-//W3C//DTD SVG 20010904//EN"
 "http://www.w3.org/TR/2001/REC-SVG-20010904/DTD/svg10.dtd">
<svg version="1.0" xmlns="http://www.w3.org/2000/svg"
 width="512.000000pt" height="512.000000pt" viewBox="0 0 512.000000 512.000000"
 preserveAspectRatio="xMidYMid meet">
<metadata>
Created by potrace 1.11, written by Peter Selinger 2001-2013
</metadata>
<g transform="translate(0.000000,512.000000) scale(0.100000,-0.100000)"
fill="#000000" stroke="none">
<path d="M3620 4363 c-52 -19 -162 -61 -245 -93 -82 -31 -180 -68 -217 -80
-39 -14 -68 -30 -68 -37 0 -8 27 -84 59 -171 33 -86 123 -328 201 -537 78
-209 161 -432 185 -495 24 -63 80 -214 125 -335 44 -121 105 -283 135 -360 29
-77 92 -243 139 -370 78 -212 170 -459 313 -837 30 -82 57 -148 60 -148 2 0
118 43 256 95 139 53 282 107 319 121 l67 25 -34 92 c-18 51 -56 153 -85 227
-28 74 -75 200 -105 280 -29 80 -106 285 -170 455 -64 171 -132 351 -150 400
-18 50 -53 144 -78 210 -25 66 -89 237 -142 380 -53 143 -107 287 -119 320
-13 33 -70 184 -126 335 -155 420 -207 554 -217 556 -4 2 -51 -13 -103 -33z
m123 -500 c20 -58 36 -107 35 -108 -4 -4 -347 -135 -352 -135 -5 0 -9 11 -52
127 l-33 91 42 16 c23 8 101 37 172 65 72 28 135 50 140 51 6 0 27 -48 48
-107z m864 -2309 c41 -104 41 -105 20 -113 -12 -5 -94 -36 -181 -70 -87 -34
-160 -60 -161 -59 -8 12 -75 197 -75 209 0 10 43 30 133 63 72 26 146 53 162
61 55 25 58 22 102 -91z"/>
<path d="M240 2640 l0 -1740 340 0 340 0 0 1740 0 1740 -340 0 -340 0 0 -1740z
m510 1235 l0 -115 -195 0 -195 0 0 115 0 115 195 0 195 0 0 -115z m-2 -2462
l-3 -118 -192 -3 -193 -2 0 120 0 120 195 0 196 0 -3 -117z"/>
<path d="M2312 2580 l3 -1660 343 -3 342 -2 0 1663 0 1662 -345 0 -345 0 2
-1660z m538 690 l0 -180 -195 0 -195 0 0 180 0 180 195 0 195 0 0 -180z m5
-1860 l0 -115 -192 -3 -193 -2 0 120 0 120 193 -2 192 -3 0 -115z"/>
<path d="M1160 2435 l0 -1545 445 0 445 0 0 1545 0 1545 -445 0 -445 0 0
-1545z m765 1000 l0 -180 -318 0 -318 0 0 178 c0 97 1 179 1 182 0 3 143 4
318 3 l317 -3 0 -180z"/>
</g>
</svg>
