<?xml version="1.0" encoding="utf-8"?>
<!DOCTYPE svg PUBLIC "-//W3C//DTD SVG 1.0//EN" "http://www.w3.org/TR/2001/REC-SVG-20010904/DTD/svg10.dtd">
<svg version="1.0" id="Layer_1" xmlns="http://www.w3.org/2000/svg" xmlns:xlink="http://www.w3.org/1999/xlink" xml:space="preserve" width="74.9" height="74.9">
<g>
<g id="pr">
	<path d="M 46.5 23.75 q -10.5 -15 -35 -23.5 q 23 34 -8.25 64.5 q 30 -10 43.25 -41" stroke="none" stroke-width=".25" fill="#d1eaf1" opacity="1" />
	<path d="M 63.5 34.75 q -10 -20 -27.5 -31 q 0 44 -32.75 61 q  39 -2.5 60.25 -30" stroke="none" stroke-width=".25" fill="#a5cbe2" opacity=".75" />
	<path d="M 72 40.75 q -4 -14 -15 -29 q -8.5 47 -53.75 53 q 52 -2 68.75 -24" stroke="none" stroke-width=".25" fill="#3f87c1" opacity=".85" />
	<path d="M 75 59.75 q 0 -5.75 -1.5 -10.5 q -22 15 -70.25 15.5 q 30 0.5 71.75 -5" stroke="none" stroke-width=".25" fill="#2468b9" />
</g>
<g id="Bible">
	<rect width="69" height="3.25" x="6.1" y="67.65" fill="#6c6c6c" opacity="1" />
	<rect width="62.9" height="4" x="0" y="70.9" fill="#6c6c6c" opacity="1" />
	<rect width="50" height="2" x="10.1" y="69.65" fill="#6c6c6c" opacity="1" />
	<ellipse cx="65.6" cy="70.65" rx="9.5" ry="3" style="fill:#6c6c6c" />
	<rect x="0" y="67.65" rx="20" ry="20" width="12" height="7" fill="#6c6c6c"  opacity="1" />
	<circle width="2.5" height="2" cx="59.85" cy="71.15" r="1.5" fill="#a1a1a1"  opacity="1" />
	<rect width="19.5" height="2" x="35.85" y="70.4" fill="#a1a1a1" opacity="1" />
	<path id="lineAB" d="M 62.35 74.15 l 5 -5" stroke="#6c6c6c" stroke-width="2" opacity="1" />
	
</g>
</g>
</svg>