<?xml version="1.0" encoding="iso-8859-1"?>
<!-- Generator: Adobe Illustrator 16.0.0, SVG Export Plug-In . SVG Version: 6.00 Build 0)  -->
<!DOCTYPE svg PUBLIC "-//W3C//DTD SVG 1.1//EN" "http://www.w3.org/Graphics/SVG/1.1/DTD/svg11.dtd">
<svg version="1.1" id="Capa_1" xmlns="http://www.w3.org/2000/svg" xmlns:xlink="http://www.w3.org/1999/xlink" x="0px" y="0px"
	 width="49px" height="49px" viewBox="0 0 49 49" style="enable-background:new 0 0 49 49;" xml:space="preserve">
<g>
	<path d="M14.397,14.122h9.1v9.374H13.365C13.424,20.153,13.787,16.99,14.397,14.122z M14.397,34.878h9.1v-9.375H13.365
		C13.424,28.848,13.787,32.009,14.397,34.878z M23.496,12.113V0.06c-3.683,0.723-6.842,5.383-8.622,12.053H23.496z M36.693,34.878
		h10.033c1.342-2.869,2.14-6.03,2.271-9.375H37.645C37.588,28.852,37.268,32.005,36.693,34.878z M36.693,14.122
		c0.572,2.871,0.895,6.027,0.951,9.374H49c-0.137-3.343-0.932-6.506-2.271-9.374H36.693z M36.238,12.113h9.435
		c-3.276-5.59-8.694-9.753-15.136-11.384C33.012,3.182,34.999,7.146,36.238,12.113z M23.496,48.939V36.887h-8.622
		C16.654,43.555,19.813,48.214,23.496,48.939z M34.125,12.113C32.348,5.445,29.188,0.785,25.504,0.06v12.053H34.125z M35.637,25.503
		H25.504v9.375h9.1C35.213,32.009,35.577,28.848,35.637,25.503z M0,25.503c0.135,3.345,0.932,6.506,2.273,9.375h10.031
		c-0.572-2.873-0.895-6.026-0.949-9.375H0z M12.762,36.887H3.328c3.277,5.59,8.694,9.754,15.137,11.385
		C15.99,45.818,14.002,41.854,12.762,36.887z M36.238,36.887c-1.239,4.967-3.225,8.932-5.701,11.385
		c6.441-1.631,11.855-5.797,15.136-11.385H36.238z M12.762,12.113c1.24-4.967,3.225-8.931,5.702-11.384
		C12.022,2.359,6.607,6.524,3.328,12.113H12.762z M34.604,14.122h-9.1v9.374h10.133C35.577,20.153,35.213,16.99,34.604,14.122z
		 M2.273,14.122C0.932,16.99,0.134,20.153,0,23.496h11.355c0.055-3.347,0.377-6.503,0.949-9.374H2.273z M25.504,36.887V48.94
		c3.684-0.724,6.844-5.383,8.621-12.053H25.504z"/>
</g>
<g>
</g>
<g>
</g>
<g>
</g>
<g>
</g>
<g>
</g>
<g>
</g>
<g>
</g>
<g>
</g>
<g>
</g>
<g>
</g>
<g>
</g>
<g>
</g>
<g>
</g>
<g>
</g>
<g>
</g>
</svg>
