<?xml version="1.0"?>
<svg version="1.1" xmlns="http://www.w3.org/2000/svg" xmlns:xlink="http://www.w3.org/1999/xlink" width="49" height="49">
    <desc iVinci="yes" version="4.6" gridStep="20" showGrid="no" snapToGrid="no" codePlatform="0"/>
    <g id="Layer1" name="Layer 1" opacity="1">
        <g id="Shape1">
            <desc shapeID="1" type="0" basicInfo-basicType="0" basicInfo-roundedRectRadius="12" basicInfo-polygonSides="6" basicInfo-starPoints="5" bounding="rect(-24.5,-24.44,49,48.88)" text="" font-familyName="" font-pixelSize="20" font-bold="0" font-underline="0" font-alignment="1" strokeStyle="0" markerStart="0" markerEnd="0" shadowEnabled="0" shadowOffsetX="0" shadowOffsetY="2" shadowBlur="4" shadowOpacity="160" blurEnabled="0" blurRadius="4" transform="matrix(1,0,0,1,24.5,24.5)" pers-center="0,0" pers-size="0,0" pers-start="0,0" pers-end="0,0" locked="0" mesh="" flag=""/>
            <path id="shapePath1" d="M14.397,14.122 L23.497,14.122 L23.497,23.496 L13.365,23.496 C13.424,20.153 13.787,16.99 14.397,14.122 M14.397,34.878 L23.497,34.878 L23.497,25.503 L13.365,25.503 C13.424,28.848 13.787,32.009 14.397,34.878 M23.496,12.113 L23.496,0.0599995 C19.813,0.783001 16.654,5.443 14.874,12.113 L23.496,12.113 M36.693,34.878 L46.726,34.878 C48.068,32.009 48.866,28.848 48.997,25.503 L37.645,25.503 C37.588,28.852 37.268,32.005 36.693,34.878 M36.693,14.122 C37.265,16.993 37.588,20.149 37.644,23.496 L49,23.496 C48.863,20.153 48.068,16.99 46.729,14.122 L36.693,14.122 M36.238,12.113 L45.673,12.113 C42.397,6.523 36.979,2.36 30.537,0.729 C33.012,3.182 34.999,7.146 36.238,12.113 M23.496,48.939 L23.496,36.887 L14.874,36.887 C16.654,43.555 19.813,48.214 23.496,48.939 M34.125,12.113 C32.348,5.445 29.188,0.785 25.504,0.0599995 L25.504,12.113 L34.125,12.113 M35.637,25.503 L25.504,25.503 L25.504,34.878 L34.604,34.878 C35.213,32.009 35.577,28.848 35.637,25.503 M0,25.503 C0.135,28.848 0.931999,32.009 2.273,34.878 L12.304,34.878 C11.732,32.005 11.409,28.852 11.355,25.503 L0,25.503 M12.762,36.887 L3.328,36.887 C6.605,42.477 12.022,46.641 18.465,48.272 C15.99,45.818 14.002,41.854 12.762,36.887 M36.238,36.887 C34.999,41.854 33.013,45.819 30.537,48.272 C36.978,46.641 42.392,42.475 45.673,36.887 L36.238,36.887 M12.762,12.113 C14.002,7.146 15.987,3.182 18.464,0.729 C12.022,2.359 6.607,6.524 3.328,12.113 L12.762,12.113 M34.604,14.122 L25.504,14.122 L25.504,23.496 L35.637,23.496 C35.577,20.153 35.213,16.99 34.604,14.122 M2.273,14.122 C0.931999,16.99 0.134001,20.153 0,23.496 L11.355,23.496 C11.41,20.149 11.732,16.993 12.304,14.122 L2.273,14.122 M25.504,36.887 L25.504,48.94 C29.188,48.216 32.348,43.557 34.125,36.887 L25.504,36.887 Z" style="stroke:none;fill-rule:nonzero;fill:#ededed;fill-opacity:1;"/>
        </g>
    </g>
</svg>
