<svg xmlns="http://www.w3.org/2000/svg" xmlns:xlink="http://www.w3.org/1999/xlink" version="1.1" x="0px" y="0px" width="100px" height="100px" viewBox="0 0 100 100" enable-background="new 0 0 100 100" xml:space="preserve">
<g id="Captions">
</g>
<g id="Your_Icon">
	<g>
		<path d="M75,12.5H25c-12.5,0-18.75,6.25-18.75,18.75V50c0,12.5,6.25,18.75,18.75,18.75c0,0,6.254-0.223,12.5,0    C48,69.125,51.714,71.977,56.25,75C75,87.5,75,87.5,75,87.5V68.75c12.5,0,18.75-6.25,18.75-18.75V31.25    C93.75,18.75,87.5,12.5,75,12.5z M83.75,50c0,6.951-1.799,8.75-8.75,8.75H65v10.064l-3.869-2.581    c-4.661-3.128-10.463-7.02-23.274-7.478c-1.96-0.069-4.104-0.105-6.373-0.105c-3.314,0-5.916,0.076-6.641,0.1    c-6.82-0.027-8.593-1.852-8.593-8.75V31.25c0-6.951,1.799-8.75,8.75-8.75h50c6.951,0,8.75,1.799,8.75,8.75V50z" fill="#000000" />
	</g>
</g>
</svg>