<?xml version="1.0" standalone="no"?>
<!DOCTYPE svg PUBLIC "-//W3C//DTD SVG 20010904//EN"
 "http://www.w3.org/TR/2001/REC-SVG-20010904/DTD/svg10.dtd">
<svg version="1.0" xmlns="http://www.w3.org/2000/svg"
 width="512.000000pt" height="512.000000pt" viewBox="0 0 512.000000 512.000000"
 preserveAspectRatio="xMidYMid meet">
<metadata>
Created by potrace 1.11, written by Peter Selinger 2001-2013
</metadata>
<g transform="translate(0.000000,512.000000) scale(0.100000,-0.100000)"
fill="#000000" stroke="none">
<path d="M2716 4472 c-8 -14 -121 -330 -226 -632 -54 -157 -121 -350 -150
-430 -52 -145 -98 -276 -508 -1440 -121 -344 -233 -660 -248 -704 -52 -144
-131 -204 -284 -215 l-85 -6 -3 -158 -3 -157 676 0 676 0 -3 158 -3 157 -87 5
c-79 5 -90 8 -118 35 -17 16 -36 46 -42 67 -10 35 -5 54 77 295 48 142 92 264
98 271 7 9 145 12 651 10 l641 -3 87 -250 c50 -144 87 -267 87 -290 1 -52 -30
-102 -74 -121 -19 -8 -66 -14 -105 -14 l-70 0 0 -160 0 -160 670 0 670 0 0
160 0 160 -63 0 c-104 0 -163 23 -227 89 l-55 56 -94 270 c-51 149 -142 407
-201 575 -60 168 -205 580 -323 915 -292 829 -447 1267 -498 1408 l-42 117
-408 0 c-224 0 -410 -4 -413 -8z m635 -1452 c167 -503 212 -650 201 -655 -21
-8 -862 -6 -862 3 0 16 433 1302 439 1302 3 0 103 -292 222 -650z"/>
<path d="M905 2828 c-2 -7 -39 -110 -81 -228 -42 -118 -107 -303 -144 -410
-37 -107 -107 -305 -155 -440 -48 -135 -126 -358 -175 -496 -48 -138 -92 -260
-99 -272 -20 -38 -73 -67 -131 -72 l-55 -5 -3 -87 -3 -88 361 0 360 0 0 90 0
90 -49 0 c-42 0 -53 4 -70 26 -12 15 -21 34 -21 43 0 9 24 88 53 176 l54 160
234 3 234 2 54 153 c30 83 57 158 59 165 3 9 -48 12 -233 12 l-236 0 6 23 c30
102 270 807 274 807 3 0 58 -155 121 -345 101 -303 130 -378 130 -333 0 6 38
120 85 253 l86 241 -71 199 c-39 110 -82 233 -96 273 l-26 72 -229 0 c-175 0
-231 -3 -234 -12z"/>
</g>
</svg>
