<?xml version="1.0" encoding="utf-8"?>
<!DOCTYPE svg PUBLIC "-//W3C//DTD SVG 1.1//EN" "http://www.w3.org/Graphics/SVG/1.1/DTD/svg11.dtd">
<svg version="1.1" id="Layer_1" xmlns="http://www.w3.org/2000/svg" xmlns:xlink="http://www.w3.org/1999/xlink" x="0px" y="0px" viewBox="0 0 512 512" enable-background="new 0 0 512 512" xml:space="preserve">
<g>
	<path fill="#666" fill-rule="evenodd" clip-rule="evenodd" d="M230.4,224.6c4.3-11-1.2-16.6-6.1-16.6
		c-22.7,0-52.2,53.4-63.2,53.4c-4.3,0-8-4.3-8-8c0-11,27-36.8,35-44.8c24.5-23.3,56.4-41.1,92-41.1c26.4,0,54.6,15.9,32.5,75.5
		l-44.2,119.6c-3.7,9.2-10.4,24.6-10.4,34.4c0,4.3,2.4,8.6,7.3,8.6c18.4,0,52.2-52.2,60.7-52.2c3.1,0,7.4,3.7,7.4,9.2
		c0,17.8-71.8,93.9-133.7,93.9c-22.1,0-37.4-10.4-37.4-33.7c0-29.4,20.9-79.8,25.2-90.2L230.4,224.6z M263.5,103.7
		c0-27,23.3-49.1,50.3-49.1c24.6,0,42.3,16.6,42.3,41.7c0,28.2-23.3,49.1-50.9,49.1C280.1,145.5,263.5,128.9,263.5,103.7"/>
</g>
</svg>
