<?xml version="1.0" encoding="iso-8859-1"?>
<!-- Generator: Adobe Illustrator 18.1.1, SVG Export Plug-In . SVG Version: 6.00 Build 0)  -->
<svg version="1.1" id="Capa_1" xmlns="http://www.w3.org/2000/svg" xmlns:xlink="http://www.w3.org/1999/xlink" x="0px" y="0px"
	 viewBox="0 0 16.087 16.087" style="enable-background:new 0 0 16.087 16.087;" xml:space="preserve">
<g>
	<g>
		<path style="fill:#030104;" d="M6.5,3.478c-3.59,0-6.5,2.238-6.5,5c0,1.354,0.701,2.585,1.839,3.485
			c-0.066,0.918-0.287,2.041-0.927,2.646c1.274,0,2.576-0.798,3.399-1.422c0.684,0.188,1.42,0.291,2.189,0.291
			c3.59,0,6.5-2.237,6.5-5C13,5.716,10.09,3.478,6.5,3.478z"/>
		<path style="fill:#030104;" d="M15.14,8.965C15.687,8.234,16,7.384,16,6.478c0-2.762-2.91-5-6.5-5
			c-1.58,0-3.028,0.434-4.154,1.154C5.876,2.532,6.43,2.478,7,2.478c3.866,0,7,2.463,7,5.5c0,1.197-0.485,2.306-1.312,3.207
			c0.821,0.624,2.125,1.424,3.399,1.424C15.181,11.749,15.116,9.843,15.14,8.965z"/>
	</g>
</g>
<g>
</g>
<g>
</g>
<g>
</g>
<g>
</g>
<g>
</g>
<g>
</g>
<g>
</g>
<g>
</g>
<g>
</g>
<g>
</g>
<g>
</g>
<g>
</g>
<g>
</g>
<g>
</g>
<g>
</g>
</svg>
