<?xml version="1.0" encoding="utf-8"?>


<!-- The icon can be used freely in both personal and commercial projects with no attribution required, but always appreciated. 
You may NOT sub-license, resell, rent, redistribute or otherwise transfer the icon without express written permission from iconmonstr.com -->


<!DOCTYPE svg PUBLIC "-//W3C//DTD SVG 1.1//EN" "http://www.w3.org/Graphics/SVG/1.1/DTD/svg11.dtd">

<svg version="1.1" xmlns="http://www.w3.org/2000/svg" xmlns:xlink="http://www.w3.org/1999/xlink" x="0px" y="0px"

	 width="512px" height="512px" viewBox="0 0 512 512" enable-background="new 0 0 512 512" xml:space="preserve">

<path id="link-2-icon" d="M342.416,169.584c10.014,10.014,10.014,26.251-0.001,36.266L205.846,342.42

	c-10.014,10.015-26.251,10.014-36.265-0.001l0,0c-10.016-10.014-10.016-26.251-0.001-36.265l136.569-136.57

	C316.163,159.57,332.4,159.57,342.416,169.584L342.416,169.584z M185.541,399.377c-20.103,20.103-52.813,20.103-72.917,0

	c-20.103-20.104-20.103-52.814,0-72.917l96.791-96.681c-32.479-7.885-68.169,0.853-93.53,26.214L79.02,292.857

	c-38.693,38.693-38.693,101.429,0,140.123c38.694,38.693,101.43,38.693,140.123,0l36.864-36.864

	c25.357-25.358,34.095-61.042,26.216-93.517L185.541,399.377z M292.856,79.02l-36.862,36.863

	c-25.362,25.362-34.154,60.996-26.27,93.476l96.735-96.736c20.104-20.103,52.812-20.103,72.916,0

	c20.104,20.103,20.104,52.812,0.001,72.916l-96.73,96.73c32.476,7.88,68.111-0.904,93.47-26.264l36.864-36.864

	c38.692-38.693,38.692-101.428-0.001-140.122C394.285,40.326,331.551,40.326,292.856,79.02z"/>

</svg>

