<svg xmlns="http://www.w3.org/2000/svg" xmlns:xlink="http://www.w3.org/1999/xlink" width="300" zoomAndPan="magnify" viewBox="0 0 224.87999 44.999999" height="60" preserveAspectRatio="xMidYMid meet" version="1.0"><defs><g/><clipPath id="66f51f5a4a"><path d="M 219 12 L 224.761719 12 L 224.761719 33 L 219 33 Z M 219 12 " clip-rule="nonzero"/></clipPath></defs><g fill="#3f1918" fill-opacity="1"><g transform="translate(0.0421604, 32.37193)"><g><path d="M 16.34375 -18.921875 L 13.765625 -15.8125 C 13.546875 -16.488281 13.253906 -17.132812 12.890625 -17.75 C 12.535156 -18.363281 12.113281 -18.898438 11.625 -19.359375 C 11.132812 -19.816406 10.578125 -20.179688 9.953125 -20.453125 C 9.328125 -20.734375 8.628906 -20.875 7.859375 -20.875 C 7.304688 -20.875 6.796875 -20.773438 6.328125 -20.578125 C 5.859375 -20.378906 5.445312 -20.101562 5.09375 -19.75 C 4.738281 -19.394531 4.457031 -18.976562 4.25 -18.5 C 4.050781 -18.019531 3.953125 -17.503906 3.953125 -16.953125 C 3.953125 -16.378906 4.0625 -15.835938 4.28125 -15.328125 C 4.5 -14.828125 4.785156 -14.375 5.140625 -13.96875 C 5.492188 -13.570312 5.90625 -13.222656 6.375 -12.921875 C 6.84375 -12.628906 7.328125 -12.398438 7.828125 -12.234375 C 8.328125 -12.054688 8.851562 -11.859375 9.40625 -11.640625 C 9.957031 -11.429688 10.5 -11.179688 11.03125 -10.890625 C 11.5625 -10.609375 12.066406 -10.289062 12.546875 -9.9375 C 13.035156 -9.582031 13.460938 -9.1875 13.828125 -8.75 C 14.203125 -8.3125 14.492188 -7.820312 14.703125 -7.28125 C 14.921875 -6.75 15.03125 -6.164062 15.03125 -5.53125 C 15.03125 -4.601562 14.828125 -3.773438 14.421875 -3.046875 C 14.015625 -2.316406 13.484375 -1.695312 12.828125 -1.1875 C 12.171875 -0.6875 11.421875 -0.300781 10.578125 -0.03125 C 9.734375 0.226562 8.878906 0.359375 8.015625 0.359375 C 7.421875 0.359375 6.816406 0.269531 6.203125 0.09375 C 5.597656 -0.0820312 5.015625 -0.320312 4.453125 -0.625 C 3.898438 -0.925781 3.378906 -1.273438 2.890625 -1.671875 C 2.410156 -2.066406 1.988281 -2.5 1.625 -2.96875 L 4.109375 -5.8125 C 4.265625 -5.320312 4.535156 -4.800781 4.921875 -4.25 C 5.304688 -3.695312 5.753906 -3.1875 6.265625 -2.71875 C 6.773438 -2.25 7.320312 -1.859375 7.90625 -1.546875 C 8.5 -1.234375 9.070312 -1.078125 9.625 -1.078125 C 9.9375 -1.078125 10.257812 -1.15625 10.59375 -1.3125 C 10.9375 -1.476562 11.25 -1.691406 11.53125 -1.953125 C 11.8125 -2.210938 12.046875 -2.492188 12.234375 -2.796875 C 12.421875 -3.109375 12.515625 -3.414062 12.515625 -3.71875 C 12.515625 -4.164062 12.421875 -4.59375 12.234375 -5 C 12.046875 -5.40625 11.800781 -5.785156 11.5 -6.140625 C 11.195312 -6.492188 10.847656 -6.820312 10.453125 -7.125 C 10.066406 -7.425781 9.660156 -7.695312 9.234375 -7.9375 C 8.804688 -8.175781 8.378906 -8.382812 7.953125 -8.5625 C 7.535156 -8.75 7.144531 -8.894531 6.78125 -9 C 6.070312 -9.207031 5.382812 -9.507812 4.71875 -9.90625 C 4.050781 -10.3125 3.457031 -10.796875 2.9375 -11.359375 C 2.414062 -11.921875 1.992188 -12.550781 1.671875 -13.25 C 1.359375 -13.957031 1.203125 -14.707031 1.203125 -15.5 C 1.203125 -16.1875 1.304688 -16.835938 1.515625 -17.453125 C 1.734375 -18.066406 2.03125 -18.632812 2.40625 -19.15625 C 2.789062 -19.675781 3.238281 -20.148438 3.75 -20.578125 C 4.257812 -21.003906 4.8125 -21.363281 5.40625 -21.65625 C 6 -21.945312 6.617188 -22.171875 7.265625 -22.328125 C 7.910156 -22.484375 8.554688 -22.5625 9.203125 -22.5625 C 10.640625 -22.5625 11.972656 -22.238281 13.203125 -21.59375 C 14.429688 -20.957031 15.476562 -20.066406 16.34375 -18.921875 Z M 16.34375 -18.921875 "/></g></g></g><g fill="#3f1918" fill-opacity="1"><g transform="translate(17.012691, 32.37193)"><g><path d="M 11.96875 -3.328125 C 11.613281 -2.867188 11.222656 -2.421875 10.796875 -1.984375 C 10.367188 -1.546875 9.90625 -1.160156 9.40625 -0.828125 C 8.914062 -0.492188 8.394531 -0.21875 7.84375 0 C 7.289062 0.207031 6.71875 0.3125 6.125 0.3125 C 5.363281 0.3125 4.664062 0.179688 4.03125 -0.078125 C 3.394531 -0.347656 2.847656 -0.726562 2.390625 -1.21875 C 1.929688 -1.71875 1.570312 -2.3125 1.3125 -3 C 1.0625 -3.695312 0.9375 -4.476562 0.9375 -5.34375 C 0.9375 -6.238281 1.117188 -7.09375 1.484375 -7.90625 C 1.847656 -8.71875 2.332031 -9.425781 2.9375 -10.03125 C 3.550781 -10.632812 4.257812 -11.113281 5.0625 -11.46875 C 5.875 -11.820312 6.722656 -12 7.609375 -12 C 7.960938 -12 8.3125 -11.960938 8.65625 -11.890625 C 9.007812 -11.828125 9.347656 -11.726562 9.671875 -11.59375 C 9.992188 -11.457031 10.289062 -11.273438 10.5625 -11.046875 C 10.832031 -10.816406 11.0625 -10.539062 11.25 -10.21875 L 9.0625 -9.03125 C 8.957031 -9.269531 8.804688 -9.484375 8.609375 -9.671875 C 8.421875 -9.859375 8.207031 -10.007812 7.96875 -10.125 C 7.738281 -10.25 7.492188 -10.34375 7.234375 -10.40625 C 6.972656 -10.46875 6.722656 -10.5 6.484375 -10.5 C 5.984375 -10.5 5.539062 -10.390625 5.15625 -10.171875 C 4.769531 -9.953125 4.441406 -9.664062 4.171875 -9.3125 C 3.898438 -8.957031 3.691406 -8.554688 3.546875 -8.109375 C 3.398438 -7.660156 3.328125 -7.207031 3.328125 -6.75 C 3.328125 -5.875 3.429688 -5.097656 3.640625 -4.421875 C 3.859375 -3.742188 4.15625 -3.175781 4.53125 -2.71875 C 4.914062 -2.257812 5.363281 -1.910156 5.875 -1.671875 C 6.382812 -1.429688 6.941406 -1.3125 7.546875 -1.3125 C 7.898438 -1.3125 8.257812 -1.398438 8.625 -1.578125 C 8.988281 -1.753906 9.34375 -1.972656 9.6875 -2.234375 C 10.03125 -2.492188 10.359375 -2.769531 10.671875 -3.0625 C 10.984375 -3.363281 11.265625 -3.632812 11.515625 -3.875 Z M 11.96875 -3.328125 "/></g></g></g><g fill="#3f1918" fill-opacity="1"><g transform="translate(29.364665, 32.37193)"><g><path d="M 10 -1.671875 C 9.8125 -1.390625 9.582031 -1.128906 9.3125 -0.890625 C 9.050781 -0.660156 8.757812 -0.460938 8.4375 -0.296875 C 8.125 -0.140625 7.789062 -0.015625 7.4375 0.078125 C 7.09375 0.171875 6.753906 0.21875 6.421875 0.21875 C 5.960938 0.21875 5.570312 0.132812 5.25 -0.03125 C 4.9375 -0.207031 4.675781 -0.429688 4.46875 -0.703125 C 4.257812 -0.984375 4.109375 -1.304688 4.015625 -1.671875 C 3.921875 -2.035156 3.875 -2.421875 3.875 -2.828125 C 3.875 -3.347656 3.953125 -3.90625 4.109375 -4.5 C 4.265625 -5.101562 4.476562 -5.695312 4.75 -6.28125 C 5.019531 -6.863281 5.328125 -7.40625 5.671875 -7.90625 C 6.023438 -8.40625 6.394531 -8.820312 6.78125 -9.15625 C 6.425781 -8.914062 6.035156 -8.726562 5.609375 -8.59375 C 5.179688 -8.457031 4.75 -8.390625 4.3125 -8.390625 C 4 -8.390625 3.722656 -8.414062 3.484375 -8.46875 C 3.242188 -8.519531 2.984375 -8.617188 2.703125 -8.765625 L 1.109375 -5.4375 L 0.4375 -5.6875 L 2.109375 -9.09375 C 1.929688 -9.207031 1.742188 -9.359375 1.546875 -9.546875 C 1.347656 -9.742188 1.203125 -9.929688 1.109375 -10.109375 L 3.234375 -12.515625 C 3.328125 -12.234375 3.457031 -11.953125 3.625 -11.671875 C 3.789062 -11.390625 3.984375 -11.140625 4.203125 -10.921875 C 4.421875 -10.703125 4.664062 -10.519531 4.9375 -10.375 C 5.207031 -10.226562 5.5 -10.15625 5.8125 -10.15625 C 6.351562 -10.15625 6.878906 -10.253906 7.390625 -10.453125 C 7.910156 -10.660156 8.390625 -10.90625 8.828125 -11.1875 L 9.234375 -10.78125 C 8.847656 -10.414062 8.457031 -10.015625 8.0625 -9.578125 C 7.664062 -9.148438 7.3125 -8.6875 7 -8.1875 C 6.6875 -7.695312 6.429688 -7.179688 6.234375 -6.640625 C 6.035156 -6.097656 5.9375 -5.550781 5.9375 -5 C 5.9375 -4.6875 5.976562 -4.332031 6.0625 -3.9375 C 6.15625 -3.539062 6.289062 -3.164062 6.46875 -2.8125 C 6.65625 -2.457031 6.882812 -2.160156 7.15625 -1.921875 C 7.4375 -1.679688 7.773438 -1.5625 8.171875 -1.5625 C 8.429688 -1.5625 8.6875 -1.609375 8.9375 -1.703125 C 9.1875 -1.804688 9.414062 -1.929688 9.625 -2.078125 Z M 10 -1.671875 "/></g></g></g><g fill="#3f1918" fill-opacity="1"><g transform="translate(39.89069, 32.37193)"><g><path d="M 4.78125 -20.03125 L 3.953125 -14.421875 L 2.453125 -13.953125 L 1.53125 -18.921875 Z M 6.890625 -1.796875 C 6.660156 -1.296875 6.390625 -0.910156 6.078125 -0.640625 C 5.765625 -0.378906 5.460938 -0.1875 5.171875 -0.0625 C 4.835938 0.0820312 4.492188 0.164062 4.140625 0.1875 C 3.691406 0.1875 3.316406 0.113281 3.015625 -0.03125 C 2.722656 -0.175781 2.488281 -0.363281 2.3125 -0.59375 C 2.144531 -0.832031 2.023438 -1.097656 1.953125 -1.390625 C 1.890625 -1.691406 1.859375 -1.992188 1.859375 -2.296875 L 1.859375 -10.921875 L 4.6875 -11.875 L 4.6875 -2.21875 C 4.6875 -1.976562 4.738281 -1.785156 4.84375 -1.640625 C 4.957031 -1.492188 5.101562 -1.414062 5.28125 -1.40625 C 5.46875 -1.40625 5.664062 -1.472656 5.875 -1.609375 C 6.082031 -1.742188 6.285156 -1.957031 6.484375 -2.25 Z M 6.890625 -1.796875 "/></g></g></g><g fill="#3f1918" fill-opacity="1"><g transform="translate(47.025683, 32.37193)"><g><path d="M 7.5 0.28125 C 7.144531 0.28125 6.800781 0.226562 6.46875 0.125 C 6.144531 0.03125 5.84375 -0.128906 5.5625 -0.359375 L 6.75 -2.078125 C 6.945312 -1.804688 7.175781 -1.597656 7.4375 -1.453125 C 7.695312 -1.304688 7.984375 -1.234375 8.296875 -1.234375 C 8.628906 -1.234375 8.910156 -1.316406 9.140625 -1.484375 C 9.378906 -1.648438 9.578125 -1.867188 9.734375 -2.140625 C 9.898438 -2.421875 10.03125 -2.734375 10.125 -3.078125 C 10.226562 -3.421875 10.304688 -3.765625 10.359375 -4.109375 C 10.410156 -4.460938 10.445312 -4.800781 10.46875 -5.125 C 10.488281 -5.445312 10.5 -5.71875 10.5 -5.9375 C 10.5 -6.363281 10.4375 -6.828125 10.3125 -7.328125 C 10.195312 -7.835938 10.019531 -8.3125 9.78125 -8.75 C 9.539062 -9.1875 9.234375 -9.550781 8.859375 -9.84375 C 8.484375 -10.132812 8.03125 -10.28125 7.5 -10.28125 C 7.144531 -10.28125 6.84375 -10.191406 6.59375 -10.015625 C 6.34375 -9.835938 6.128906 -9.601562 5.953125 -9.3125 C 5.785156 -9.019531 5.65625 -8.6875 5.5625 -8.3125 C 5.46875 -7.9375 5.394531 -7.5625 5.34375 -7.1875 C 5.300781 -6.8125 5.273438 -6.445312 5.265625 -6.09375 C 5.253906 -5.75 5.25 -5.445312 5.25 -5.1875 L 5.25 6.59375 L 2.453125 7.578125 L 2.453125 -9.65625 C 2.453125 -9.863281 2.398438 -10.050781 2.296875 -10.21875 C 2.203125 -10.382812 2.046875 -10.46875 1.828125 -10.46875 C 1.566406 -10.46875 1.332031 -10.375 1.125 -10.1875 C 0.914062 -10 0.75 -9.8125 0.625 -9.625 L 0.21875 -10.078125 C 0.34375 -10.335938 0.5 -10.585938 0.6875 -10.828125 C 0.875 -11.066406 1.085938 -11.28125 1.328125 -11.46875 C 1.566406 -11.65625 1.828125 -11.800781 2.109375 -11.90625 C 2.390625 -12.007812 2.6875 -12.0625 3 -12.0625 C 3.4375 -12.0625 3.796875 -12 4.078125 -11.875 C 4.367188 -11.75 4.597656 -11.566406 4.765625 -11.328125 C 4.941406 -11.085938 5.066406 -10.804688 5.140625 -10.484375 C 5.210938 -10.160156 5.25 -9.796875 5.25 -9.390625 C 5.414062 -9.710938 5.609375 -10.035156 5.828125 -10.359375 C 6.046875 -10.679688 6.289062 -10.96875 6.5625 -11.21875 C 6.84375 -11.46875 7.148438 -11.671875 7.484375 -11.828125 C 7.816406 -11.984375 8.179688 -12.0625 8.578125 -12.0625 C 9.285156 -12.0625 9.910156 -11.90625 10.453125 -11.59375 C 11.003906 -11.28125 11.46875 -10.867188 11.84375 -10.359375 C 12.21875 -9.859375 12.5 -9.289062 12.6875 -8.65625 C 12.882812 -8.019531 12.984375 -7.375 12.984375 -6.71875 C 12.984375 -5.914062 12.867188 -5.097656 12.640625 -4.265625 C 12.410156 -3.441406 12.066406 -2.691406 11.609375 -2.015625 C 11.148438 -1.335938 10.578125 -0.785156 9.890625 -0.359375 C 9.210938 0.0664062 8.414062 0.28125 7.5 0.28125 Z M 7.5 0.28125 "/></g></g></g><g fill="#3f1918" fill-opacity="1"><g transform="translate(60.97344, 32.37193)"><g><path d="M 7.234375 -1.796875 C 6.992188 -1.296875 6.71875 -0.910156 6.40625 -0.640625 C 6.101562 -0.378906 5.804688 -0.1875 5.515625 -0.0625 C 5.171875 0.0820312 4.820312 0.164062 4.46875 0.1875 C 4.007812 0.1875 3.632812 0.113281 3.34375 -0.03125 C 3.050781 -0.175781 2.816406 -0.363281 2.640625 -0.59375 C 2.472656 -0.832031 2.351562 -1.097656 2.28125 -1.390625 C 2.21875 -1.691406 2.1875 -1.992188 2.1875 -2.296875 L 2.1875 -10.34375 L 0.5625 -10.34375 L 1.234375 -11.875 L 2.1875 -11.875 L 2.1875 -17.3125 L 5 -18.296875 L 5 -11.875 L 7.921875 -11.875 L 7.296875 -10.34375 L 5 -10.34375 L 5 -2.21875 C 5 -1.976562 5.054688 -1.785156 5.171875 -1.640625 C 5.285156 -1.492188 5.425781 -1.414062 5.59375 -1.40625 C 5.769531 -1.40625 5.96875 -1.472656 6.1875 -1.609375 C 6.40625 -1.742188 6.613281 -1.957031 6.8125 -2.25 Z M 7.234375 -1.796875 "/></g></g></g><g fill="#3f1918" fill-opacity="1"><g transform="translate(69.213206, 32.37193)"><g><path d="M 13.953125 -1.796875 C 13.710938 -1.296875 13.4375 -0.910156 13.125 -0.640625 C 12.8125 -0.378906 12.507812 -0.1875 12.21875 -0.0625 C 11.882812 0.0820312 11.539062 0.164062 11.1875 0.1875 C 10.726562 0.1875 10.351562 0.113281 10.0625 -0.03125 C 9.769531 -0.175781 9.535156 -0.363281 9.359375 -0.59375 C 9.191406 -0.832031 9.070312 -1.097656 9 -1.390625 C 8.9375 -1.691406 8.90625 -1.992188 8.90625 -2.296875 L 8.90625 -7.203125 C 8.820312 -6.828125 8.710938 -6.382812 8.578125 -5.875 C 8.453125 -5.363281 8.296875 -4.828125 8.109375 -4.265625 C 7.929688 -3.710938 7.71875 -3.160156 7.46875 -2.609375 C 7.226562 -2.066406 6.945312 -1.578125 6.625 -1.140625 C 6.300781 -0.710938 5.9375 -0.363281 5.53125 -0.09375 C 5.125 0.175781 4.671875 0.3125 4.171875 0.3125 C 3.753906 0.3125 3.425781 0.226562 3.1875 0.0625 C 2.945312 -0.09375 2.765625 -0.316406 2.640625 -0.609375 C 2.523438 -0.898438 2.453125 -1.242188 2.421875 -1.640625 C 2.398438 -2.046875 2.390625 -2.5 2.390625 -3 L 2.390625 -9.65625 C 2.390625 -9.90625 2.332031 -10.097656 2.21875 -10.234375 C 2.113281 -10.378906 1.96875 -10.453125 1.78125 -10.453125 C 1.601562 -10.460938 1.40625 -10.398438 1.1875 -10.265625 C 0.976562 -10.128906 0.769531 -9.914062 0.5625 -9.625 L 0.15625 -10.078125 C 0.382812 -10.578125 0.648438 -10.960938 0.953125 -11.234375 C 1.265625 -11.503906 1.570312 -11.695312 1.875 -11.8125 C 2.207031 -11.957031 2.554688 -12.039062 2.921875 -12.0625 C 3.378906 -12.0625 3.753906 -11.988281 4.046875 -11.84375 C 4.335938 -11.707031 4.566406 -11.519531 4.734375 -11.28125 C 4.898438 -11.050781 5.015625 -10.785156 5.078125 -10.484375 C 5.148438 -10.191406 5.1875 -9.894531 5.1875 -9.59375 L 5.1875 -3.234375 C 5.1875 -2.835938 5.257812 -2.578125 5.40625 -2.453125 C 5.550781 -2.328125 5.738281 -2.34375 5.96875 -2.5 C 6.195312 -2.664062 6.453125 -2.957031 6.734375 -3.375 C 7.015625 -3.800781 7.296875 -4.363281 7.578125 -5.0625 C 7.765625 -5.726562 7.945312 -6.414062 8.125 -7.125 C 8.257812 -7.726562 8.398438 -8.390625 8.546875 -9.109375 C 8.703125 -9.835938 8.820312 -10.539062 8.90625 -11.21875 L 11.734375 -12.203125 L 11.734375 -2.21875 C 11.734375 -1.976562 11.785156 -1.785156 11.890625 -1.640625 C 12.003906 -1.492188 12.148438 -1.414062 12.328125 -1.40625 C 12.503906 -1.40625 12.695312 -1.472656 12.90625 -1.609375 C 13.113281 -1.742188 13.320312 -1.957031 13.53125 -2.25 Z M 13.953125 -1.796875 "/></g></g></g><g fill="#3f1918" fill-opacity="1"><g transform="translate(83.391117, 32.37193)"><g><path d="M 10 -1.671875 C 9.8125 -1.390625 9.582031 -1.128906 9.3125 -0.890625 C 9.050781 -0.660156 8.757812 -0.460938 8.4375 -0.296875 C 8.125 -0.140625 7.789062 -0.015625 7.4375 0.078125 C 7.09375 0.171875 6.753906 0.21875 6.421875 0.21875 C 5.960938 0.21875 5.570312 0.132812 5.25 -0.03125 C 4.9375 -0.207031 4.675781 -0.429688 4.46875 -0.703125 C 4.257812 -0.984375 4.109375 -1.304688 4.015625 -1.671875 C 3.921875 -2.035156 3.875 -2.421875 3.875 -2.828125 C 3.875 -3.347656 3.953125 -3.90625 4.109375 -4.5 C 4.265625 -5.101562 4.476562 -5.695312 4.75 -6.28125 C 5.019531 -6.863281 5.328125 -7.40625 5.671875 -7.90625 C 6.023438 -8.40625 6.394531 -8.820312 6.78125 -9.15625 C 6.425781 -8.914062 6.035156 -8.726562 5.609375 -8.59375 C 5.179688 -8.457031 4.75 -8.390625 4.3125 -8.390625 C 4 -8.390625 3.722656 -8.414062 3.484375 -8.46875 C 3.242188 -8.519531 2.984375 -8.617188 2.703125 -8.765625 L 1.109375 -5.4375 L 0.4375 -5.6875 L 2.109375 -9.09375 C 1.929688 -9.207031 1.742188 -9.359375 1.546875 -9.546875 C 1.347656 -9.742188 1.203125 -9.929688 1.109375 -10.109375 L 3.234375 -12.515625 C 3.328125 -12.234375 3.457031 -11.953125 3.625 -11.671875 C 3.789062 -11.390625 3.984375 -11.140625 4.203125 -10.921875 C 4.421875 -10.703125 4.664062 -10.519531 4.9375 -10.375 C 5.207031 -10.226562 5.5 -10.15625 5.8125 -10.15625 C 6.351562 -10.15625 6.878906 -10.253906 7.390625 -10.453125 C 7.910156 -10.660156 8.390625 -10.90625 8.828125 -11.1875 L 9.234375 -10.78125 C 8.847656 -10.414062 8.457031 -10.015625 8.0625 -9.578125 C 7.664062 -9.148438 7.3125 -8.6875 7 -8.1875 C 6.6875 -7.695312 6.429688 -7.179688 6.234375 -6.640625 C 6.035156 -6.097656 5.9375 -5.550781 5.9375 -5 C 5.9375 -4.6875 5.976562 -4.332031 6.0625 -3.9375 C 6.15625 -3.539062 6.289062 -3.164062 6.46875 -2.8125 C 6.65625 -2.457031 6.882812 -2.160156 7.15625 -1.921875 C 7.4375 -1.679688 7.773438 -1.5625 8.171875 -1.5625 C 8.429688 -1.5625 8.6875 -1.609375 8.9375 -1.703125 C 9.1875 -1.804688 9.414062 -1.929688 9.625 -2.078125 Z M 10 -1.671875 "/></g></g></g><g fill="#3f1918" fill-opacity="1"><g transform="translate(93.917142, 32.37193)"><g><path d="M 13.671875 -1.828125 C 13.554688 -1.554688 13.40625 -1.300781 13.21875 -1.0625 C 13.03125 -0.832031 12.816406 -0.625 12.578125 -0.4375 C 12.335938 -0.257812 12.078125 -0.113281 11.796875 0 C 11.515625 0.101562 11.222656 0.15625 10.921875 0.15625 C 10.109375 0.15625 9.523438 -0.0664062 9.171875 -0.515625 C 8.816406 -0.960938 8.640625 -1.566406 8.640625 -2.328125 L 8.640625 -2.609375 C 8.453125 -2.265625 8.242188 -1.914062 8.015625 -1.5625 C 7.785156 -1.21875 7.523438 -0.90625 7.234375 -0.625 C 6.941406 -0.351562 6.613281 -0.128906 6.25 0.046875 C 5.894531 0.222656 5.5 0.3125 5.0625 0.3125 C 4.394531 0.3125 3.804688 0.1875 3.296875 -0.0625 C 2.785156 -0.320312 2.351562 -0.671875 2 -1.109375 C 1.65625 -1.546875 1.394531 -2.054688 1.21875 -2.640625 C 1.050781 -3.222656 0.96875 -3.84375 0.96875 -4.5 C 0.96875 -5.382812 1.125 -6.269531 1.4375 -7.15625 C 1.75 -8.039062 2.1875 -8.832031 2.75 -9.53125 C 3.320312 -10.226562 4.003906 -10.789062 4.796875 -11.21875 C 5.585938 -11.65625 6.46875 -11.875 7.4375 -11.875 C 7.832031 -11.875 8.222656 -11.835938 8.609375 -11.765625 C 8.992188 -11.703125 9.363281 -11.585938 9.71875 -11.421875 C 10.070312 -11.265625 10.394531 -11.054688 10.6875 -10.796875 C 10.976562 -10.546875 11.21875 -10.238281 11.40625 -9.875 L 9.125 -8.90625 C 9 -9.09375 8.851562 -9.273438 8.6875 -9.453125 C 8.53125 -9.640625 8.359375 -9.796875 8.171875 -9.921875 C 7.984375 -10.054688 7.78125 -10.164062 7.5625 -10.25 C 7.351562 -10.332031 7.128906 -10.375 6.890625 -10.375 C 6.359375 -10.375 5.882812 -10.207031 5.46875 -9.875 C 5.050781 -9.550781 4.695312 -9.148438 4.40625 -8.671875 C 4.113281 -8.191406 3.890625 -7.679688 3.734375 -7.140625 C 3.585938 -6.597656 3.515625 -6.109375 3.515625 -5.671875 C 3.515625 -5.273438 3.550781 -4.832031 3.625 -4.34375 C 3.707031 -3.863281 3.84375 -3.40625 4.03125 -2.96875 C 4.226562 -2.539062 4.484375 -2.175781 4.796875 -1.875 C 5.117188 -1.582031 5.519531 -1.4375 6 -1.4375 C 6.375 -1.4375 6.703125 -1.519531 6.984375 -1.6875 C 7.265625 -1.863281 7.5 -2.085938 7.6875 -2.359375 C 7.882812 -2.628906 8.046875 -2.941406 8.171875 -3.296875 C 8.296875 -3.648438 8.390625 -4.007812 8.453125 -4.375 C 8.523438 -4.738281 8.570312 -5.101562 8.59375 -5.46875 C 8.625 -5.832031 8.640625 -6.160156 8.640625 -6.453125 L 8.640625 -7.5 L 11.4375 -8.484375 L 11.4375 -2.25 C 11.4375 -2.050781 11.488281 -1.863281 11.59375 -1.6875 C 11.695312 -1.519531 11.851562 -1.4375 12.0625 -1.4375 C 12.320312 -1.4375 12.554688 -1.53125 12.765625 -1.71875 C 12.972656 -1.914062 13.140625 -2.109375 13.265625 -2.296875 Z M 13.671875 -1.828125 "/></g></g></g><g fill="#3f1918" fill-opacity="1"><g transform="translate(107.650082, 32.37193)"><g/></g></g><g fill="#ffffff" fill-opacity="1"><g transform="translate(114.274163, 32.37193)"><g><path d="M 8.421875 -4.234375 C 8.421875 -3.597656 8.300781 -3.003906 8.0625 -2.453125 C 7.832031 -1.898438 7.515625 -1.421875 7.109375 -1.015625 C 6.710938 -0.609375 6.234375 -0.285156 5.671875 -0.046875 C 5.109375 0.191406 4.507812 0.3125 3.875 0.3125 C 3.59375 0.3125 3.289062 0.285156 2.96875 0.234375 C 2.644531 0.179688 2.320312 0.101562 2 0 C 1.6875 -0.101562 1.390625 -0.226562 1.109375 -0.375 C 0.828125 -0.53125 0.597656 -0.71875 0.421875 -0.9375 L 2.21875 -3.296875 C 2.34375 -3.109375 2.492188 -2.894531 2.671875 -2.65625 C 2.859375 -2.425781 3.0625 -2.210938 3.28125 -2.015625 C 3.5 -1.828125 3.734375 -1.664062 3.984375 -1.53125 C 4.234375 -1.40625 4.488281 -1.34375 4.75 -1.34375 C 5.039062 -1.34375 5.316406 -1.394531 5.578125 -1.5 C 5.835938 -1.601562 6.0625 -1.75 6.25 -1.9375 C 6.445312 -2.125 6.601562 -2.347656 6.71875 -2.609375 C 6.832031 -2.867188 6.890625 -3.148438 6.890625 -3.453125 C 6.890625 -3.859375 6.75 -4.234375 6.46875 -4.578125 C 6.1875 -4.921875 5.851562 -5.253906 5.46875 -5.578125 C 5.082031 -5.898438 4.679688 -6.234375 4.265625 -6.578125 C 3.859375 -6.921875 3.523438 -7.296875 3.265625 -7.703125 L 1.671875 -5.375 L 1.078125 -5.8125 L 2.921875 -8.359375 C 2.773438 -8.660156 2.660156 -8.972656 2.578125 -9.296875 C 2.492188 -9.628906 2.453125 -9.957031 2.453125 -10.28125 C 2.453125 -10.5625 2.5 -10.851562 2.59375 -11.15625 C 2.6875 -11.46875 2.816406 -11.75 2.984375 -12 C 3.160156 -12.257812 3.375 -12.472656 3.625 -12.640625 C 3.875 -12.804688 4.164062 -12.890625 4.5 -12.890625 C 4.8125 -12.890625 5.078125 -12.789062 5.296875 -12.59375 C 5.523438 -12.40625 5.640625 -12.140625 5.640625 -11.796875 C 5.640625 -11.609375 5.609375 -11.421875 5.546875 -11.234375 C 5.484375 -11.046875 5.40625 -10.859375 5.3125 -10.671875 C 5.21875 -10.492188 5.113281 -10.320312 5 -10.15625 C 4.882812 -9.988281 4.78125 -9.832031 4.6875 -9.6875 C 4.925781 -9.34375 5.1875 -9.039062 5.46875 -8.78125 C 5.757812 -8.519531 6.039062 -8.273438 6.3125 -8.046875 C 6.59375 -7.828125 6.859375 -7.601562 7.109375 -7.375 C 7.367188 -7.15625 7.59375 -6.898438 7.78125 -6.609375 C 7.976562 -6.328125 8.132812 -5.992188 8.25 -5.609375 C 8.363281 -5.234375 8.421875 -4.773438 8.421875 -4.234375 Z M 4.9375 -11.515625 C 4.9375 -11.660156 4.890625 -11.765625 4.796875 -11.828125 C 4.703125 -11.898438 4.59375 -11.9375 4.46875 -11.9375 C 4.289062 -11.9375 4.164062 -11.878906 4.09375 -11.765625 C 4.019531 -11.648438 3.984375 -11.519531 3.984375 -11.375 C 3.984375 -11.164062 4.015625 -10.960938 4.078125 -10.765625 C 4.148438 -10.578125 4.238281 -10.394531 4.34375 -10.21875 C 4.382812 -10.289062 4.4375 -10.382812 4.5 -10.5 C 4.570312 -10.613281 4.640625 -10.734375 4.703125 -10.859375 C 4.765625 -10.984375 4.816406 -11.101562 4.859375 -11.21875 C 4.910156 -11.34375 4.9375 -11.441406 4.9375 -11.515625 Z M 5.859375 2.5625 C 5.859375 2.84375 5.8125 3.109375 5.71875 3.359375 C 5.625 3.609375 5.492188 3.835938 5.328125 4.046875 C 5.171875 4.265625 4.984375 4.460938 4.765625 4.640625 C 4.554688 4.816406 4.34375 4.972656 4.125 5.109375 L 3.71875 4.796875 C 3.851562 4.671875 3.976562 4.507812 4.09375 4.3125 C 4.207031 4.125 4.285156 3.945312 4.328125 3.78125 C 4.046875 3.695312 3.816406 3.546875 3.640625 3.328125 C 3.460938 3.109375 3.375 2.851562 3.375 2.5625 C 3.375 2.226562 3.492188 1.9375 3.734375 1.6875 C 3.972656 1.4375 4.257812 1.3125 4.59375 1.3125 C 4.945312 1.3125 5.242188 1.4375 5.484375 1.6875 C 5.734375 1.9375 5.859375 2.226562 5.859375 2.5625 Z M 5.859375 2.5625 "/></g></g></g><g fill="#ffffff" fill-opacity="1"><g transform="translate(123.511287, 32.37193)"><g><path d="M 4.78125 -20.03125 L 3.953125 -14.421875 L 2.453125 -13.953125 L 1.53125 -18.921875 Z M 6.890625 -1.796875 C 6.660156 -1.296875 6.390625 -0.910156 6.078125 -0.640625 C 5.765625 -0.378906 5.460938 -0.1875 5.171875 -0.0625 C 4.835938 0.0820312 4.492188 0.164062 4.140625 0.1875 C 3.691406 0.1875 3.316406 0.113281 3.015625 -0.03125 C 2.722656 -0.175781 2.488281 -0.363281 2.3125 -0.59375 C 2.144531 -0.832031 2.023438 -1.097656 1.953125 -1.390625 C 1.890625 -1.691406 1.859375 -1.992188 1.859375 -2.296875 L 1.859375 -10.921875 L 4.6875 -11.875 L 4.6875 -2.21875 C 4.6875 -1.976562 4.738281 -1.785156 4.84375 -1.640625 C 4.957031 -1.492188 5.101562 -1.414062 5.28125 -1.40625 C 5.46875 -1.40625 5.664062 -1.472656 5.875 -1.609375 C 6.082031 -1.742188 6.285156 -1.957031 6.484375 -2.25 Z M 6.890625 -1.796875 "/></g></g></g><g fill="#ffffff" fill-opacity="1"><g transform="translate(130.646281, 32.37193)"><g/></g></g><g fill="#3f1918" fill-opacity="1"><g transform="translate(137.265799, 32.37193)"><g><path d="M 18.640625 -15.9375 C 18.640625 -15.050781 18.472656 -14.203125 18.140625 -13.390625 C 17.804688 -12.585938 17.351562 -11.832031 16.78125 -11.125 C 16.21875 -10.414062 15.5625 -9.773438 14.8125 -9.203125 C 14.0625 -8.628906 13.265625 -8.140625 12.421875 -7.734375 C 11.585938 -7.328125 10.734375 -7.007812 9.859375 -6.78125 C 8.992188 -6.5625 8.160156 -6.453125 7.359375 -6.453125 C 7.273438 -6.453125 7.1875 -6.453125 7.09375 -6.453125 C 7.007812 -6.453125 6.925781 -6.460938 6.84375 -6.484375 L 7.015625 -7.328125 C 7.679688 -7.429688 8.351562 -7.597656 9.03125 -7.828125 C 9.707031 -8.066406 10.359375 -8.351562 10.984375 -8.6875 C 11.609375 -9.03125 12.191406 -9.429688 12.734375 -9.890625 C 13.273438 -10.347656 13.742188 -10.851562 14.140625 -11.40625 C 14.546875 -11.96875 14.863281 -12.578125 15.09375 -13.234375 C 15.320312 -13.898438 15.4375 -14.609375 15.4375 -15.359375 C 15.4375 -16.085938 15.316406 -16.757812 15.078125 -17.375 C 14.847656 -17.988281 14.519531 -18.519531 14.09375 -18.96875 C 13.675781 -19.425781 13.171875 -19.78125 12.578125 -20.03125 C 11.984375 -20.28125 11.320312 -20.40625 10.59375 -20.40625 C 9.832031 -20.40625 9.054688 -20.316406 8.265625 -20.140625 C 7.472656 -19.960938 6.6875 -19.710938 5.90625 -19.390625 C 5.132812 -19.078125 4.382812 -18.691406 3.65625 -18.234375 C 2.9375 -17.785156 2.273438 -17.285156 1.671875 -16.734375 L 1.203125 -17.25 C 1.890625 -17.945312 2.679688 -18.597656 3.578125 -19.203125 C 4.472656 -19.816406 5.410156 -20.347656 6.390625 -20.796875 C 7.378906 -21.253906 8.378906 -21.613281 9.390625 -21.875 C 10.398438 -22.144531 11.367188 -22.28125 12.296875 -22.28125 C 13.179688 -22.28125 14.007812 -22.125 14.78125 -21.8125 C 15.5625 -21.507812 16.234375 -21.070312 16.796875 -20.5 C 17.367188 -19.9375 17.816406 -19.265625 18.140625 -18.484375 C 18.472656 -17.710938 18.640625 -16.863281 18.640625 -15.9375 Z M 6.15625 -0.6875 L 3 0.46875 L 3 -16.734375 L 6.15625 -17.859375 Z M 6.15625 -0.6875 "/></g></g></g><g fill="#3f1918" fill-opacity="1"><g transform="translate(156.399847, 32.37193)"><g><path d="M 13.671875 -1.828125 C 13.554688 -1.554688 13.40625 -1.300781 13.21875 -1.0625 C 13.03125 -0.832031 12.816406 -0.625 12.578125 -0.4375 C 12.335938 -0.257812 12.078125 -0.113281 11.796875 0 C 11.515625 0.101562 11.222656 0.15625 10.921875 0.15625 C 10.109375 0.15625 9.523438 -0.0664062 9.171875 -0.515625 C 8.816406 -0.960938 8.640625 -1.566406 8.640625 -2.328125 L 8.640625 -2.609375 C 8.453125 -2.265625 8.242188 -1.914062 8.015625 -1.5625 C 7.785156 -1.21875 7.523438 -0.90625 7.234375 -0.625 C 6.941406 -0.351562 6.613281 -0.128906 6.25 0.046875 C 5.894531 0.222656 5.5 0.3125 5.0625 0.3125 C 4.394531 0.3125 3.804688 0.1875 3.296875 -0.0625 C 2.785156 -0.320312 2.351562 -0.671875 2 -1.109375 C 1.65625 -1.546875 1.394531 -2.054688 1.21875 -2.640625 C 1.050781 -3.222656 0.96875 -3.84375 0.96875 -4.5 C 0.96875 -5.382812 1.125 -6.269531 1.4375 -7.15625 C 1.75 -8.039062 2.1875 -8.832031 2.75 -9.53125 C 3.320312 -10.226562 4.003906 -10.789062 4.796875 -11.21875 C 5.585938 -11.65625 6.46875 -11.875 7.4375 -11.875 C 7.832031 -11.875 8.222656 -11.835938 8.609375 -11.765625 C 8.992188 -11.703125 9.363281 -11.585938 9.71875 -11.421875 C 10.070312 -11.265625 10.394531 -11.054688 10.6875 -10.796875 C 10.976562 -10.546875 11.21875 -10.238281 11.40625 -9.875 L 9.125 -8.90625 C 9 -9.09375 8.851562 -9.273438 8.6875 -9.453125 C 8.53125 -9.640625 8.359375 -9.796875 8.171875 -9.921875 C 7.984375 -10.054688 7.78125 -10.164062 7.5625 -10.25 C 7.351562 -10.332031 7.128906 -10.375 6.890625 -10.375 C 6.359375 -10.375 5.882812 -10.207031 5.46875 -9.875 C 5.050781 -9.550781 4.695312 -9.148438 4.40625 -8.671875 C 4.113281 -8.191406 3.890625 -7.679688 3.734375 -7.140625 C 3.585938 -6.597656 3.515625 -6.109375 3.515625 -5.671875 C 3.515625 -5.273438 3.550781 -4.832031 3.625 -4.34375 C 3.707031 -3.863281 3.84375 -3.40625 4.03125 -2.96875 C 4.226562 -2.539062 4.484375 -2.175781 4.796875 -1.875 C 5.117188 -1.582031 5.519531 -1.4375 6 -1.4375 C 6.375 -1.4375 6.703125 -1.519531 6.984375 -1.6875 C 7.265625 -1.863281 7.5 -2.085938 7.6875 -2.359375 C 7.882812 -2.628906 8.046875 -2.941406 8.171875 -3.296875 C 8.296875 -3.648438 8.390625 -4.007812 8.453125 -4.375 C 8.523438 -4.738281 8.570312 -5.101562 8.59375 -5.46875 C 8.625 -5.832031 8.640625 -6.160156 8.640625 -6.453125 L 8.640625 -7.5 L 11.4375 -8.484375 L 11.4375 -2.25 C 11.4375 -2.050781 11.488281 -1.863281 11.59375 -1.6875 C 11.695312 -1.519531 11.851562 -1.4375 12.0625 -1.4375 C 12.320312 -1.4375 12.554688 -1.53125 12.765625 -1.71875 C 12.972656 -1.914062 13.140625 -2.109375 13.265625 -2.296875 Z M 4.828125 -18.515625 L 5.265625 -18.171875 C 5.097656 -17.941406 4.984375 -17.691406 4.921875 -17.421875 C 4.859375 -17.148438 4.828125 -16.882812 4.828125 -16.625 C 4.828125 -16.34375 4.863281 -16.035156 4.9375 -15.703125 C 5.007812 -15.367188 5.128906 -15.054688 5.296875 -14.765625 C 5.460938 -14.484375 5.664062 -14.242188 5.90625 -14.046875 C 6.15625 -13.859375 6.441406 -13.765625 6.765625 -13.765625 C 7.210938 -13.765625 7.570312 -13.90625 7.84375 -14.1875 C 8.113281 -14.46875 8.25 -14.828125 8.25 -15.265625 C 8.25 -15.648438 8.15625 -16.023438 7.96875 -16.390625 C 7.78125 -16.765625 7.539062 -17.070312 7.25 -17.3125 L 9.265625 -18.609375 C 9.847656 -17.960938 10.140625 -17.1875 10.140625 -16.28125 C 10.140625 -15.757812 10.046875 -15.285156 9.859375 -14.859375 C 9.671875 -14.441406 9.414062 -14.078125 9.09375 -13.765625 C 8.769531 -13.460938 8.382812 -13.226562 7.9375 -13.0625 C 7.5 -12.894531 7.023438 -12.8125 6.515625 -12.8125 C 6.085938 -12.8125 5.695312 -12.878906 5.34375 -13.015625 C 4.988281 -13.160156 4.679688 -13.351562 4.421875 -13.59375 C 4.160156 -13.84375 3.957031 -14.140625 3.8125 -14.484375 C 3.664062 -14.835938 3.59375 -15.226562 3.59375 -15.65625 C 3.59375 -15.90625 3.625 -16.160156 3.6875 -16.421875 C 3.75 -16.691406 3.832031 -16.953125 3.9375 -17.203125 C 4.039062 -17.453125 4.164062 -17.691406 4.3125 -17.921875 C 4.46875 -18.148438 4.640625 -18.347656 4.828125 -18.515625 Z M 4.828125 -18.515625 "/></g></g></g><g fill="#3f1918" fill-opacity="1"><g transform="translate(170.132787, 32.37193)"><g><path d="M 10 -1.671875 C 9.8125 -1.390625 9.582031 -1.128906 9.3125 -0.890625 C 9.050781 -0.660156 8.757812 -0.460938 8.4375 -0.296875 C 8.125 -0.140625 7.789062 -0.015625 7.4375 0.078125 C 7.09375 0.171875 6.753906 0.21875 6.421875 0.21875 C 5.960938 0.21875 5.570312 0.132812 5.25 -0.03125 C 4.9375 -0.207031 4.675781 -0.429688 4.46875 -0.703125 C 4.257812 -0.984375 4.109375 -1.304688 4.015625 -1.671875 C 3.921875 -2.035156 3.875 -2.421875 3.875 -2.828125 C 3.875 -3.347656 3.953125 -3.90625 4.109375 -4.5 C 4.265625 -5.101562 4.476562 -5.695312 4.75 -6.28125 C 5.019531 -6.863281 5.328125 -7.40625 5.671875 -7.90625 C 6.023438 -8.40625 6.394531 -8.820312 6.78125 -9.15625 C 6.425781 -8.914062 6.035156 -8.726562 5.609375 -8.59375 C 5.179688 -8.457031 4.75 -8.390625 4.3125 -8.390625 C 4 -8.390625 3.722656 -8.414062 3.484375 -8.46875 C 3.242188 -8.519531 2.984375 -8.617188 2.703125 -8.765625 L 1.109375 -5.4375 L 0.4375 -5.6875 L 2.109375 -9.09375 C 1.929688 -9.207031 1.742188 -9.359375 1.546875 -9.546875 C 1.347656 -9.742188 1.203125 -9.929688 1.109375 -10.109375 L 3.234375 -12.515625 C 3.328125 -12.234375 3.457031 -11.953125 3.625 -11.671875 C 3.789062 -11.390625 3.984375 -11.140625 4.203125 -10.921875 C 4.421875 -10.703125 4.664062 -10.519531 4.9375 -10.375 C 5.207031 -10.226562 5.5 -10.15625 5.8125 -10.15625 C 6.351562 -10.15625 6.878906 -10.253906 7.390625 -10.453125 C 7.910156 -10.660156 8.390625 -10.90625 8.828125 -11.1875 L 9.234375 -10.78125 C 8.847656 -10.414062 8.457031 -10.015625 8.0625 -9.578125 C 7.664062 -9.148438 7.3125 -8.6875 7 -8.1875 C 6.6875 -7.695312 6.429688 -7.179688 6.234375 -6.640625 C 6.035156 -6.097656 5.9375 -5.550781 5.9375 -5 C 5.9375 -4.6875 5.976562 -4.332031 6.0625 -3.9375 C 6.15625 -3.539062 6.289062 -3.164062 6.46875 -2.8125 C 6.65625 -2.457031 6.882812 -2.160156 7.15625 -1.921875 C 7.4375 -1.679688 7.773438 -1.5625 8.171875 -1.5625 C 8.429688 -1.5625 8.6875 -1.609375 8.9375 -1.703125 C 9.1875 -1.804688 9.414062 -1.929688 9.625 -2.078125 Z M 10 -1.671875 "/></g></g></g><g fill="#3f1918" fill-opacity="1"><g transform="translate(180.658812, 32.37193)"><g><path d="M 4.78125 -20.03125 L 3.953125 -14.421875 L 2.453125 -13.953125 L 1.53125 -18.921875 Z M 6.890625 -1.796875 C 6.660156 -1.296875 6.390625 -0.910156 6.078125 -0.640625 C 5.765625 -0.378906 5.460938 -0.1875 5.171875 -0.0625 C 4.835938 0.0820312 4.492188 0.164062 4.140625 0.1875 C 3.691406 0.1875 3.316406 0.113281 3.015625 -0.03125 C 2.722656 -0.175781 2.488281 -0.363281 2.3125 -0.59375 C 2.144531 -0.832031 2.023438 -1.097656 1.953125 -1.390625 C 1.890625 -1.691406 1.859375 -1.992188 1.859375 -2.296875 L 1.859375 -10.921875 L 4.6875 -11.875 L 4.6875 -2.21875 C 4.6875 -1.976562 4.738281 -1.785156 4.84375 -1.640625 C 4.957031 -1.492188 5.101562 -1.414062 5.28125 -1.40625 C 5.46875 -1.40625 5.664062 -1.472656 5.875 -1.609375 C 6.082031 -1.742188 6.285156 -1.957031 6.484375 -2.25 Z M 6.890625 -1.796875 "/></g></g></g><g fill="#3f1918" fill-opacity="1"><g transform="translate(187.793805, 32.37193)"><g><path d="M 14.34375 -1.796875 C 14.21875 -1.523438 14.054688 -1.269531 13.859375 -1.03125 C 13.660156 -0.800781 13.441406 -0.59375 13.203125 -0.40625 C 12.960938 -0.226562 12.703125 -0.0859375 12.421875 0.015625 C 12.148438 0.128906 11.867188 0.1875 11.578125 0.1875 C 10.765625 0.1875 10.175781 -0.0351562 9.8125 -0.484375 C 9.445312 -0.929688 9.265625 -1.535156 9.265625 -2.296875 L 9.265625 -8.546875 C 9.265625 -8.617188 9.257812 -8.703125 9.25 -8.796875 C 9.25 -8.898438 9.234375 -8.992188 9.203125 -9.078125 C 9.179688 -9.160156 9.144531 -9.234375 9.09375 -9.296875 C 9.039062 -9.359375 8.96875 -9.390625 8.875 -9.390625 C 8.582031 -9.390625 8.289062 -9.210938 8 -8.859375 C 7.707031 -8.515625 7.425781 -8.066406 7.15625 -7.515625 C 6.882812 -6.960938 6.632812 -6.34375 6.40625 -5.65625 C 6.175781 -4.976562 5.972656 -4.300781 5.796875 -3.625 C 5.628906 -2.957031 5.492188 -2.332031 5.390625 -1.75 C 5.296875 -1.164062 5.25 -0.703125 5.25 -0.359375 L 2.453125 0.625 L 2.453125 -9.6875 C 2.453125 -9.894531 2.398438 -10.082031 2.296875 -10.25 C 2.203125 -10.414062 2.046875 -10.5 1.828125 -10.5 C 1.566406 -10.5 1.332031 -10.40625 1.125 -10.21875 C 0.914062 -10.03125 0.75 -9.84375 0.625 -9.65625 L 0.21875 -10.109375 C 0.34375 -10.367188 0.5 -10.617188 0.6875 -10.859375 C 0.875 -11.097656 1.085938 -11.3125 1.328125 -11.5 C 1.566406 -11.6875 1.828125 -11.832031 2.109375 -11.9375 C 2.390625 -12.039062 2.6875 -12.09375 3 -12.09375 C 3.789062 -12.09375 4.363281 -11.867188 4.71875 -11.421875 C 5.070312 -10.984375 5.25 -10.382812 5.25 -9.625 L 5.25 -4.625 C 5.34375 -5.039062 5.46875 -5.515625 5.625 -6.046875 C 5.78125 -6.585938 5.972656 -7.132812 6.203125 -7.6875 C 6.429688 -8.238281 6.6875 -8.773438 6.96875 -9.296875 C 7.25 -9.828125 7.554688 -10.300781 7.890625 -10.71875 C 8.222656 -11.132812 8.585938 -11.46875 8.984375 -11.71875 C 9.390625 -11.96875 9.820312 -12.09375 10.28125 -12.09375 C 10.757812 -12.09375 11.125 -11.988281 11.375 -11.78125 C 11.625 -11.570312 11.800781 -11.304688 11.90625 -10.984375 C 12.007812 -10.660156 12.066406 -10.300781 12.078125 -9.90625 C 12.085938 -9.519531 12.09375 -9.148438 12.09375 -8.796875 L 12.09375 -2.21875 C 12.09375 -2.019531 12.144531 -1.832031 12.25 -1.65625 C 12.351562 -1.488281 12.507812 -1.40625 12.71875 -1.40625 C 12.957031 -1.40625 13.179688 -1.5 13.390625 -1.6875 C 13.597656 -1.882812 13.765625 -2.070312 13.890625 -2.25 Z M 14.34375 -1.796875 "/></g></g></g><g fill="#3f1918" fill-opacity="1"><g transform="translate(202.309286, 32.37193)"><g><path d="M 7.234375 -1.796875 C 6.992188 -1.296875 6.71875 -0.910156 6.40625 -0.640625 C 6.101562 -0.378906 5.804688 -0.1875 5.515625 -0.0625 C 5.171875 0.0820312 4.820312 0.164062 4.46875 0.1875 C 4.007812 0.1875 3.632812 0.113281 3.34375 -0.03125 C 3.050781 -0.175781 2.816406 -0.363281 2.640625 -0.59375 C 2.472656 -0.832031 2.351562 -1.097656 2.28125 -1.390625 C 2.21875 -1.691406 2.1875 -1.992188 2.1875 -2.296875 L 2.1875 -10.34375 L 0.5625 -10.34375 L 1.234375 -11.875 L 2.1875 -11.875 L 2.1875 -17.3125 L 5 -18.296875 L 5 -11.875 L 7.921875 -11.875 L 7.296875 -10.34375 L 5 -10.34375 L 5 -2.21875 C 5 -1.976562 5.054688 -1.785156 5.171875 -1.640625 C 5.285156 -1.492188 5.425781 -1.414062 5.59375 -1.40625 C 5.769531 -1.40625 5.96875 -1.472656 6.1875 -1.609375 C 6.40625 -1.742188 6.613281 -1.957031 6.8125 -2.25 Z M 7.234375 -1.796875 "/></g></g></g><g fill="#3f1918" fill-opacity="1"><g transform="translate(210.549052, 32.37193)"><g><path d="M 3.609375 2.5625 C 3.609375 2.84375 3.5625 3.109375 3.46875 3.359375 C 3.375 3.609375 3.242188 3.835938 3.078125 4.046875 C 2.921875 4.265625 2.734375 4.460938 2.515625 4.640625 C 2.304688 4.816406 2.09375 4.972656 1.875 5.109375 L 1.46875 4.796875 C 1.601562 4.671875 1.726562 4.507812 1.84375 4.3125 C 1.957031 4.125 2.035156 3.945312 2.078125 3.78125 C 1.796875 3.695312 1.566406 3.546875 1.390625 3.328125 C 1.210938 3.109375 1.125 2.851562 1.125 2.5625 C 1.125 2.226562 1.242188 1.9375 1.484375 1.6875 C 1.722656 1.4375 2.007812 1.3125 2.34375 1.3125 C 2.695312 1.3125 2.992188 1.4375 3.234375 1.6875 C 3.484375 1.9375 3.609375 2.226562 3.609375 2.5625 Z M 3.609375 2.5625 "/></g></g></g><g fill="#3f1918" fill-opacity="1"><g transform="translate(210.549052, 32.37193)"><g><path d="M 4.78125 -20.03125 L 3.953125 -14.421875 L 2.453125 -13.953125 L 1.53125 -18.921875 Z M 6.890625 -1.796875 C 6.660156 -1.296875 6.390625 -0.910156 6.078125 -0.640625 C 5.765625 -0.378906 5.460938 -0.1875 5.171875 -0.0625 C 4.835938 0.0820312 4.492188 0.164062 4.140625 0.1875 C 3.691406 0.1875 3.316406 0.113281 3.015625 -0.03125 C 2.722656 -0.175781 2.488281 -0.363281 2.3125 -0.59375 C 2.144531 -0.832031 2.023438 -1.097656 1.953125 -1.390625 C 1.890625 -1.691406 1.859375 -1.992188 1.859375 -2.296875 L 1.859375 -10.921875 L 4.6875 -11.875 L 4.6875 -2.21875 C 4.6875 -1.976562 4.738281 -1.785156 4.84375 -1.640625 C 4.957031 -1.492188 5.101562 -1.414062 5.28125 -1.40625 C 5.46875 -1.40625 5.664062 -1.472656 5.875 -1.609375 C 6.082031 -1.742188 6.285156 -1.957031 6.484375 -2.25 Z M 6.890625 -1.796875 "/></g></g></g><g clip-path="url(#66f51f5a4a)"><g fill="#3f1918" fill-opacity="1"><g transform="translate(217.684046, 32.37193)"><g><path d="M 4.78125 -20.03125 L 3.953125 -14.421875 L 2.453125 -13.953125 L 1.53125 -18.921875 Z M 6.890625 -1.796875 C 6.660156 -1.296875 6.390625 -0.910156 6.078125 -0.640625 C 5.765625 -0.378906 5.460938 -0.1875 5.171875 -0.0625 C 4.835938 0.0820312 4.492188 0.164062 4.140625 0.1875 C 3.691406 0.1875 3.316406 0.113281 3.015625 -0.03125 C 2.722656 -0.175781 2.488281 -0.363281 2.3125 -0.59375 C 2.144531 -0.832031 2.023438 -1.097656 1.953125 -1.390625 C 1.890625 -1.691406 1.859375 -1.992188 1.859375 -2.296875 L 1.859375 -10.921875 L 4.6875 -11.875 L 4.6875 -2.21875 C 4.6875 -1.976562 4.738281 -1.785156 4.84375 -1.640625 C 4.957031 -1.492188 5.101562 -1.414062 5.28125 -1.40625 C 5.46875 -1.40625 5.664062 -1.472656 5.875 -1.609375 C 6.082031 -1.742188 6.285156 -1.957031 6.484375 -2.25 Z M 6.890625 -1.796875 "/></g></g></g></g></svg>