<?xml version="1.0" encoding="utf-8"?>

<!-- The icon can be used freely in both personal and commercial projects with no attribution required, but always appreciated. 
You may NOT sub-license, resell, rent, redistribute or otherwise transfer the icon without express written permission from iconmonstr.com -->

<!DOCTYPE svg PUBLIC "-//W3C//DTD SVG 1.1//EN" "http://www.w3.org/Graphics/SVG/1.1/DTD/svg11.dtd">
<svg version="1.1" xmlns="http://www.w3.org/2000/svg" xmlns:xlink="http://www.w3.org/1999/xlink" x="0px" y="0px"
	 width="512px" height="512px" viewBox="0 0 512 512" enable-background="new 0 0 512 512" xml:space="preserve">
<path id="map-6-icon" d="M211.484,237.806c0-28.246-22.902-51.148-51.15-51.148c-28.249,0-51.151,22.902-51.151,51.148
	c0,42.008,40.231,46.449,51.151,110.336C171.255,284.253,211.484,279.813,211.484,237.806z M141.989,236.567
	c0-10.133,8.213-18.346,18.345-18.346s18.345,8.213,18.345,18.346c0,10.129-8.213,18.344-18.345,18.344
	S141.989,246.696,141.989,236.567z M433.028,156.819c0-48.98-39.71-88.691-88.693-88.691c-48.984,0-88.697,39.711-88.697,88.691
	c0,72.84,69.762,80.543,88.697,191.322C363.271,237.358,433.028,229.659,433.028,156.819z M312.525,154.671
	c0-17.568,14.24-31.812,31.81-31.812c17.568,0,31.809,14.244,31.809,31.812c0,17.564-14.24,31.807-31.809,31.807
	C326.766,186.478,312.525,172.235,312.525,154.671z M201.103,311.569c5.734-8.338,12.157-15.436,18.241-23.832l32.852,21.473
	c0,0,21.396-12.609,38.496-22.682c4.87,8.014,9.406,16.861,13.362,27.039c-19.448,11.67-51.304,30.947-51.304,30.947
	L201.103,311.569z M462,443.872l-115.14-41.666l-93.665,41.666l-93-41.666L50,443.872l67.562-134.445l0.377-0.164
	c6.527,9.061,12.278,19.328,15.968,34.453l-22.558,44.887l49.814-18.836l82.863,37.125l8.723-41.4l9.62,41.467l83.337-37.072
	l55.834,20.205l-25.015-49.99c3.566-15.482,8.312-28.342,13.768-39.525L462,443.872z"/>
</svg>
