<svg xmlns="http://www.w3.org/2000/svg" xmlns:xlink="http://www.w3.org/1999/xlink" width="512" zoomAndPan="magnify" viewBox="0 0 384 383.999986" height="512" preserveAspectRatio="xMidYMid meet" version="1.0"><path fill="#ffffff" d="M 366.65625 114.375 C 366.65625 118.664062 363.179688 122.140625 358.894531 122.140625 L 25.105469 122.140625 C 20.820312 122.140625 17.34375 118.664062 17.34375 114.375 L 17.34375 60.039062 C 17.34375 55.75 20.820312 52.277344 25.105469 52.277344 L 358.894531 52.277344 C 363.179688 52.277344 366.65625 55.75 366.65625 60.039062 Z M 366.65625 114.375 " fill-opacity="1" fill-rule="nonzero"/><path fill="#ffffff" d="M 366.65625 219.171875 C 366.65625 223.457031 363.179688 226.933594 358.894531 226.933594 L 25.105469 226.933594 C 20.820312 226.933594 17.34375 223.457031 17.34375 219.171875 L 17.34375 164.828125 C 17.34375 160.539062 20.820312 157.066406 25.105469 157.066406 L 358.894531 157.066406 C 363.179688 157.066406 366.65625 160.539062 366.65625 164.828125 Z M 366.65625 219.171875 " fill-opacity="1" fill-rule="nonzero"/><path fill="#ffffff" d="M 366.65625 323.960938 C 366.65625 328.25 363.179688 331.722656 358.894531 331.722656 L 25.105469 331.722656 C 20.820312 331.722656 17.34375 328.25 17.34375 323.960938 L 17.34375 269.625 C 17.34375 265.335938 20.820312 261.859375 25.105469 261.859375 L 358.894531 261.859375 C 363.179688 261.859375 366.65625 265.335938 366.65625 269.625 Z M 366.65625 323.960938 " fill-opacity="1" fill-rule="nonzero"/></svg>