<?xml version="1.0" encoding="utf-8"?>
<!DOCTYPE svg PUBLIC "-//W3C//DTD SVG 1.0//EN" "http://www.w3.org/TR/2001/REC-SVG-20010904/DTD/svg10.dtd">
<svg version="1.0" id="Layer_1" xmlns="http://www.w3.org/2000/svg" xmlns:xlink="http://www.w3.org/1999/xlink" x="0px" y="0px"
	 width="512px" height="512px" viewBox="0 0 512 512" enable-background="new 0 0 512 512" xml:space="preserve">
<g>
	<defs>
		<rect id="SVGID_1_" width="512" height="512"/>
	</defs>
	<clipPath id="SVGID_2_">
		<use xlink:href="#SVGID_1_"  overflow="visible"/>
	</clipPath>
	<path clip-path="url(#SVGID_2_)" d="M334.2,65.6H173.8c-15.3,0-27.8,12.4-27.8,27.8V419c0,15.3,12.4,27.8,27.8,27.8h160.4
		c15.4,0,27.8-12.4,27.8-27.8V93.4C362,78,349.5,65.6,334.2,65.6 M235.9,89.2h36.3v12h-36.3V89.2z M254,432.2
		c-9.8,0-17.7-7.9-17.7-17.7c0-9.8,7.9-17.7,17.7-17.7c9.8,0,17.7,7.9,17.7,17.7C271.7,424.3,263.8,432.2,254,432.2 M341.2,385.6
		H166.9V126.7h174.3V385.6z"

		fill="#cccccc"
		/>
</g>
</svg>
