<?xml version="1.0" standalone="no"?>
<!DOCTYPE svg PUBLIC "-//W3C//DTD SVG 20010904//EN"
 "http://www.w3.org/TR/2001/REC-SVG-20010904/DTD/svg10.dtd">
<svg version="1.0" xmlns="http://www.w3.org/2000/svg"
 width="512.000000pt" height="512.000000pt" viewBox="0 0 512.000000 512.000000"
 preserveAspectRatio="xMidYMid meet">
<metadata>
Created by potrace 1.11, written by Peter Selinger 2001-2013
</metadata>
<g transform="translate(0.000000,512.000000) scale(0.100000,-0.100000)"
fill="#000000" stroke="none">
<path d="M2000 4838 c0 -47 -142 -430 -245 -663 -7 -16 -53 -127 -103 -245
-49 -118 -117 -282 -152 -365 -34 -82 -95 -231 -136 -330 -41 -99 -83 -200
-94 -225 -18 -42 -125 -299 -425 -1020 -69 -168 -144 -334 -165 -370 -77 -130
-167 -189 -297 -198 l-71 -5 -4 -64 c-2 -36 -1 -67 1 -69 2 -2 231 -4 508 -4
l503 0 0 69 0 68 -127 5 c-342 13 -344 97 -23 851 l63 147 691 -2 690 -3 68
-175 c38 -96 89 -229 115 -295 25 -66 54 -139 64 -162 31 -73 61 -214 56 -255
-11 -80 -53 -99 -239 -106 l-138 -5 0 -68 0 -69 669 0 c369 0 672 -4 675 -8 5
-9 -4 -30 -85 -197 -76 -158 -136 -261 -275 -472 -118 -180 -116 -176 -97
-246 4 -16 39 -17 601 -15 l597 3 22 180 c12 99 29 236 37 305 9 69 19 149 22
178 l7 52 -70 0 -70 0 -12 -42 c-18 -59 -86 -203 -111 -235 -43 -55 -83 -73
-187 -83 -122 -12 -470 -13 -477 -2 -3 5 52 72 122 148 284 312 414 490 516
707 102 217 142 413 133 647 -17 414 -162 753 -434 1010 -202 192 -446 312
-753 371 -165 32 -436 32 -600 1 -307 -60 -549 -182 -768 -386 -118 -111 -259
-318 -318 -468 -13 -34 -24 -63 -24 -65 0 -2 104 -2 232 -1 l232 3 27 79 c138
391 382 620 728 681 164 29 349 16 497 -34 355 -122 596 -467 670 -961 24
-156 24 -435 0 -593 -18 -123 -65 -322 -91 -384 l-15 -35 -102 4 c-80 3 -112
9 -144 25 -119 63 -221 254 -429 803 -24 63 -103 266 -175 450 -72 184 -149
382 -171 440 -70 185 -68 182 -103 174 -133 -27 -311 -150 -415 -285 l-21 -27
80 -200 c44 -110 80 -205 80 -211 0 -8 -180 -11 -620 -11 -341 0 -620 2 -620
4 0 4 54 134 75 181 7 17 29 68 48 115 19 47 53 128 75 180 22 52 63 149 90
215 92 221 213 510 231 550 10 22 39 93 66 158 27 64 53 116 58 114 5 -1 31
-57 56 -122 26 -66 80 -203 120 -305 40 -102 75 -188 77 -191 2 -3 50 17 106
45 108 54 245 106 338 127 30 7 59 16 63 19 4 4 -17 70 -47 146 -30 76 -71
182 -91 234 -20 52 -51 133 -70 180 -107 268 -215 573 -215 607 0 10 -29 13
-140 13 -105 0 -140 -3 -140 -12z"/>
<path d="M1574 2308 c-4 -24 -7 -108 -6 -188 1 -230 38 -388 142 -606 106
-219 251 -412 502 -669 78 -80 133 -144 128 -149 -13 -13 -518 -1 -560 14 -84
30 -140 103 -201 263 l-34 88 -65 -3 -65 -3 3 -40 c2 -22 12 -114 23 -205 11
-91 27 -232 37 -315 l17 -150 597 -3 598 -2 15 36 c8 20 15 43 15 50 0 8 -50
92 -111 187 -220 341 -343 579 -431 836 -91 266 -122 456 -117 719 l4 182
-242 0 -241 0 -8 -42z"/>
</g>
</svg>
