<?xml version="1.0" standalone="no"?>
<!DOCTYPE svg PUBLIC "-//W3C//DTD SVG 20010904//EN"
 "http://www.w3.org/TR/2001/REC-SVG-20010904/DTD/svg10.dtd">
<svg version="1.0" xmlns="http://www.w3.org/2000/svg"
 width="512.000000pt" height="512.000000pt" viewBox="0 0 512.000000 512.000000"
 preserveAspectRatio="xMidYMid meet">
<metadata>
Created by potrace 1.11, written by Peter Selinger 2001-2013
</metadata>
<g transform="translate(0.000000,512.000000) scale(0.100000,-0.100000)"
fill="#000000" stroke="none">
<path d="M2430 3781 c-60 -11 -154 -45 -207 -76 -72 -43 -176 -154 -212 -226
-68 -138 -87 -343 -51 -531 33 -170 70 -275 179 -503 66 -139 76 -167 76 -215
0 -73 -25 -113 -101 -165 -65 -45 -222 -100 -382 -135 -218 -48 -302 -89 -361
-179 -40 -59 -53 -136 -55 -303 l-1 -143 1250 0 1250 0 -2 145 c-2 168 -15
246 -53 302 -60 90 -140 128 -378 182 -241 55 -396 126 -443 203 -16 26 -22
51 -22 94 0 50 8 74 66 196 144 302 201 502 202 713 0 209 -50 356 -160 466
-80 79 -123 108 -221 145 -69 26 -95 30 -204 34 -69 2 -145 0 -170 -4z"/>
<path d="M965 3270 c-69 -9 -166 -51 -221 -96 -70 -58 -111 -119 -140 -208
-23 -69 -27 -98 -27 -201 0 -102 5 -137 32 -238 31 -118 80 -242 146 -371 59
-114 46 -186 -45 -247 -58 -39 -130 -65 -305 -109 -168 -42 -214 -62 -264
-113 -44 -47 -61 -111 -68 -264 l-6 -123 487 0 486 0 0 93 c0 115 13 204 46
332 42 161 97 248 236 374 64 58 144 159 164 208 84 198 103 505 42 674 -79
217 -291 326 -563 289z"/>
<path d="M3950 3269 c-86 -15 -193 -71 -250 -130 -96 -100 -132 -213 -132
-413 -1 -146 10 -219 53 -351 33 -103 92 -190 187 -275 136 -123 194 -215 236
-375 35 -136 46 -213 46 -327 l0 -98 486 0 487 0 -6 123 c-7 153 -24 217 -68
264 -50 51 -96 71 -264 113 -175 44 -247 70 -305 109 -95 64 -104 130 -36 267
126 254 171 412 169 599 -1 124 -29 234 -78 306 -43 61 -128 127 -205 159 -81
33 -223 46 -320 29z"/>
</g>
</svg>
