<?xml version="1.0"?>
<svg version="1.1" xmlns="http://www.w3.org/2000/svg" xmlns:xlink="http://www.w3.org/1999/xlink" width="100" height="60">
    <desc iVinci="yes" version="4.6" gridStep="20" showGrid="no" snapToGrid="no" codePlatform="0"/>
    <g id="Layer1" name="Layer 1" opacity="1">
        <g id="Shape1">
            <desc shapeID="1" type="0" basicInfo-basicType="0" basicInfo-roundedRectRadius="12" basicInfo-polygonSides="6" basicInfo-starPoints="5" bounding="rect(-43.635,-22.0013,87.27,44.0026)" text="" font-familyName="" font-pixelSize="20" font-bold="0" font-underline="0" font-alignment="1" strokeStyle="0" markerStart="0" markerEnd="0" shadowEnabled="0" shadowOffsetX="0" shadowOffsetY="2" shadowBlur="4" shadowOpacity="160" blurEnabled="0" blurRadius="4" transform="matrix(1,0,0,1,50,27.3515)" pers-center="0,0" pers-size="0,0" pers-start="0,0" pers-end="0,0" locked="0" mesh="" flag=""/>
            <path id="shapePath1" d="M8.849,28.1918 L38.51,41.8068 L10.34,15.4658 L8.849,28.1918 M48.482,36.7648 L49.97,11.5768 C47.319,9.15278 44.33,7.61178 41.449,6.67178 L48.482,36.7648 M10.991,9.93878 L10.354,15.3688 L40.598,39.8538 L19.211,7.96378 C17.054,8.58378 14.129,9.34778 10.991,9.93878 M6.36501,49.3528 C13.488,48.5698 20.898,46.1958 22.498,45.6638 C22.514,45.6578 22.564,45.6418 22.645,45.6148 C22.757,45.5768 22.817,45.5568 22.817,45.5568 L22.817,45.5598 C24.225,45.1178 30.222,43.2868 36.829,44.1188 L8.835,28.3108 L6.36501,49.3528 M32.029,5.36478 L45.731,37.2958 L41.38,6.64778 C37.996,5.55478 34.417,5.28178 32.029,5.36478 M22.818,6.84778 L22.818,6.84378 C22.818,6.84378 22.758,6.86478 22.646,6.90278 C22.564,6.92878 22.515,6.94678 22.499,6.95178 C21.978,7.12478 20.837,7.49478 19.292,7.94078 L43.014,38.3258 L31.947,5.36478 C27.614,5.53078 23.849,6.52378 22.818,6.84778 M77.501,6.95178 C77.485,6.94678 77.436,6.92978 77.354,6.90278 C77.242,6.86478 77.183,6.84378 77.183,6.84378 L77.183,6.84678 C76.152,6.52278 72.386,5.52978 68.054,5.36378 L56.986,38.3258 L80.709,7.93978 C79.163,7.49478 78.024,7.12478 77.501,6.95178 M91.165,28.3108 L63.171,44.1188 C69.777,43.2858 75.774,45.1178 77.183,45.5598 L77.183,45.5568 C77.183,45.5568 77.242,45.5778 77.354,45.6148 C77.436,45.6418 77.486,45.6578 77.501,45.6638 C79.103,46.1958 86.513,48.5698 93.635,49.3528 L91.165,28.3108 M89.66,15.4668 L61.489,41.8078 L91.152,28.1928 L89.66,15.4668 M89.009,9.93878 C85.871,9.34678 82.947,8.58378 80.79,7.96278 L59.402,39.8538 L89.646,15.3688 L89.009,9.93878 M58.62,6.64778 L54.268,37.2948 L67.97,5.36378 C65.584,5.28178 62.004,5.55478 58.62,6.64778 M50.031,11.5758 L51.519,36.7638 L58.551,6.66978 C55.67,7.61078 52.681,9.15178 50.031,11.5758 Z" style="stroke:none;fill-rule:nonzero;fill:#004b85;fill-opacity:1;"/>
        </g>
        <g id="Shape2">
            <desc shapeID="2" type="0" basicInfo-basicType="0" basicInfo-roundedRectRadius="12" basicInfo-polygonSides="6" basicInfo-starPoints="5" bounding="rect(-23.494,-2.7925,46.988,5.585)" text="" font-familyName="" font-pixelSize="20" font-bold="0" font-underline="0" font-alignment="1" strokeStyle="0" markerStart="0" markerEnd="0" shadowEnabled="0" shadowOffsetX="0" shadowOffsetY="2" shadowBlur="4" shadowOpacity="160" blurEnabled="0" blurRadius="4" transform="matrix(1,0,0,1,51.787,51.8573)" pers-center="0,0" pers-size="0,0" pers-start="0,0" pers-end="0,0" locked="0" mesh="" flag=""/>
            <path id="shapePath2" d="M50.008,51.8998 L45.169,49.1518 L28.293,49.1518 L28.293,54.6498 L71.781,54.6498 L71.781,49.1518 L54.848,49.1518 L50.008,51.8998 M74.857,49.4868 C74.574,49.2058 74.232,49.0648 73.831,49.0648 C73.434,49.0648 73.092,49.2058 72.81,49.4868 C72.527,49.7688 72.386,50.1088 72.386,50.5078 C72.386,50.9098 72.526,51.2518 72.806,51.5348 C73.087,51.8188 73.429,51.9598 73.83,51.9598 C74.231,51.9598 74.573,51.8178 74.856,51.5348 C75.139,51.2508 75.281,50.9088 75.281,50.5078 C75.281,50.1078 75.14,49.7678 74.857,49.4868 M74.712,51.3938 C74.47,51.6368 74.177,51.7598 73.829,51.7598 C73.483,51.7598 73.189,51.6368 72.947,51.3938 C72.706,51.1498 72.586,50.8548 72.586,50.5088 C72.586,50.1648 72.706,49.8718 72.949,49.6298 C73.192,49.3858 73.486,49.2638 73.829,49.2638 C74.175,49.2638 74.469,49.3858 74.712,49.6298 C74.954,49.8718 75.076,50.1648 75.076,50.5088 C75.076,50.8548 74.954,51.1498 74.712,51.3938 M74.487,50.1708 C74.487,49.9708 74.405,49.8368 74.24,49.7678 C74.147,49.7298 74.003,49.7108 73.804,49.7108 L73.246,49.7108 L73.246,51.2978 L73.525,51.2978 L73.525,50.6778 L73.747,50.6778 C73.897,50.6778 74.003,50.6948 74.061,50.7288 C74.163,50.7868 74.212,50.9078 74.212,51.0888 L74.212,51.2138 L74.218,51.2648 C74.22,51.2718 74.221,51.2768 74.222,51.2828 L74.226,51.2988 L74.486,51.2988 L74.477,51.2788 C74.469,51.2658 74.466,51.2388 74.463,51.1968 C74.46,51.1548 74.459,51.1148 74.459,51.0788 L74.459,50.9628 C74.459,50.8828 74.431,50.8018 74.373,50.7178 C74.315,50.6338 74.224,50.5828 74.1,50.5628 C74.198,50.5478 74.275,50.5218 74.33,50.4858 C74.436,50.4178 74.487,50.3128 74.487,50.1708 M74.049,50.4428 C73.989,50.4658 73.9,50.4778 73.78,50.4778 L73.526,50.4778 L73.526,49.9098 L73.766,49.9098 C73.922,49.9098 74.037,49.9298 74.107,49.9678 C74.178,50.0068 74.213,50.0828 74.213,50.1968 C74.214,50.3178 74.159,50.3998 74.049,50.4428 Z" style="stroke:none;fill-rule:nonzero;fill:#e03a3e;fill-opacity:1;"/>
        </g>
    </g>
</svg>
