<?xml version="1.0" encoding="utf-8"?>
<!-- Generator: Adobe Illustrator 18.0.0, SVG Export Plug-In . SVG Version: 6.00 Build 0)  -->
<!DOCTYPE svg PUBLIC "-//W3C//DTD SVG 1.1//EN" "http://www.w3.org/Graphics/SVG/1.1/DTD/svg11.dtd">
<svg version="1.1" id="Layer_1" xmlns="http://www.w3.org/2000/svg" xmlns:xlink="http://www.w3.org/1999/xlink" x="0px" y="0px"
	 viewBox="0 0 350 216" enable-background="new 0 0 350 216" xml:space="preserve">
<g id="Layer_1_1_">
	
		<g>
			<polygon fill="#CA4316" points="215.8,61.5 215.8,92.5 246.5,92.5 277.2,92.5 277.2,61.5 246.5,61.5 			"/>
			<polygon fill="#CA4316" points="215.8,123 215.8,154 246.5,154 277.2,154 277.2,123 246.5,123 			"/>
			<polygon fill="#CA4316" points="308,0 184.8,0 184.8,30.5 308,30.5 308,184.8 184.8,184.8 184.8,215.5 308,215.5 338.8,215.5 
				338.8,0 			"/>
			<polygon fill="#CA4316" points="30.8,30.5 154,30.5 154,0 30.8,0 0,0 0,215.5 30.8,215.5 154,215.5 154,184.8 30.8,184.8 			"/>
			<rect x="154" y="30.5" fill="#CA4316" width="30.8" height="154"/>
		</g>
	
	
</g>

</svg>
