<?xml version="1.0" encoding="utf-8"?>

<!-- License Agreement at http://iconmonstr.com/license/ -->

<!DOCTYPE svg PUBLIC "-//W3C//DTD SVG 1.1//EN" "http://www.w3.org/Graphics/SVG/1.1/DTD/svg11.dtd">
<svg version="1.1" xmlns="http://www.w3.org/2000/svg" xmlns:xlink="http://www.w3.org/1999/xlink" x="0px" y="0px"
	 width="512px" height="512px" viewBox="0 0 512 512" enable-background="new 0 0 512 512" xml:space="preserve">
<path id="power-off-2-icon" d="M291,234.001h-70V50h70V234.001z M422.427,173.741c-14.273-24.723-33.579-45.497-56.2-61.334
	l-23.445,33.483c17.81,12.468,33.01,28.824,44.247,48.287c27.026,46.812,27.026,104.487,0,151.299
	c-27.027,46.812-76.975,75.649-131.028,75.649s-104.002-28.838-131.029-75.649c-27.026-46.812-27.026-104.486,0-151.299
	c1.755-3.039,3.611-5.997,5.555-8.882l33.244,23.912V106.169L65.882,138.8l31.46,22.628c-2.726,3.991-5.329,8.087-7.769,12.313
	c-34.329,59.458-34.329,132.714,0,192.173C123.901,425.372,187.343,462,256,462c68.656,0,132.098-36.628,166.427-96.086
	C456.756,306.455,456.756,233.199,422.427,173.741z"/>
</svg>
