<?xml version="1.0" standalone="no"?><!-- Generator: Adobe Fireworks CS6, Export SVG Extension by Aaron Beall (http://fireworks.abeall.com) . Version: 0.6.1  --><!DOCTYPE svg PUBLIC "-//W3C//DTD SVG 1.1//EN" "http://www.w3.org/Graphics/SVG/1.1/DTD/svg11.dtd"><svg id="Untitled-Page%201" viewBox="0 0 16 16" style="background-color:#ffffff00" version="1.1"	xmlns="http://www.w3.org/2000/svg" xmlns:xlink="http://www.w3.org/1999/xlink" xml:space="preserve"	x="0px" y="0px" width="16px" height="16px">	<g id="Layer%201">		<path d="M 1.7769 1.7769 C -0.5923 4.1459 -0.5923 7.9867 1.7769 10.3558 C 4.1459 12.7249 7.9869 12.7249 10.3562 10.3558 C 12.7253 7.9867 12.7253 4.1459 10.3562 1.7769 C 7.9869 -0.5923 4.1461 -0.5923 1.7769 1.7769 ZM 9.679 2.4541 C 11.6738 4.449 11.6738 7.6834 9.679 9.6785 C 7.6839 11.6733 4.4493 11.6733 2.4543 9.6785 C 0.4594 7.6834 0.4593 4.449 2.4543 2.4541 C 4.4494 0.4593 7.6837 0.4593 9.679 2.4541 Z" fill="#ffffff"/>		<path d="M 10.1299 11.4848 L 11.4846 10.1303 L 16 14.6455 L 14.6453 16 L 10.1299 11.4848 Z" fill="#ffffff"/>	</g></svg>