<?xml version="1.0" encoding="utf-8"?>
<!DOCTYPE svg PUBLIC "-//W3C//DTD SVG 1.1//EN" "http://www.w3.org/Graphics/SVG/1.1/DTD/svg11.dtd">
<svg version="1.1" id="Layer_1" xmlns="http://www.w3.org/2000/svg" xmlns:xlink="http://www.w3.org/1999/xlink" viewBox="0 0 400 400" enable-background="new 0 0 400 400" xml:space="preserve">
	<path fill="#000" d="M128.56,51.11c3.78-10.68,7.09-20.41,20.26-19.57
		c10.44,0.66,14.16,7.32,15.11,16.44c22.15,5.47,23.82,10.09,16.96,48.65c18.41-0.48,17.92,12.17,17.53,25.37
		c-0.46,15.82-0.14,31.66-0.09,47.49c0,1.16,0.58,2.31,3.47,3.71c0.5-6.95,1.38-13.89,1.4-20.84c0.04-12.09-0.09-24.2-0.83-36.26
		c-0.75-12.19,3.72-19.26,17.14-19.03c-0.94-8.73-1.83-16.89-2.7-25.05c-1.68-15.86,2.31-20.78,19.25-22.97
		c1.85-8.96,4.79-17.41,16.7-17.56c13.08-0.16,15.88,9.87,19.31,19.31c15.71-10.42,22.93-8.42,28.91,9.18
		c12.42,36.52,24.14,73.28,36.23,110.18c11.43-16.99,29.29-20.99,48.95-17.45c4.82,0.87,10.61,6.58,12.17,11.32
		c0.87,2.63-5.42,10.38-9.6,11.46c-23.92,6.19-30.34,25.77-31.99,45.39c-2.25,26.9-11.79,49.08-26.97,71.06
		c-8.45,12.24-11.06,29.43-13.21,44.82c-1.61,11.53-6.67,18.57-15.9,23.4c-19.66,10.3-40.81,14.4-62.86,12.6
		c-3.82-0.31-9.33-3.29-10.69-6.47c-8.76-20.49-16.58-41.38-24.71-62.14c-1.15-0.11-2.29-0.23-3.44-0.34
		c-7.96,19.6-15.44,39.42-24.21,58.65c-2.07,4.55-8.5,10.2-12.79,10.08c-14.85-0.4-30-1.7-44.36-5.3
		c-18.98-4.77-34.01-13.7-34.68-37.71c-0.53-18.78-7.56-36.36-20.58-51.14c-12.73-14.45-15.01-32.67-17.47-51.09
		c-1.73-12.97-5.18-26.37-11.17-37.86c-3.22-6.18-13.12-9.32-20.5-12.75c-6.35-2.95-14.06-5.73-10.94-13.59
		c1.92-4.83,9.04-9.84,14.44-10.65c18.69-2.81,35.7,1.08,47.67,19.44c1.26-3.65,2.3-6.45,3.19-9.3
		c10.93-34.86,21.48-69.85,32.91-104.55C105.58,42.52,114.15,40.65,128.56,51.11z"/>
</svg>